<svg xmlns="http://www.w3.org/2000/svg" width="2800" height="491.31" viewBox="0 0 2800 491.31"><defs><style>.cls-1,.cls-7{fill:#754d20;}.cls-2{fill:#f3e090;}.cls-3{fill:#754c1f;}.cls-4,.cls-5{fill:none;}.cls-4{stroke:#040504;}.cls-4,.cls-5,.cls-7{stroke-miterlimit:10;}.cls-5{stroke:#050403;}.cls-6{fill:#b2182b;}.cls-7{stroke:#754d20;stroke-width:5px;}</style></defs><title>abe sprite</title><g id="_3_pasing" data-name="3 pasing"><path class="cls-1" d="M85.5,105.18l-5.63-5.25s-16.24,10-24.4-7.53c0,0-17.4,12.63-15.14,25.87s7.49,16,7.49,16,8.67-8.52,12.68-2.74,2.31,14.95,2.31,14.95L69.47,150S73.17,119.57,85.5,105.18Z"/><path class="cls-1" d="M216.42,153.32s71.06-26.08,22.2-60.58c0,0-8.28,17.24-27.52,7.53l-9.32,7.7S215.09,128,216.42,153.32Z"/><ellipse class="cls-2" cx="69.31" cy="121.22" rx="13.72" ry="19.57" transform="translate(-63.55 78.25) rotate(-42.32)"/><ellipse class="cls-2" cx="220.09" cy="125.98" rx="20.89" ry="14.5" transform="translate(-31.1 160.77) rotate(-37.67)"/><path class="cls-1" d="M142.11,195.6s36.51-5.83,38,30.52c.13,3.1,0,30.75,0,32.23-.54,28.1-2.55,65.1-8.76,73-13.14,16.8-23,21.94-29.21,20.91s-30.66-18.51-31.76-56.57-8.4-67.56,0-89.85C110.35,205.88,115.1,194.91,142.11,195.6Z"/><ellipse class="cls-3" cx="142.36" cy="163.73" rx="76.85" ry="89.15"/><path class="cls-1" d="M119.89,331.22s-58.76,46.31-45.15,72.65h4.54s-9.78-18.57,42.45-69.65"/><path class="cls-1" d="M132.28,255.51S39.56,316,28.57,375.85l4,2.46S40.17,336,131.28,262.5"/><path class="cls-1" d="M74.74,403.87s-14.11.7-8.4,5c0,0,7.36,0,8.4-2.5,0,0-1.63,6.65.87,5.09A6.12,6.12,0,0,0,78.28,407s4.28,5.69,5.53,3.45-4.53-6.57-4.53-6.57"/><path class="cls-1" d="M163.36,326.8s57.17,46.31,43.93,72.65h-4.41s9.51-18.57-41.31-69.65"/><path class="cls-1" d="M206.49,398.4s13.73.71,8.18,5c0,0-7.17,0-8.18-2.51,0,0,1.58,6.65-.85,5.1a6.16,6.16,0,0,1-2.6-4.49s-4.16,5.7-5.38,3.45,4.41-6.57,4.41-6.57"/><path class="cls-1" d="M341.32,113.34s-95.27,127-176,153.3l-2.56-4.43s57-18.35,169.2-146.15"/><path class="cls-1" d="M32.6,375.26s13.73.85,8.18,6.11c0,0-7.17,0-8.18-3.06,0,0,1.58,8.11-.85,6.21s-2.6-5.46-2.6-5.46S25,386,23.77,383.26s4.41-8,4.41-8"/><path class="cls-1" d="M332.08,115.24s-20-4.66-10.25-12.56c0,0,10.54,1.65,11.14,7.22,0,0,0-14.52,3.06-10.66s2.23,10.16,2.23,10.16,8.15-11.17,9.14-6.11-8.82,13-8.82,13"/><path class="cls-3" d="M135.34,74.83s12.58-26.5,28.17-30c0,0-31.55,32.63-24.66,30s9.07-12.41,18.86-13.14c0,0-19.49,12.6-15.55,13.14S135.34,74.83,135.34,74.83Z"/><path class="cls-2" d="M203.79,177l-61,0a6.58,6.58,0,0,1-5.64-10l30.56-51.12a6.58,6.58,0,0,1,11.29,0l30.46,51.18A6.57,6.57,0,0,1,203.79,177Z"/><ellipse class="cls-2" cx="142.04" cy="196.88" rx="31.26" ry="30.25"/><line class="cls-4" x1="208.76" y1="159.21" x2="165.31" y2="189.3"/><line class="cls-4" x1="212.19" y1="181.28" x2="190.47" y2="157.28"/><line class="cls-4" x1="199.61" y1="189.16" x2="177.89" y2="165.15"/><line class="cls-4" x1="188.75" y1="197.37" x2="167.03" y2="173.36"/><polyline class="cls-5" points="158.72 206.59 148.92 202.38 123.35 212.58"/><ellipse cx="152.21" cy="185.73" rx="6.32" ry="6.12"/><ellipse cx="132.48" cy="185.73" rx="6.32" ry="6.12"/><polygon class="cls-6" points="182.88 161.48 157.61 167.12 180.87 136.45 182.88 161.48"/><path class="cls-2" d="M82.13,176.23l59.59,0a6.57,6.57,0,0,0,5.66-9.89l-29.84-50.93a6.57,6.57,0,0,0-11.34,0l-29.75,51A6.57,6.57,0,0,0,82.13,176.23Z"/><polygon class="cls-6" points="102.52 160.67 127.29 166.31 104.49 135.65 102.52 160.67"/><path class="cls-1" d="M440,105.24,434.39,100s-16.24,10-24.4-7.53c0,0-17.4,12.63-15.14,25.88s7.49,16,7.49,16,8.67-8.52,12.68-2.74,2.31,15,2.31,15l6.66,3.56S427.69,119.62,440,105.24Z"/><path class="cls-1" d="M570.94,153.38S642,127.29,593.15,92.79c0,0-8.28,17.25-27.53,7.53L556.3,108S569.62,128.06,570.94,153.38Z"/><ellipse class="cls-2" cx="423.83" cy="121.27" rx="13.72" ry="19.57" transform="translate(28.8 316.96) rotate(-42.32)"/><ellipse class="cls-2" cx="574.61" cy="126.03" rx="20.89" ry="14.5" transform="translate(42.78 377.45) rotate(-37.67)"/><path class="cls-1" d="M496.64,195.65s36.51-5.83,38,30.52c.12,3.1,0,30.76,0,32.23-.54,28.1-2.55,65.1-8.76,73-13.14,16.8-23,21.95-29.2,20.92S466,333.84,464.87,295.78s-8.39-67.55,0-89.84C464.87,205.94,469.62,195,496.64,195.65Z"/><ellipse class="cls-3" cx="496.88" cy="163.79" rx="76.85" ry="89.15"/><path class="cls-1" d="M472.76,326.05s-44.63,59.27-24.54,81.39l4.39-1.12s-14.35-15.54,22.72-77.81"/><path class="cls-1" d="M448.22,407.44s-13.46,4.16-6.81,6.92c0,0,7.12-1.81,7.47-4.49,0,0,.17,6.83,2.18,4.71a6,6,0,0,0,1.4-5s5.64,4.45,6.26,2-6.11-5.24-6.11-5.24"/><path class="cls-1" d="M517.89,326.85s57.16,46.31,43.92,72.65H557.4s9.52-18.56-41.3-69.64"/><path class="cls-1" d="M561,398.46s13.73.7,8.18,5c0,0-7.16,0-8.18-2.5,0,0,1.59,6.65-.84,5.09a6.19,6.19,0,0,1-2.61-4.49s-4.16,5.7-5.37,3.46,4.41-6.57,4.41-6.57"/><path class="cls-1" d="M694.84,112.4s-95.27,127-176,153.3l-2.56-4.43s57-18.36,169.21-146.15"/><path class="cls-1" d="M512.43,269.55s-111.19,11.33-149.9,59.25l2.37,4s27.19-33.94,143.26-57.53"/><path class="cls-1" d="M366.38,330.1s11.71,7,4.26,9.11c0,0-6.32-3.25-5.74-6.41,0,0-2.52,7.88-3.75,5.1s.35-6,.35-6-7,4.24-6.79,1.28,7.77-5.07,7.77-5.07"/><path class="cls-1" d="M685.23,115.11s-18.35-4.23-9.48-11.18c0,0,9.69,1.52,10.27,6.45,0,0,0-12.86,2.75-9.42s2.1,9,2.1,9,7.43-9.85,8.36-5.37-8,11.44-8,11.44"/><path class="cls-3" d="M489.87,74.88s12.57-26.5,28.17-30c0,0-31.56,32.63-24.67,30s9.07-12.41,18.86-13.13c0,0-19.48,12.6-15.54,13.13S489.87,74.88,489.87,74.88Z"/><path class="cls-2" d="M558.31,177.09l-61-.05a6.57,6.57,0,0,1-5.63-9.94L522.21,116a6.58,6.58,0,0,1,11.29,0L564,167.16A6.57,6.57,0,0,1,558.31,177.09Z"/><ellipse class="cls-2" cx="496.56" cy="196.93" rx="31.26" ry="30.25"/><line class="cls-4" x1="563.28" y1="159.26" x2="519.84" y2="189.36"/><line class="cls-4" x1="566.71" y1="181.34" x2="544.99" y2="157.33"/><line class="cls-4" x1="554.13" y1="189.21" x2="532.41" y2="165.2"/><line class="cls-4" x1="543.27" y1="197.42" x2="521.55" y2="173.41"/><polyline class="cls-5" points="513.24 206.64 503.45 202.43 477.87 212.63"/><ellipse cx="506.73" cy="185.78" rx="6.32" ry="6.12"/><ellipse cx="487" cy="185.78" rx="6.32" ry="6.12"/><polygon class="cls-6" points="537.4 161.53 512.13 167.17 535.39 136.5 537.4 161.53"/><path class="cls-2" d="M436.66,176.28l59.58-.05a6.57,6.57,0,0,0,5.66-9.89l-29.83-50.93a6.57,6.57,0,0,0-11.35,0L431,166.4A6.56,6.56,0,0,0,436.66,176.28Z"/><polygon class="cls-6" points="457.04 160.73 481.81 166.37 459.01 135.7 457.04 160.73"/><path class="cls-1" d="M785.43,103.33l-5.63-5.25s-16.24,10-24.4-7.53c0,0-17.4,12.63-15.14,25.87s7.49,16,7.49,16,8.67-8.52,12.68-2.74,2.31,15,2.31,15l6.66,3.57S773.1,117.72,785.43,103.33Z"/><path class="cls-1" d="M916.35,151.47s71.06-26.08,22.21-60.58c0,0-8.28,17.24-27.53,7.53l-9.32,7.7S915,126.16,916.35,151.47Z"/><ellipse class="cls-2" cx="769.24" cy="119.37" rx="13.72" ry="19.57" transform="translate(120.1 549.01) rotate(-42.32)"/><ellipse class="cls-2" cx="920.02" cy="124.13" rx="20.89" ry="14.5" transform="translate(115.95 588.15) rotate(-37.67)"/><path class="cls-1" d="M842.05,193.75s36.51-5.83,38,30.52c.12,3.1,0,30.75,0,32.23-.54,28.1-2.55,65.1-8.76,73-13.14,16.8-23,21.94-29.2,20.91s-30.67-18.51-31.77-56.57-8.4-67.56,0-89.85C810.28,204,815,193.06,842.05,193.75Z"/><ellipse class="cls-3" cx="842.29" cy="161.88" rx="76.85" ry="89.15"/><path class="cls-1" d="M819.66,320.69s-9.54,72.76,19.08,82.75l3.29-3s-20.31-6.92-18.9-78.77"/><path class="cls-1" d="M838.74,403.44s-9.71,9.92-2.51,9.24c0,0,5.33-4.92,4.3-7.43,0,0,3.56,5.9,4.26,3.11a6,6,0,0,0-1.26-5s7.16,1.26,6.46-1.19-8-1.73-8-1.73"/><path class="cls-1" d="M863.29,325s57.17,46.31,43.93,72.65h-4.41S912.32,379,861.51,328"/><path class="cls-1" d="M906.42,396.55s13.73.71,8.18,5c0,0-7.17,0-8.18-2.51,0,0,1.58,6.65-.85,5.1a6.2,6.2,0,0,1-2.6-4.49s-4.16,5.7-5.38,3.45,4.41-6.57,4.41-6.57"/><path class="cls-1" d="M1041.25,111.49s-95.27,127-176,153.3l-2.56-4.43s57-18.35,169.2-146.15"/><path class="cls-1" d="M870.45,286.1s-96.89-54-157.29-37.2l-.51,4.58s42.6-12,150.88,34.82"/><path class="cls-1" d="M715.49,252.14s5.25,12.31-2.07,9.8c0,0-3.15-6.23-.77-8.46,0,0-6.82,5-6.13,2s3.93-4.66,3.93-4.66-8.27-.57-6.27-2.83,9.37.31,9.37.31"/><path class="cls-1" d="M1032,113.39s-20-4.66-10.25-12.56c0,0,10.54,1.65,11.14,7.22,0,0,0-14.52,3.06-10.66s2.23,10.16,2.23,10.16,8.16-11.17,9.14-6.11-8.82,13-8.82,13"/><path class="cls-3" d="M835.27,73s12.58-26.5,28.17-30c0,0-31.55,32.63-24.66,30s9.07-12.41,18.86-13.14c0,0-19.48,12.6-15.55,13.14S835.27,73,835.27,73Z"/><path class="cls-2" d="M903.72,175.19l-61-.05a6.57,6.57,0,0,1-5.63-9.95l30.55-51.12a6.58,6.58,0,0,1,11.29,0l30.46,51.18A6.57,6.57,0,0,1,903.72,175.19Z"/><ellipse class="cls-2" cx="841.97" cy="195.03" rx="31.26" ry="30.25"/><line class="cls-4" x1="908.69" y1="157.36" x2="865.25" y2="187.45"/><line class="cls-4" x1="912.12" y1="179.43" x2="890.4" y2="155.43"/><line class="cls-4" x1="899.54" y1="187.31" x2="877.82" y2="163.3"/><line class="cls-4" x1="888.68" y1="195.52" x2="866.96" y2="171.51"/><ellipse cx="852.14" cy="183.88" rx="6.32" ry="6.12"/><ellipse cx="832.41" cy="183.88" rx="6.32" ry="6.12"/><polygon class="cls-6" points="882.31 153.39 863.33 157.63 880.8 134.6 882.31 153.39"/><path class="cls-2" d="M782.06,174.38l59.59,0a6.57,6.57,0,0,0,5.66-9.89l-29.84-50.93a6.57,6.57,0,0,0-11.34,0l-29.75,51A6.57,6.57,0,0,0,782.06,174.38Z"/><polygon class="cls-6" points="803.04 151.29 820.36 155.23 804.42 133.79 803.04 151.29"/><path class="cls-1" d="M1131.9,103.05l-5.63-5.25s-16.24,10-24.4-7.54c0,0-17.4,12.63-15.14,25.88s7.49,16,7.49,16,8.67-8.51,12.68-2.73,2.31,15,2.31,15l6.66,3.57S1119.57,117.43,1131.9,103.05Z"/><path class="cls-1" d="M1262.82,151.19s71.06-26.08,22.2-60.59c0,0-8.28,17.25-27.52,7.54l-9.32,7.7S1261.49,125.88,1262.82,151.19Z"/><ellipse class="cls-2" cx="1115.71" cy="119.09" rx="13.72" ry="19.57" transform="translate(210.58 782.21) rotate(-42.32)"/><ellipse class="cls-2" cx="1266.49" cy="123.84" rx="20.89" ry="14.5" transform="translate(188.36 799.84) rotate(-37.67)"/><path class="cls-1" d="M1188.51,193.46s36.51-5.83,38,30.52c.13,3.11,0,30.76,0,32.23-.54,28.11-2.55,65.1-8.76,73-13.14,16.81-23,21.95-29.21,20.92s-30.66-18.52-31.76-56.58-8.4-67.55,0-89.84C1156.75,203.75,1161.5,192.78,1188.51,193.46Z"/><ellipse class="cls-3" cx="1188.76" cy="161.6" rx="76.85" ry="89.15"/><path class="cls-1" d="M1163.39,324.85s11.91,72.42,42.27,74.22l2.28-3.8s-21.5-1.11-40.94-70.45"/><path class="cls-1" d="M1205.23,397.32s-6.6,12.1.15,9.56c0,0,3.76-6.12,2.07-8.28,0,0,5.07,4.76,5,1.89a6.16,6.16,0,0,0-2.62-4.52s7.25-.64,5.9-2.83-8.15.41-8.15.41"/><path class="cls-1" d="M1209.76,324.66s57.17,46.32,43.93,72.66h-4.41s9.51-18.57-41.31-69.65"/><path class="cls-1" d="M1252.89,396.27s13.73.7,8.18,5c0,0-7.17,0-8.18-2.51,0,0,1.58,6.65-.85,5.1a6.18,6.18,0,0,1-2.6-4.49s-4.16,5.69-5.38,3.45,4.41-6.57,4.41-6.57"/><path class="cls-1" d="M1387.72,111.21s-95.27,127-176,153.3l-2.56-4.43s57-18.35,169.2-146.15"/><path class="cls-1" d="M1378.48,113.11s-20-4.66-10.25-12.57c0,0,10.54,1.65,11.14,7.23,0,0,0-14.53,3.06-10.66s2.23,10.15,2.23,10.15,8.15-11.16,9.14-6.11-8.82,13-8.82,13"/><path class="cls-3" d="M1181.74,72.69s12.58-26.5,28.17-30c0,0-31.55,32.64-24.66,30s9.07-12.41,18.86-13.13c0,0-19.49,12.6-15.55,13.13S1181.74,72.69,1181.74,72.69Z"/><path class="cls-2" d="M1250.19,174.9l-61-.05a6.57,6.57,0,0,1-5.64-9.94l30.56-51.12a6.57,6.57,0,0,1,11.29,0L1255.84,165A6.57,6.57,0,0,1,1250.19,174.9Z"/><ellipse class="cls-2" cx="1188.44" cy="194.75" rx="31.26" ry="30.25"/><line class="cls-4" x1="1255.16" y1="157.08" x2="1211.71" y2="187.17"/><line class="cls-4" x1="1258.59" y1="179.15" x2="1236.86" y2="155.14"/><line class="cls-4" x1="1246.01" y1="187.02" x2="1224.29" y2="163.02"/><line class="cls-4" x1="1235.15" y1="195.23" x2="1213.43" y2="171.23"/><ellipse cx="1198.61" cy="183.59" rx="6.32" ry="6.12"/><ellipse cx="1178.87" cy="183.59" rx="6.32" ry="6.12"/><polygon class="cls-6" points="1227.13 155.29 1204.56 160.33 1225.33 132.94 1227.13 155.29"/><path class="cls-2" d="M1128.53,174.1l59.59,0a6.57,6.57,0,0,0,5.66-9.89l-29.84-50.94a6.57,6.57,0,0,0-11.34,0l-29.75,51A6.57,6.57,0,0,0,1128.53,174.1Z"/><polygon class="cls-6" points="1149.13 155.88 1171.26 160.92 1150.89 133.51 1149.13 155.88"/><ellipse cx="1188.37" cy="206.67" rx="6.32" ry="12.67"/><path class="cls-1" d="M1483,102l-5.64-5.26s-16.24,10-24.4-7.53c0,0-17.4,12.63-15.14,25.88s7.5,16,7.5,16,8.66-8.52,12.68-2.74,2.31,15,2.31,15l6.65,3.56S1470.62,116.35,1483,102Z"/><path class="cls-1" d="M1613.87,150.11s71.06-26.09,22.21-60.59c0,0-8.28,17.25-27.52,7.53l-9.32,7.7S1612.55,124.79,1613.87,150.11Z"/><ellipse class="cls-2" cx="1466.76" cy="118" rx="13.72" ry="19.57" transform="translate(302.8 1018.28) rotate(-42.32)"/><ellipse class="cls-2" cx="1617.55" cy="122.76" rx="20.89" ry="14.5" transform="translate(262.21 1014.16) rotate(-37.67)"/><path class="cls-1" d="M1539.57,192.38s36.51-5.83,38,30.52c.12,3.1,0,30.76,0,32.23-.54,28.1-2.54,65.1-8.75,73-13.15,16.8-23,21.95-29.21,20.92s-30.67-18.52-31.76-56.58-8.4-67.55,0-89.84C1507.81,202.67,1512.55,191.69,1539.57,192.38Z"/><ellipse class="cls-3" cx="1539.82" cy="160.52" rx="76.85" ry="89.15"/><path class="cls-1" d="M1533.87,318.88s-36.18,68.17-11.75,87.86l4.34-1.84s-17.4-13.8,10.47-83.89"/><path class="cls-1" d="M1522.12,406.74s-13.2,6.4-5.87,8.21c0,0,7-3,7-5.81,0,0,1.32,7,3,4.53a6.27,6.27,0,0,0,.62-5.38s6.56,3.71,6.79,1.06-7.19-4.45-7.19-4.45"/><path class="cls-1" d="M1560.82,323.58s57.17,46.31,43.93,72.65h-4.42s9.52-18.56-41.3-69.64"/><path class="cls-1" d="M1603.94,395.19s13.73.7,8.18,5c0,0-7.16,0-8.18-2.5,0,0,1.59,6.65-.84,5.09a6.16,6.16,0,0,1-2.6-4.49s-4.17,5.7-5.38,3.46,4.41-6.57,4.41-6.57"/><path class="cls-1" d="M1738.77,110.13s-95.26,127-176,153.3l-2.57-4.43s57-18.36,169.21-146.15"/><path class="cls-1" d="M1729.54,112s-20-4.65-10.26-12.56c0,0,10.54,1.65,11.15,7.22,0,0,0-14.52,3-10.65s2.24,10.15,2.24,10.15,8.15-11.17,9.14-6.11-8.83,13-8.83,13"/><path class="cls-3" d="M1532.8,71.61s12.57-26.5,28.17-30c0,0-31.56,32.64-24.67,30s9.07-12.41,18.87-13.13c0,0-19.49,12.6-15.55,13.13S1532.8,71.61,1532.8,71.61Z"/><path class="cls-2" d="M1601.24,173.82l-61,0a6.57,6.57,0,0,1-5.63-9.94l30.56-51.13a6.57,6.57,0,0,1,11.28,0l30.47,51.18A6.58,6.58,0,0,1,1601.24,173.82Z"/><ellipse class="cls-2" cx="1539.49" cy="193.66" rx="31.26" ry="30.25"/><line class="cls-4" x1="1606.21" y1="155.99" x2="1562.77" y2="186.09"/><line class="cls-4" x1="1609.64" y1="178.07" x2="1587.92" y2="154.06"/><line class="cls-4" x1="1597.07" y1="185.94" x2="1575.34" y2="161.93"/><line class="cls-4" x1="1586.21" y1="194.15" x2="1564.48" y2="170.14"/><ellipse cx="1549.67" cy="182.51" rx="6.32" ry="6.12"/><ellipse cx="1529.93" cy="182.51" rx="6.32" ry="6.12"/><polygon class="cls-6" points="1577.63 147.31 1562.02 150.79 1576.38 131.85 1577.63 147.31"/><path class="cls-2" d="M1479.59,173l59.58,0a6.57,6.57,0,0,0,5.67-9.89L1515,112.14a6.57,6.57,0,0,0-11.34,0l-29.75,51A6.57,6.57,0,0,0,1479.59,173Z"/><polygon class="cls-6" points="1501.33 149.28 1516.49 152.73 1502.54 133.97 1501.33 149.28"/><path class="cls-1" d="M1499,270.44s-8.57-13.33.45-11.79c0,0,4.92,6.64,2.58,9.69,0,0,7-7,6.74-3.49s-3.64,6.17-3.64,6.17,9.74-.9,7.86,2.1-11,1.41-11,1.41"/><ellipse cx="1539.43" cy="202.9" rx="6.32" ry="6.27"/><path class="cls-7" d="M1509.49,263.24l.43-6.19s-38.4-33.46-52.06,12,44.81,5.78,44.81,5.78l-1.71-3.71s-34.14,24-40.11,14S1468.1,255,1468.1,255s12-18.17,36.27,3.3S1509.49,263.24,1509.49,263.24Z"/><ellipse cx="843.09" cy="205.07" rx="6.32" ry="6.27"/><path class="cls-1" d="M1834,103l-5.64-5.26s-16.23,10-24.39-7.53c0,0-17.4,12.63-15.15,25.87s7.5,16,7.5,16,8.66-8.52,12.68-2.74,2.31,14.95,2.31,14.95l6.66,3.57S1821.7,117.42,1834,103Z"/><path class="cls-1" d="M1964.94,151.18s71.07-26.09,22.21-60.59c0,0-8.28,17.24-27.52,7.53l-9.32,7.7S1963.62,125.86,1964.94,151.18Z"/><ellipse class="cls-2" cx="1817.83" cy="119.07" rx="13.72" ry="19.57" transform="translate(393.57 1254.93) rotate(-42.32)"/><ellipse class="cls-2" cx="1968.62" cy="123.83" rx="20.89" ry="14.5" transform="translate(334.76 1228.95) rotate(-37.67)"/><path class="cls-1" d="M1890.64,193.45s36.51-5.83,38,30.52c.13,3.1,0,30.75,0,32.23-.54,28.1-2.55,65.1-8.76,73-13.14,16.8-23,21.94-29.21,20.92s-30.67-18.52-31.76-56.58-8.4-67.56,0-89.84C1858.88,203.74,1863.63,192.76,1890.64,193.45Z"/><ellipse class="cls-3" cx="1890.89" cy="161.59" rx="76.85" ry="89.15"/><path class="cls-1" d="M1866,324.59s11,72.55,41.39,74.72l2.32-3.78s-21.48-1.36-40.1-70.93"/><path class="cls-1" d="M1906.35,399.31s-6.59,12.09.16,9.55c0,0,3.76-6.12,2.07-8.27,0,0,5.07,4.76,5,1.89a6.16,6.16,0,0,0-2.62-4.52s7.25-.65,5.89-2.84-8.15.41-8.15.41"/><path class="cls-1" d="M1911.89,324.65s57.17,46.31,43.93,72.65h-4.41s9.51-18.57-41.31-69.65"/><path class="cls-1" d="M1955,396.26s13.74.7,8.18,5c0,0-7.16,0-8.18-2.51,0,0,1.59,6.65-.84,5.1a6.16,6.16,0,0,1-2.6-4.49s-4.16,5.7-5.38,3.46,4.41-6.57,4.41-6.57"/><path class="cls-1" d="M2089.84,111.19s-95.26,127-176,153.31l-2.56-4.44s57-18.35,169.2-146.14"/><path class="cls-1" d="M2080.61,113.09s-20-4.65-10.25-12.56c0,0,10.54,1.65,11.14,7.22,0,0,0-14.52,3.06-10.65s2.23,10.15,2.23,10.15,8.15-11.17,9.14-6.11-8.83,13-8.83,13"/><path class="cls-3" d="M1883.87,72.68s12.58-26.5,28.17-30c0,0-31.55,32.63-24.66,30s9.07-12.41,18.86-13.14c0,0-19.49,12.6-15.55,13.14S1883.87,72.68,1883.87,72.68Z"/><path class="cls-2" d="M1952.32,174.89l-61,0a6.58,6.58,0,0,1-5.64-9.94l30.56-51.13a6.57,6.57,0,0,1,11.28,0L1958,165A6.57,6.57,0,0,1,1952.32,174.89Z"/><ellipse class="cls-2" cx="1890.57" cy="194.73" rx="31.26" ry="30.25"/><line class="cls-4" x1="1957.29" y1="157.06" x2="1913.84" y2="187.15"/><line class="cls-4" x1="1960.72" y1="179.14" x2="1938.99" y2="155.13"/><line class="cls-4" x1="1948.14" y1="187.01" x2="1926.42" y2="163"/><line class="cls-4" x1="1937.28" y1="195.22" x2="1915.56" y2="171.21"/><ellipse cx="1900.74" cy="183.58" rx="6.32" ry="6.12"/><ellipse cx="1881" cy="183.58" rx="6.32" ry="6.12"/><polygon class="cls-6" points="1929.25 155.27 1906.68 160.31 1927.45 132.92 1929.25 155.27"/><path class="cls-2" d="M1830.66,174.08l59.59-.05a6.57,6.57,0,0,0,5.66-9.89l-29.84-50.93a6.57,6.57,0,0,0-11.34,0l-29.75,51A6.57,6.57,0,0,0,1830.66,174.08Z"/><polygon class="cls-6" points="1851.25 155.86 1873.39 160.91 1853.02 133.5 1851.25 155.86"/><path class="cls-1" d="M1773.57,275s13.37-3.15,9.68,3.47c0,0-6.83,2.07-8.74-.56,0,0,4,7.28,1.1,6.18s-4.16-4.47-4.16-4.47-1.84,7.82-3.84,5.56,1.74-8.91,1.74-8.91"/><ellipse cx="1890.5" cy="206.65" rx="6.32" ry="12.67"/><path class="cls-1" d="M2533.14,103.45l-5.63-5.26s-16.24,10-24.4-7.53c0,0-17.4,12.63-15.14,25.88s7.49,16,7.49,16,8.67-8.52,12.68-2.74,2.31,15,2.31,15l6.66,3.56S2520.81,117.83,2533.14,103.45Z"/><path class="cls-1" d="M2664.06,151.59s71.06-26.09,22.21-60.59c0,0-8.28,17.25-27.53,7.53l-9.32,7.7S2662.73,126.27,2664.06,151.59Z"/><ellipse class="cls-2" cx="2516.95" cy="119.48" rx="13.72" ry="19.57" transform="translate(575.48 1725.73) rotate(-42.32)"/><ellipse class="cls-2" cx="2667.73" cy="124.24" rx="20.89" ry="14.5" transform="translate(480.26 1656.3) rotate(-37.67)"/><path class="cls-1" d="M2589.76,193.86s36.51-5.83,38,30.52c.12,3.1,0,30.76,0,32.23-.54,28.1-2.55,65.1-8.76,73-13.14,16.8-23,22-29.2,20.92S2559.09,332.05,2558,294s-8.39-67.55,0-89.84C2558,204.15,2562.74,193.17,2589.76,193.86Z"/><ellipse class="cls-3" cx="2590" cy="162" rx="76.85" ry="89.15"/><path class="cls-1" d="M2565.88,324.26s-44.63,59.27-24.54,81.39l4.39-1.12s-14.35-15.54,22.72-77.81"/><path class="cls-1" d="M2541.34,405.65s-13.46,4.16-6.81,6.92c0,0,7.12-1.81,7.47-4.49,0,0,.17,6.83,2.18,4.71a6,6,0,0,0,1.4-5s5.64,4.45,6.26,2-6.11-5.24-6.11-5.24"/><path class="cls-1" d="M2611,325.06s57.16,46.31,43.92,72.65h-4.41s9.52-18.56-41.3-69.64"/><path class="cls-1" d="M2654.13,396.67s13.73.7,8.18,5c0,0-7.16,0-8.18-2.5,0,0,1.58,6.65-.84,5.09a6.19,6.19,0,0,1-2.61-4.49s-4.16,5.7-5.38,3.46,4.42-6.57,4.42-6.57"/><path class="cls-1" d="M2789,111.61s-95.27,127-176,153.3l-2.56-4.43s57-18.36,169.2-146.15"/><path class="cls-1" d="M2611.55,267.76s-111.19,11.33-149.9,59.25l2.37,4s27.19-33.94,143.26-57.53"/><path class="cls-1" d="M2465.5,328.31s11.71,7,4.26,9.11c0,0-6.32-3.25-5.74-6.41,0,0-2.53,7.88-3.75,5.1s.34-6,.34-6-7,4.24-6.78,1.28,7.77-5.07,7.77-5.07"/><path class="cls-1" d="M2779.72,113.5s-19.95-4.65-10.25-12.56c0,0,10.54,1.65,11.15,7.22,0,0,0-14.52,3.05-10.65s2.23,10.15,2.23,10.15,8.16-11.17,9.15-6.11-8.83,13-8.83,13"/><path class="cls-3" d="M2583,73.09s12.58-26.5,28.18-30c0,0-31.56,32.64-24.67,30s9.07-12.41,18.86-13.13c0,0-19.48,12.6-15.54,13.13S2583,73.09,2583,73.09Z"/><path class="cls-2" d="M2651.43,175.3l-61-.05a6.57,6.57,0,0,1-5.63-9.94l30.55-51.13a6.58,6.58,0,0,1,11.29,0l30.46,51.18A6.57,6.57,0,0,1,2651.43,175.3Z"/><ellipse class="cls-2" cx="2589.68" cy="195.14" rx="31.26" ry="30.25"/><line class="cls-4" x1="2656.4" y1="157.48" x2="2612.96" y2="187.57"/><line class="cls-4" x1="2659.83" y1="179.55" x2="2638.11" y2="155.54"/><line class="cls-4" x1="2647.25" y1="187.42" x2="2625.53" y2="163.41"/><line class="cls-4" x1="2636.39" y1="195.63" x2="2614.67" y2="171.62"/><polyline class="cls-5" points="2606.36 204.85 2596.57 200.64 2570.99 210.84"/><ellipse cx="2599.85" cy="183.99" rx="6.32" ry="6.12"/><ellipse cx="2580.12" cy="183.99" rx="6.32" ry="6.12"/><polygon class="cls-6" points="2630.52 159.74 2605.25 165.38 2628.51 134.71 2630.52 159.74"/><path class="cls-2" d="M2529.78,174.5l59.58-.06a6.57,6.57,0,0,0,5.66-9.89l-29.83-50.93a6.57,6.57,0,0,0-11.35,0l-29.74,51A6.57,6.57,0,0,0,2529.78,174.5Z"/><polygon class="cls-6" points="2550.16 158.94 2574.93 164.58 2552.13 133.91 2550.16 158.94"/><path class="cls-1" d="M2184.13,105.08l-5.64-5.25s-16.23,10-24.39-7.53c0,0-17.4,12.62-15.15,25.87s7.5,16,7.5,16,8.66-8.51,12.68-2.73,2.31,15,2.31,15l6.66,3.57S2171.79,119.46,2184.13,105.08Z"/><path class="cls-1" d="M2315,153.22s71.07-26.08,22.21-60.59c0,0-8.28,17.25-27.52,7.54l-9.32,7.7S2313.72,127.91,2315,153.22Z"/><ellipse class="cls-2" cx="2167.93" cy="121.12" rx="13.72" ry="19.57" transform="translate(483.43 1491.17) rotate(-42.32)"/><ellipse class="cls-2" cx="2318.72" cy="125.87" rx="20.89" ry="14.5" transform="translate(406.5 1443.34) rotate(-37.67)"/><path class="cls-1" d="M2240.74,195.49s36.51-5.83,38,30.52c.13,3.11,0,30.76,0,32.23-.54,28.11-2.55,65.1-8.76,73-13.14,16.81-23,22-29.21,20.92s-30.67-18.52-31.76-56.58-8.4-67.55,0-89.84C2209,205.78,2213.72,194.81,2240.74,195.49Z"/><ellipse class="cls-3" cx="2240.99" cy="163.63" rx="76.85" ry="89.15"/><path class="cls-1" d="M2218.35,322.44s-9.53,72.76,19.09,82.74l3.28-3s-20.31-6.91-18.89-78.76"/><path class="cls-1" d="M2237.44,405.18s-9.72,9.93-2.51,9.25c0,0,5.33-4.92,4.3-7.43,0,0,3.56,5.9,4.26,3.11a6.07,6.07,0,0,0-1.26-5s7.15,1.27,6.46-1.19-8-1.73-8-1.73"/><path class="cls-1" d="M2262,326.7s57.17,46.31,43.93,72.65h-4.41s9.51-18.57-41.31-69.65"/><path class="cls-1" d="M2305.11,398.3s13.73.7,8.18,5c0,0-7.16,0-8.18-2.51,0,0,1.59,6.65-.84,5.1a6.18,6.18,0,0,1-2.6-4.49s-4.17,5.69-5.38,3.45,4.41-6.57,4.41-6.57"/><path class="cls-1" d="M2439.94,113.24s-95.26,127-176,153.3l-2.57-4.43s57-18.35,169.21-146.15"/><path class="cls-1" d="M2270.15,287.84s-96.89-54-157.29-37.19l-.51,4.58s42.6-12,150.87,34.82"/><path class="cls-1" d="M2115.18,253.89s5.25,12.31-2.07,9.79c0,0-3.15-6.22-.76-8.45,0,0-6.82,4.94-6.13,2s3.92-4.67,3.92-4.67-8.27-.56-6.26-2.82,9.36.31,9.36.31"/><path class="cls-1" d="M2430.71,115.14s-20-4.66-10.25-12.57c0,0,10.54,1.65,11.14,7.23,0,0,0-14.52,3.05-10.66s2.24,10.15,2.24,10.15,8.15-11.16,9.14-6.11-8.83,13-8.83,13"/><path class="cls-3" d="M2234,74.72s12.57-26.49,28.17-30c0,0-31.56,32.64-24.66,30s9.06-12.4,18.86-13.13c0,0-19.49,12.6-15.55,13.13S2234,74.72,2234,74.72Z"/><path class="cls-2" d="M2302.42,176.93l-61-.05a6.57,6.57,0,0,1-5.64-9.94l30.56-51.12a6.56,6.56,0,0,1,11.28,0L2308.07,167A6.57,6.57,0,0,1,2302.42,176.93Z"/><ellipse class="cls-2" cx="2240.67" cy="196.78" rx="31.26" ry="30.25"/><line class="cls-4" x1="2307.39" y1="159.11" x2="2263.94" y2="189.2"/><line class="cls-4" x1="2310.81" y1="181.18" x2="2289.09" y2="157.18"/><line class="cls-4" x1="2298.24" y1="189.05" x2="2276.52" y2="165.05"/><line class="cls-4" x1="2287.38" y1="197.26" x2="2265.66" y2="173.26"/><ellipse cx="2250.84" cy="185.62" rx="6.32" ry="6.12"/><ellipse cx="2231.1" cy="185.62" rx="6.32" ry="6.12"/><polygon class="cls-6" points="2281.01 155.14 2262.03 159.38 2279.49 136.35 2281.01 155.14"/><path class="cls-2" d="M2180.76,176.13l59.58,0a6.57,6.57,0,0,0,5.67-9.89l-29.84-50.94a6.57,6.57,0,0,0-11.34,0l-29.75,51A6.57,6.57,0,0,0,2180.76,176.13Z"/><polygon class="cls-6" points="2201.74 153.04 2219.05 156.98 2203.12 135.54 2201.74 153.04"/><ellipse cx="2241.78" cy="206.81" rx="6.32" ry="6.27"/><path class="cls-1" d="M1862.31,262.52l-.33-6.83s-98.57-52.37-92.71,21.47l5.53-1s-10.74-32.85,22.77-28.62S1862.31,262.52,1862.31,262.52Z"/><path class="cls-1" d="M1084.63,278.31s13.37-3.15,9.69,3.47c0,0-6.83,2.07-8.74-.55,0,0,4,7.27,1.1,6.17s-4.17-4.47-4.17-4.47-1.83,7.82-3.84,5.56,1.75-8.91,1.75-8.91"/><path class="cls-1" d="M1173.38,265.85l-.33-6.83s-98.57-52.37-92.71,21.47l5.53-1s-10.74-32.86,22.77-28.63S1173.38,265.85,1173.38,265.85Z"/></g></svg>