<svg id="Layer_1" data-name="Layer 1" xmlns="http://www.w3.org/2000/svg" width="442.57" height="517.96" viewBox="0 0 442.57 517.96"><defs><style>.cls-1{fill:#754d20;}.cls-2{fill:#f3e090;}.cls-3{fill:#754c1f;}.cls-4,.cls-5{fill:none;stroke-miterlimit:10;}.cls-4{stroke:#040504;}.cls-5{stroke:#050403;}.cls-6{fill:#b2182b;}</style></defs><title>abe</title><path class="cls-1" d="M863.57,399.22l-7.7-7.41s-22.19,14.05-33.34-10.64c0,0-23.78,17.83-20.7,36.53s10.25,22.57,10.25,22.57,11.84-12,17.32-3.86,3.16,21.1,3.16,21.1l9.1,5S846.71,419.53,863.57,399.22Z" transform="translate(-778.98 -314)"/><path class="cls-1" d="M1042.46,467.19s97.11-36.83,30.35-85.54c0,0-11.32,24.35-37.61,10.63l-12.74,10.88S1040.65,431.45,1042.46,467.19Z" transform="translate(-778.98 -314)"/><ellipse class="cls-2" cx="841.44" cy="421.86" rx="19.01" ry="27.25" transform="translate(-854.7 319.55) rotate(-39.62)"/><ellipse class="cls-2" cx="1047.48" cy="428.58" rx="28.92" ry="20.21" transform="translate(-807.54 465.35) rotate(-40.31)"/><path class="cls-1" d="M940.93,526.87s49.89-8.23,51.88,43.08c.17,4.39,0,43.42,0,45.5-.74,39.68-3.48,91.91-12,103.12-18,23.72-31.43,31-39.91,29.53S899,722,897.52,668.22s-11.47-95.36,0-126.83C897.52,541.39,904,525.9,940.93,526.87Z" transform="translate(-778.98 -314)"/><ellipse class="cls-3" cx="162.28" cy="167.88" rx="105.02" ry="125.85"/><path class="cls-1" d="M910.56,718.33s-80.29,65.38-61.7,102.57h6.2s-13.36-26.22,58-98.33" transform="translate(-778.98 -314)"/><path class="cls-1" d="M927.49,611.45S800.78,696.8,785.77,781.35l5.5,3.47s10.36-59.75,134.86-163.51" transform="translate(-778.98 -314)"/><path class="cls-1" d="M848.86,820.9s-19.28,1-11.48,7.08c0,0,10.06,0,11.48-3.54,0,0-2.22,9.39,1.19,7.19a8.71,8.71,0,0,0,3.65-6.33s5.85,8,7.56,4.87-6.2-9.27-6.2-9.27" transform="translate(-778.98 -314)"/><path class="cls-1" d="M970,712.09s78.12,65.38,60,102.57h-6s13-26.21-56.44-98.33" transform="translate(-778.98 -314)"/><path class="cls-1" d="M1028.89,813.18s18.77,1,11.18,7.08c0,0-9.79,0-11.18-3.54,0,0,2.17,9.39-1.15,7.2a8.83,8.83,0,0,1-3.56-6.34s-5.69,8-7.35,4.88,6-9.28,6-9.28" transform="translate(-778.98 -314)"/><path class="cls-1" d="M1213.14,410.74S1083,590,972.61,627.17l-3.5-6.26S1047,595,1200.33,414.58" transform="translate(-778.98 -314)"/><path class="cls-1" d="M791.27,780.51s18.77,1.2,11.18,8.62c0,0-9.79,0-11.18-4.31,0,0,2.17,11.44-1.15,8.77s-3.56-7.72-3.56-7.72-5.69,9.79-7.35,5.93,6-11.29,6-11.29" transform="translate(-778.98 -314)"/><path class="cls-1" d="M1200.52,413.42s-27.27-6.57-14-17.73c0,0,14.4,2.32,15.23,10.19,0,0,0-20.5,4.17-15s3,14.33,3,14.33,11.14-15.76,12.49-8.62-12.06,18.3-12.06,18.3" transform="translate(-778.98 -314)"/><path class="cls-3" d="M970.17,314s-43.12,46.07-33.7,42.37,12.39-17.52,25.77-18.55c0,0-26.63,17.79-21.24,18.55s-9.33,0-9.33,0S948.86,319,970.17,314" transform="translate(-778.98 -314)"/><path class="cls-2" d="M1029.63,500.67l-92.24-.08a6.57,6.57,0,0,1-5.68-9.86l46.19-79.85a6.57,6.57,0,0,1,11.38,0l46,79.93A6.57,6.57,0,0,1,1029.63,500.67Z" transform="translate(-778.98 -314)"/><circle class="cls-2" cx="161.84" cy="214.68" r="42.71"/><line class="cls-4" x1="253.02" y1="161.5" x2="193.65" y2="203.98"/><line class="cls-4" x1="257.7" y1="192.66" x2="228.02" y2="158.77"/><line class="cls-4" x1="240.52" y1="203.77" x2="210.83" y2="169.88"/><line class="cls-4" x1="225.68" y1="215.36" x2="195.99" y2="181.47"/><polyline class="cls-5" points="184.64 228.38 171.25 222.44 136.3 236.84"/><circle cx="175.74" cy="198.93" r="8.64"/><circle cx="148.78" cy="198.93" r="8.64"/><polygon class="cls-6" points="217.65 164.7 183.12 172.66 214.9 129.36 217.65 164.7"/><path class="cls-2" d="M854.58,499.53l90.19-.08a6.57,6.57,0,0,0,5.71-9.81L905.32,410a6.57,6.57,0,0,0-11.44,0l-45,79.72A6.56,6.56,0,0,0,854.58,499.53Z" transform="translate(-778.98 -314)"/><polygon class="cls-6" points="107.84 163.56 141.68 171.53 110.53 128.23 107.84 163.56"/></svg>
