<svg id="Layer_1" data-name="Layer 1" xmlns="http://www.w3.org/2000/svg" width="343.45" height="630.75" viewBox="0 0 343.45 630.75"><defs><style>.cls-1{fill:#864d14;}.cls-2{fill:#356fb5;}.cls-10,.cls-3,.cls-8{fill:none;}.cls-3{stroke:#c89b0c;stroke-width:5px;}.cls-10,.cls-3,.cls-7{stroke-miterlimit:10;}.cls-4{fill:#c89b0c;}.cls-5{fill:#366fb5;}.cls-6{fill:#040505;}.cls-7{fill:#010202;stroke:#1d1d1b;}.cls-9{fill:#864d13;}.cls-10{stroke:#050403;}.cls-11{fill:#050403;}</style></defs><title>mand</title><path class="cls-1" d="M758.09,145.36s34.3-9.5,47.45,9.61,13.26,24.61,24.31,18.08,14.95-19.73,30.9-14.44S878.11,187,878.11,187s5.78,25.52-6.23,30.76l-79.1-16-44.29-9S730.78,164.29,758.09,145.36Z" transform="translate(-623.69 -143)"/><path class="cls-2" d="M805.15,213.24s97.56-16.58,101.46,86.83c.33,8.83.06,87.5,0,91.69-1.44,80-6.8,185.23-23.39,207.81-35.13,47.81-61.47,62.44-78.05,59.51s-81.95-52.68-84.88-161-22.43-192.19,0-255.6C720.27,242.51,733,211.29,805.15,213.24Z" transform="translate(-623.69 -143)"/><rect x="790.96" y="121.42" width="35.65" height="181.91" rx="3.4" ry="3.4" transform="translate(561.84 -677.15) rotate(102.07)"/><ellipse class="cls-3" cx="78.04" cy="318.16" rx="70.8" ry="104.01"/><rect class="cls-4" x="5.31" y="309.75" width="4.15" height="200.83"/><rect class="cls-1" y="445.2" width="15.1" height="65.38"/><path class="cls-5" d="M902.27,355.87S994.2,509.2,959.19,569.46c0,0-20.65,6.41-26.5-31.05,0,0-2.43,29.13-7.38,31.52s-28.39-119.62-24.89-155.87S902.27,355.87,902.27,355.87Z" transform="translate(-623.69 -143)"/><path class="cls-5" d="M717.18,365.94s-91.79,153.49-56.63,213.68c0,0,20.68,6.38,26.47-31.09,0,0,2.48,29.13,7.45,31.51s28.22-119.67,24.66-155.92S717.18,365.94,717.18,365.94Z" transform="translate(-623.69 -143)"/><polygon class="cls-5" points="225.31 472.55 228.17 542.21 210.38 542.21 210.38 485.33 225.31 472.55"/><path class="cls-6" d="M829.06,682.72h40v49.52s10,20,23.35-12.24,27.8-7.23,27.8,1.67,2.78,38.39,0,42.84-60,16.69-71.72,2.78S829.06,742.81,829.06,682.72Z" transform="translate(-623.69 -143)"/><polygon class="cls-5" points="142.43 472.46 139.68 542.12 156.75 542.12 156.75 485.24 142.43 472.46"/><path class="cls-6" d="M785.25,680.28H746.83V729.8s-9.6,20-22.41-12.25-26.67-7.23-26.67,1.67-2.67,38.4,0,42.85,57.62,16.69,68.82,2.78S785.25,740.37,785.25,680.28Z" transform="translate(-623.69 -143)"/><ellipse class="cls-7" cx="162.77" cy="138.89" rx="10.82" ry="15.06"/><path class="cls-8" d="M725.78,531.18,713.22,354.67Z" transform="translate(-623.69 -143)"/><line class="cls-8" x1="155.03" y1="321.38" x2="155.03" y2="321.4"/><line class="cls-8" x1="133.11" y1="196.12" x2="137.76" y2="196.12"/><path class="cls-9" d="M724.46,200.14s111.6,53.71,186.19,27.06c0,0,52.8-13-8.76,44.08,0,0-162.44-28.89-183.13-31.9S655.75,148.35,724.46,200.14Z" transform="translate(-623.69 -143)"/><rect class="cls-4" x="146.61" y="313.25" width="4.7" height="162.17" rx="1.8" ry="1.8"/><path class="cls-10" d="M861.46,332.9s-3.47-17.47-21.88-13.47" transform="translate(-623.69 -143)"/><path class="cls-10" d="M852.68,321.44s-4.06,31.44-23.2,31.94c0,0-19.49,2.64-22.78-15.35" transform="translate(-623.69 -143)"/><rect class="cls-11" y="455.15" width="15.1" height="9.1"/><ellipse class="cls-7" cx="212.57" cy="138.89" rx="10.82" ry="15.06"/></svg>
