<svg xmlns="http://www.w3.org/2000/svg" width="2796.78" height="490.85" viewBox="0 0 2796.78 490.85"><defs><style>.cls-1{fill:#8d5b18;}.cls-2{fill:#edb32f;}.cls-3{fill:gold;}.cls-4{font-size:38.53px;}.cls-19,.cls-21,.cls-22,.cls-4{fill:#1d1d1b;font-family:Oswald-Regular, Oswald;}.cls-5{font-size:46.24px;font-family:MyriadPro-Regular, Myriad Pro;}.cls-6{fill:#ae63a3;}.cls-7{fill:#f9f7f9;}.cls-8{fill:#df1f84;}.cls-10,.cls-14,.cls-15,.cls-17,.cls-9{fill:none;}.cls-9{stroke:#99155f;}.cls-10,.cls-14,.cls-15,.cls-17,.cls-18,.cls-9{stroke-miterlimit:10;}.cls-10{stroke:#9a155f;}.cls-11{fill:#fffdfd;}.cls-12{fill:#f9f7f8;}.cls-13{fill:#7cb829;}.cls-14{stroke:#20a537;}.cls-15{stroke:#25a537;}.cls-16{fill:#6bc4d1;}.cls-17{stroke:#abd9dc;}.cls-18{fill:#f2a73c;stroke:#f9c853;stroke-width:5px;}.cls-19{font-size:20.94px;}.cls-20{fill:#fff;}.cls-21{font-size:13.74px;}.cls-22{font-size:10.11px;}</style></defs><title>skat</title><g id="_3_pasing" data-name="3 pasing"><rect class="cls-1" x="1114.08" y="94.78" width="218.54" height="128.74" rx="6.56" ry="6.56"/><rect class="cls-2" x="1128.74" y="107.47" width="189.23" height="111.47" rx="12.54" ry="12.54"/><rect class="cls-1" x="1080.97" y="215.06" width="286.34" height="135.27" rx="5.82" ry="5.82"/><rect class="cls-2" x="1112.16" y="241.82" width="223.96" height="90.48"/><rect class="cls-3" x="1080.97" y="222.73" width="286.34" height="15.3"/><circle class="cls-2" cx="1096.09" cy="230.38" r="4.74"/><circle class="cls-2" cx="1180.86" cy="199.56" r="4.74"/><circle class="cls-2" cx="1180.86" cy="199.56" r="4.74"/><circle class="cls-2" cx="1133.48" cy="230.38" r="4.74"/><circle class="cls-2" cx="1176.12" cy="230.38" r="4.74"/><circle class="cls-2" cx="1278.4" cy="230.38" r="4.74"/><circle class="cls-2" cx="1316.23" cy="230.38" r="4.74"/><circle class="cls-2" cx="1350.74" cy="230.38" r="4.74"/><text class="cls-4" transform="translate(1155.1 318.59)">TREASURE<tspan class="cls-5" x="145.38" y="0"> </tspan></text><circle class="cls-6" cx="1153.05" cy="219.05" r="5.86"/><circle class="cls-7" cx="1150.44" cy="216.18" r="0.92"/><circle class="cls-6" cx="1153.05" cy="240.41" r="5.86"/><circle class="cls-7" cx="1150.44" cy="239.63" r="0.92"/><circle class="cls-6" cx="1153.05" cy="230.04" r="5.86"/><circle class="cls-7" cx="1150.44" cy="227.17" r="0.92"/><circle class="cls-7" cx="1149.93" cy="246.36" r="0.92"/><circle class="cls-6" cx="1153.05" cy="249.23" r="5.86"/><circle class="cls-7" cx="1149.93" cy="246.36" r="0.92"/><circle class="cls-6" cx="1153.05" cy="270.59" r="5.86"/><circle class="cls-7" cx="1149.93" cy="269.81" r="0.92"/><circle class="cls-6" cx="1153.05" cy="260.22" r="5.86"/><circle class="cls-7" cx="1149.93" cy="257.35" r="0.92"/><circle class="cls-7" cx="1149.42" cy="276.54" r="0.92"/><circle class="cls-6" cx="1144.99" cy="278.44" r="5.86"/><circle class="cls-6" cx="1134.01" cy="279.58" r="5.86"/><circle class="cls-6" cx="1124.57" cy="275.12" r="5.86"/><circle class="cls-6" cx="1122.29" cy="265.68" r="5.86"/><circle class="cls-6" cx="1122.29" cy="214.86" r="5.86"/><circle class="cls-7" cx="1119.68" cy="211.99" r="0.92"/><circle class="cls-6" cx="1122.29" cy="236.22" r="5.86"/><circle class="cls-7" cx="1119.68" cy="235.44" r="0.92"/><circle class="cls-6" cx="1122.29" cy="225.85" r="5.86"/><circle class="cls-7" cx="1119.68" cy="222.98" r="0.92"/><circle class="cls-7" cx="1119.17" cy="242.17" r="0.92"/><circle class="cls-6" cx="1122.29" cy="245.04" r="5.86"/><circle class="cls-7" cx="1119.17" cy="242.17" r="0.92"/><circle class="cls-6" cx="1122.29" cy="256.03" r="5.86"/><circle class="cls-7" cx="1142.63" cy="275.62" r="0.92"/><circle class="cls-7" cx="1132.46" cy="276.45" r="0.92"/><circle class="cls-7" cx="1124.82" cy="272.24" r="0.92"/><circle class="cls-7" cx="1124.57" cy="262.81" r="0.92"/><circle class="cls-7" cx="1119.68" cy="254.35" r="0.92"/><polygon class="cls-8" points="1267.77 141 1242.46 128.77 1203.37 145.47 1194.61 172.26 1249.46 197.88 1267.77 141"/><line class="cls-9" x1="1194.61" y1="172.27" x2="1267.77" y2="141"/><line class="cls-9" x1="1242.46" y1="128.77" x2="1250.77" y2="148.27"/><line class="cls-9" x1="1228.22" y1="134.85" x2="1250.77" y2="148.27"/><line class="cls-10" x1="1203.37" y1="145.47" x2="1211.35" y2="165.11"/><line class="cls-10" x1="1249.46" y1="197.88" x2="1211.35" y2="165.11"/><line class="cls-10" x1="1249.16" y1="196.76" x2="1250.77" y2="148.27"/><line class="cls-10" x1="1211.35" y1="165.11" x2="1217.14" y2="139.59"/><polygon class="cls-11" points="1217.56 165.62 1213.81 166.86 1212.69 170.65 1210.37 167.47 1206.42 167.59 1208.74 164.39 1207.42 160.68 1211.17 161.88 1214.3 159.46 1214.3 163.41 1217.56 165.62"/><polygon class="cls-12" points="1217.89 153.84 1215.53 154.62 1214.83 157 1213.37 154.99 1210.88 155.07 1212.34 153.05 1211.5 150.71 1213.87 151.47 1215.83 149.95 1215.84 152.44 1217.89 153.84"/><polygon class="cls-13" points="1307.95 131.37 1298.27 116.51 1271.72 112.78 1258.24 124.39 1279.51 156.12 1307.95 131.37"/><line class="cls-14" x1="1258.24" y1="124.39" x2="1307.95" y2="131.37"/><line class="cls-15" x1="1298.27" y1="116.51" x2="1296.4" y2="129.75"/><line class="cls-15" x1="1288.6" y1="115.15" x2="1296.4" y2="129.75"/><line class="cls-15" x1="1271.72" y1="112.78" x2="1269.62" y2="125.99"/><line class="cls-15" x1="1279.51" y1="156.12" x2="1269.62" y2="125.99"/><line class="cls-15" x1="1279.71" y1="155.42" x2="1296.4" y2="129.75"/><line class="cls-15" x1="1269.62" y1="125.99" x2="1281.07" y2="114.1"/><polygon class="cls-11" points="1272.8 128.29 1270.37 127.74 1268.53 129.42 1268.32 126.94 1266.15 125.72 1268.44 124.75 1268.94 122.31 1270.58 124.19 1273.05 123.9 1271.77 126.03 1272.8 128.29"/><polygon class="cls-12" points="1276.83 122.04 1275.3 121.69 1274.14 122.75 1274.01 121.19 1272.64 120.41 1274.08 119.8 1274.4 118.26 1275.42 119.45 1276.98 119.27 1276.18 120.61 1276.83 122.04"/><polygon class="cls-16" points="1195.07 148 1171.89 132.1 1130.73 142.71 1118.03 167.88 1168.39 201.47 1195.07 148"/><line class="cls-17" x1="1118.03" y1="167.88" x2="1195.07" y2="148"/><line class="cls-17" x1="1171.89" y1="132.1" x2="1177.16" y2="152.62"/><line class="cls-17" x1="1156.9" y1="135.96" x2="1177.16" y2="152.62"/><line class="cls-17" x1="1130.73" y1="142.71" x2="1135.66" y2="163.33"/><line class="cls-17" x1="1168.39" y1="201.48" x2="1135.66" y2="163.33"/><line class="cls-17" x1="1168.26" y1="200.32" x2="1177.16" y2="152.62"/><line class="cls-17" x1="1135.66" y1="163.33" x2="1145.23" y2="138.97"/><polygon class="cls-11" points="1141.71 164.78 1137.82 165.44 1136.14 169.01 1134.33 165.52 1130.41 165.04 1133.18 162.23 1132.44 158.36 1135.97 160.11 1139.42 158.19 1138.84 162.09 1141.71 164.78"/><polygon class="cls-12" points="1143.82 153.18 1141.37 153.59 1140.32 155.84 1139.17 153.63 1136.71 153.33 1138.45 151.56 1137.98 149.12 1140.2 150.23 1142.37 149.03 1142.01 151.48 1143.82 153.18"/><circle class="cls-18" cx="1279.08" cy="164.5" r="23.55"/><text class="cls-19" transform="translate(1274.99 174.28) rotate(-8.59)">$</text><circle class="cls-18" cx="1302.25" cy="202.71" r="23.55"/><text class="cls-19" transform="translate(1298.16 212.49) rotate(-8.59)">$</text><circle class="cls-18" cx="1254.55" cy="196.66" r="23.55"/><text class="cls-19" transform="translate(1250.47 206.44) rotate(-8.59)">$</text><polygon class="cls-20" points="1317.86 158.2 1307.42 154.22 1298.23 160.56 1298.79 149.41 1289.92 142.63 1300.7 139.71 1304.41 129.18 1310.51 138.53 1321.67 138.8 1314.66 147.5 1317.86 158.2"/><polygon class="cls-20" points="1322.08 179.56 1317.02 177.63 1312.57 180.7 1312.84 175.3 1308.54 172.02 1313.76 170.6 1315.56 165.5 1318.52 170.03 1323.92 170.16 1320.53 174.38 1322.08 179.56"/><circle class="cls-18" cx="1147.19" cy="195.39" r="23.55"/><text class="cls-19" transform="translate(1143.1 205.17) rotate(-8.59)">$</text><circle class="cls-18" cx="1214.96" cy="197.88" r="15.45"/><text class="cls-21" transform="matrix(0.99, -0.15, 0.15, 0.99, 1212.28, 204.3)">$</text><circle class="cls-18" cx="1183.08" cy="199.56" r="11.37"/><text class="cls-22" transform="translate(1181.11 204.28) rotate(-8.59)">$</text><polygon class="cls-20" points="1189.96 129.02 1187.22 126.89 1183.92 127.93 1185.1 124.67 1183.08 121.85 1186.55 121.96 1188.6 119.17 1189.57 122.5 1192.86 123.6 1189.99 125.55 1189.96 129.02"/><polygon class="cls-20" points="1181.96 126.5 1176.91 124.57 1172.46 127.64 1172.73 122.24 1168.43 118.96 1173.65 117.54 1175.45 112.44 1178.41 116.97 1183.81 117.1 1180.42 121.32 1181.96 126.5"/><path class="cls-3" d="M1201.63,214.68h55.31s0,60.95-27.65,52.22C1229.29,266.9,1197.85,279.12,1201.63,214.68Z"/><path d="M1233.07,240.07l5.91,14.38h-19.7l5.12-14.38s-7.71-12,5-12S1233.07,240.07,1233.07,240.07Z"/><polygon class="cls-20" points="1090.78 117.14 1079.23 110.2 1066.96 115.78 1069.99 102.65 1060.9 92.7 1074.33 91.53 1080.97 79.8 1086.24 92.21 1099.44 94.91 1089.27 103.75 1090.78 117.14"/><polygon class="cls-20" points="1098.9 202.13 1084.36 193.39 1068.92 200.42 1072.74 183.89 1061.28 171.37 1078.18 169.89 1086.55 155.13 1093.18 170.75 1109.8 174.15 1096.99 185.28 1098.9 202.13"/><polygon class="cls-20" points="1382.95 156.92 1373.45 151.21 1363.37 155.8 1365.86 145 1358.38 136.82 1369.42 135.86 1374.89 126.22 1379.21 136.42 1390.07 138.64 1381.71 145.91 1382.95 156.92"/><polygon class="cls-20" points="1379.37 208.87 1364.83 200.13 1349.38 207.15 1353.2 190.62 1341.75 178.1 1358.65 176.63 1367.02 161.87 1373.64 177.49 1390.27 180.88 1377.46 192.01 1379.37 208.87"/><polygon class="cls-20" points="1340.29 80.56 1325.75 71.82 1310.3 78.84 1314.12 62.31 1302.67 49.8 1319.57 48.32 1327.94 33.56 1334.56 49.18 1351.19 52.57 1338.38 63.7 1340.29 80.56"/><polygon class="cls-20" points="1267.2 45.1 1256.85 38.88 1245.86 43.88 1248.58 32.12 1240.43 23.22 1252.46 22.17 1258.41 11.66 1263.12 22.78 1274.95 25.19 1265.84 33.11 1267.2 45.1"/><polygon class="cls-20" points="1200.26 76.65 1185.71 67.91 1170.27 74.94 1174.09 58.41 1162.63 45.89 1179.54 44.41 1187.9 29.65 1194.53 45.27 1211.15 48.66 1198.35 59.79 1200.26 76.65"/><polygon class="cls-20" points="1117.15 46.99 1108.2 41.61 1098.68 45.94 1101.04 35.75 1093.98 28.05 1104.39 27.14 1109.55 18.05 1113.63 27.66 1123.87 29.75 1115.98 36.61 1117.15 46.99"/><polygon class="cls-20" points="745.08 205.41 730.54 196.67 715.1 203.69 718.91 187.16 707.46 174.64 724.36 173.17 732.73 158.41 739.36 174.02 755.98 177.42 743.17 188.55 745.08 205.41"/><polygon class="cls-20" points="992.17 81.14 977.62 72.4 962.18 79.43 966 62.9 954.55 50.38 971.45 48.9 979.82 34.14 986.44 49.76 1003.07 53.16 990.26 64.28 992.17 81.14"/><polygon class="cls-20" points="852.13 77.24 837.59 68.5 822.15 75.52 825.97 58.99 814.51 46.47 831.42 44.99 839.78 30.23 846.41 45.85 863.03 49.25 850.23 60.38 852.13 77.24"/><polygon class="cls-20" points="769.03 47.58 760.08 42.19 750.56 46.52 752.92 36.34 745.86 28.63 756.27 27.72 761.42 18.63 765.51 28.25 775.74 30.34 767.86 37.19 769.03 47.58"/><rect class="cls-1" x="414.3" y="94.4" width="218.54" height="128.74" rx="6.56" ry="6.56"/><rect class="cls-2" x="428.95" y="107.08" width="189.23" height="111.47" rx="12.54" ry="12.54"/><rect class="cls-1" x="381.19" y="214.68" width="286.34" height="135.27" rx="5.82" ry="5.82"/><rect class="cls-2" x="412.38" y="241.44" width="223.96" height="90.48"/><rect class="cls-3" x="381.19" y="222.35" width="286.34" height="15.3"/><circle class="cls-2" cx="396.31" cy="230" r="4.74"/><circle class="cls-2" cx="481.08" cy="199.17" r="4.74"/><circle class="cls-2" cx="481.08" cy="199.17" r="4.74"/><circle class="cls-2" cx="433.69" cy="230" r="4.74"/><circle class="cls-2" cx="476.34" cy="230" r="4.74"/><circle class="cls-2" cx="578.62" cy="230" r="4.74"/><circle class="cls-2" cx="616.45" cy="230" r="4.74"/><circle class="cls-2" cx="650.95" cy="230" r="4.74"/><text class="cls-4" transform="translate(455.31 318.21)">TREASURE<tspan class="cls-5" x="145.38" y="0"> </tspan></text><circle class="cls-6" cx="453.26" cy="218.66" r="5.86"/><circle class="cls-7" cx="450.66" cy="215.79" r="0.92"/><circle class="cls-6" cx="453.26" cy="240.03" r="5.86"/><circle class="cls-7" cx="450.66" cy="239.25" r="0.92"/><circle class="cls-6" cx="453.26" cy="229.65" r="5.86"/><circle class="cls-7" cx="450.66" cy="226.78" r="0.92"/><circle class="cls-7" cx="450.15" cy="245.98" r="0.92"/><circle class="cls-6" cx="453.26" cy="248.85" r="5.86"/><circle class="cls-7" cx="450.15" cy="245.98" r="0.92"/><circle class="cls-6" cx="453.26" cy="270.21" r="5.86"/><circle class="cls-7" cx="450.15" cy="269.43" r="0.92"/><circle class="cls-6" cx="453.26" cy="259.83" r="5.86"/><circle class="cls-7" cx="450.15" cy="256.96" r="0.92"/><circle class="cls-7" cx="449.63" cy="276.16" r="0.92"/><circle class="cls-6" cx="445.2" cy="278.06" r="5.86"/><circle class="cls-6" cx="434.23" cy="279.2" r="5.86"/><circle class="cls-6" cx="424.78" cy="274.73" r="5.86"/><circle class="cls-6" cx="422.5" cy="265.29" r="5.86"/><circle class="cls-6" cx="422.5" cy="214.48" r="5.86"/><circle class="cls-7" cx="419.89" cy="211.61" r="0.92"/><circle class="cls-6" cx="422.5" cy="235.84" r="5.86"/><circle class="cls-7" cx="419.89" cy="235.06" r="0.92"/><circle class="cls-6" cx="422.5" cy="225.46" r="5.86"/><circle class="cls-7" cx="419.89" cy="222.59" r="0.92"/><circle class="cls-7" cx="419.38" cy="241.79" r="0.92"/><circle class="cls-6" cx="422.5" cy="244.66" r="5.86"/><circle class="cls-7" cx="419.38" cy="241.79" r="0.92"/><circle class="cls-6" cx="422.5" cy="255.65" r="5.86"/><circle class="cls-7" cx="442.85" cy="275.24" r="0.92"/><circle class="cls-7" cx="432.67" cy="276.07" r="0.92"/><circle class="cls-7" cx="425.03" cy="271.85" r="0.92"/><circle class="cls-7" cx="424.78" cy="262.43" r="0.92"/><circle class="cls-7" cx="419.89" cy="253.97" r="0.92"/><polygon class="cls-8" points="567.99 140.62 542.67 128.38 503.59 145.09 494.82 171.88 549.67 197.5 567.99 140.62"/><line class="cls-9" x1="494.82" y1="171.88" x2="567.99" y2="140.62"/><line class="cls-9" x1="542.67" y1="128.38" x2="550.98" y2="147.88"/><line class="cls-9" x1="528.44" y1="134.47" x2="550.98" y2="147.88"/><line class="cls-10" x1="503.59" y1="145.09" x2="511.56" y2="164.73"/><line class="cls-10" x1="549.67" y1="197.5" x2="511.56" y2="164.73"/><line class="cls-10" x1="549.38" y1="196.38" x2="550.98" y2="147.88"/><line class="cls-10" x1="511.56" y1="164.73" x2="517.35" y2="139.2"/><polygon class="cls-11" points="517.77 165.24 514.02 166.48 512.9 170.27 510.58 167.09 506.63 167.21 508.95 164.01 507.63 160.29 511.38 161.49 514.51 159.08 514.52 163.02 517.77 165.24"/><polygon class="cls-12" points="518.1 153.46 515.74 154.23 515.04 156.62 513.58 154.61 511.1 154.68 512.55 152.67 511.71 150.33 514.08 151.09 516.04 149.57 516.05 152.06 518.1 153.46"/><polygon class="cls-13" points="608.16 130.99 598.49 116.13 571.93 112.4 558.46 124.01 579.72 155.73 608.16 130.99"/><line class="cls-14" x1="558.46" y1="124.01" x2="608.16" y2="130.99"/><line class="cls-15" x1="598.48" y1="116.13" x2="596.61" y2="129.37"/><line class="cls-15" x1="588.81" y1="114.77" x2="596.61" y2="129.37"/><line class="cls-15" x1="571.93" y1="112.4" x2="569.83" y2="125.61"/><line class="cls-15" x1="579.72" y1="155.73" x2="569.83" y2="125.61"/><line class="cls-15" x1="579.93" y1="155.03" x2="596.61" y2="129.37"/><line class="cls-15" x1="569.83" y1="125.61" x2="581.28" y2="113.71"/><polygon class="cls-11" points="573.02 127.91 570.59 127.36 568.75 129.04 568.53 126.56 566.36 125.34 568.66 124.37 569.15 121.93 570.79 123.8 573.27 123.52 571.98 125.65 573.02 127.91"/><polygon class="cls-12" points="577.04 121.66 575.51 121.3 574.36 122.36 574.22 120.8 572.86 120.03 574.3 119.42 574.61 117.88 575.64 119.06 577.2 118.89 576.39 120.23 577.04 121.66"/><polygon class="cls-16" points="495.29 147.62 472.11 131.71 430.95 142.33 418.24 167.5 468.61 201.09 495.29 147.62"/><line class="cls-17" x1="418.24" y1="167.5" x2="495.29" y2="147.62"/><line class="cls-17" x1="472.11" y1="131.71" x2="477.38" y2="152.24"/><line class="cls-17" x1="457.11" y1="135.58" x2="477.38" y2="152.24"/><line class="cls-17" x1="430.95" y1="142.33" x2="435.87" y2="162.95"/><line class="cls-17" x1="468.61" y1="201.09" x2="435.87" y2="162.95"/><line class="cls-17" x1="468.48" y1="199.94" x2="477.38" y2="152.24"/><line class="cls-17" x1="435.87" y1="162.95" x2="445.44" y2="138.59"/><polygon class="cls-11" points="441.93 164.39 438.03 165.05 436.36 168.63 434.54 165.13 430.62 164.66 433.4 161.84 432.65 157.97 436.18 159.72 439.64 157.81 439.05 161.71 441.93 164.39"/><polygon class="cls-12" points="444.04 152.79 441.59 153.2 440.54 155.46 439.39 153.25 436.92 152.95 438.66 151.18 438.19 148.74 440.41 149.84 442.59 148.64 442.22 151.1 444.04 152.79"/><circle class="cls-18" cx="579.29" cy="164.11" r="23.55"/><text class="cls-19" transform="translate(575.2 173.9) rotate(-8.59)">$</text><circle class="cls-18" cx="602.46" cy="202.33" r="23.55"/><text class="cls-19" transform="translate(598.38 212.11) rotate(-8.59)">$</text><circle class="cls-18" cx="554.77" cy="196.27" r="23.55"/><text class="cls-19" transform="translate(550.68 206.06) rotate(-8.59)">$</text><polygon class="cls-20" points="618.07 157.81 607.63 153.84 598.44 160.18 599 149.02 590.13 142.24 600.91 139.33 604.62 128.79 610.72 138.15 621.88 138.42 614.88 147.11 618.07 157.81"/><polygon class="cls-20" points="622.29 179.18 617.23 177.25 612.78 180.32 613.05 174.92 608.75 171.63 613.98 170.22 615.77 165.12 618.73 169.65 624.14 169.78 620.74 173.99 622.29 179.18"/><circle class="cls-18" cx="447.4" cy="195" r="23.55"/><text class="cls-19" transform="translate(443.31 204.79) rotate(-8.59)">$</text><circle class="cls-18" cx="515.17" cy="197.5" r="15.45"/><text class="cls-21" transform="matrix(0.99, -0.15, 0.15, 0.99, 512.49, 203.91)">$</text><circle class="cls-18" cx="483.29" cy="199.17" r="11.37"/><text class="cls-22" transform="translate(481.32 203.9) rotate(-8.59)">$</text><polygon class="cls-20" points="490.18 128.63 487.44 126.5 484.13 127.55 485.31 124.29 483.29 121.47 486.76 121.58 488.82 118.79 489.78 122.12 493.07 123.22 490.2 125.16 490.18 128.63"/><polygon class="cls-20" points="482.18 126.12 477.12 124.19 472.67 127.26 472.94 121.86 468.64 118.57 473.87 117.16 475.66 112.06 478.62 116.59 484.03 116.72 480.63 120.93 482.18 126.12"/><path class="cls-3" d="M501.85,214.29h55.31s0,61-27.66,52.22C529.5,266.51,498.06,278.74,501.85,214.29Z"/><path d="M533.28,239.68l5.92,14.39H519.49l5.12-14.39s-7.71-12,5-12S533.28,239.68,533.28,239.68Z"/><polygon class="cls-20" points="396.47 173.03 381.93 164.29 366.48 171.32 370.3 154.79 358.85 142.27 375.75 140.79 384.12 126.03 390.74 141.65 407.37 145.05 394.56 156.18 396.47 173.03"/><polygon class="cls-20" points="686.91 137.9 672.37 129.16 656.92 136.18 660.74 119.65 649.29 107.14 666.19 105.66 674.56 90.9 681.18 106.52 697.81 109.91 685 121.04 686.91 137.9"/><polygon class="cls-20" points="417.68 51.24 408.72 45.86 399.21 50.18 401.56 40 394.51 32.29 404.92 31.38 410.07 22.29 414.15 31.91 424.39 34 416.5 40.86 417.68 51.24"/><rect class="cls-1" x="65.9" y="94.2" width="218.54" height="128.74" rx="6.56" ry="6.56"/><rect class="cls-2" x="80.56" y="106.88" width="189.23" height="111.47" rx="12.54" ry="12.54"/><rect class="cls-1" x="32.79" y="214.47" width="286.34" height="135.27" rx="5.82" ry="5.82"/><rect class="cls-2" x="63.98" y="241.24" width="223.96" height="90.48"/><rect class="cls-3" x="32.79" y="222.15" width="286.34" height="15.3"/><circle class="cls-2" cx="47.91" cy="229.8" r="4.74"/><circle class="cls-2" cx="132.68" cy="198.97" r="4.74"/><circle class="cls-2" cx="132.68" cy="198.97" r="4.74"/><circle class="cls-2" cx="85.3" cy="229.8" r="4.74"/><circle class="cls-2" cx="127.94" cy="229.8" r="4.74"/><circle class="cls-2" cx="230.22" cy="229.8" r="4.74"/><circle class="cls-2" cx="268.05" cy="229.8" r="4.74"/><circle class="cls-2" cx="302.55" cy="229.8" r="4.74"/><text class="cls-4" transform="translate(106.91 318.01)">TREASURE<tspan class="cls-5" x="145.38" y="0"> </tspan></text><circle class="cls-6" cx="104.87" cy="218.46" r="5.86"/><circle class="cls-7" cx="102.26" cy="215.59" r="0.92"/><circle class="cls-6" cx="104.87" cy="239.82" r="5.86"/><circle class="cls-7" cx="102.26" cy="239.05" r="0.92"/><circle class="cls-6" cx="104.87" cy="229.45" r="5.86"/><circle class="cls-7" cx="102.26" cy="226.58" r="0.92"/><circle class="cls-7" cx="101.75" cy="245.77" r="0.92"/><circle class="cls-6" cx="104.87" cy="248.64" r="5.86"/><circle class="cls-7" cx="101.75" cy="245.77" r="0.92"/><circle class="cls-6" cx="104.87" cy="270.01" r="5.86"/><circle class="cls-7" cx="101.75" cy="269.23" r="0.92"/><circle class="cls-6" cx="104.87" cy="259.63" r="5.86"/><circle class="cls-7" cx="101.75" cy="256.76" r="0.92"/><circle class="cls-7" cx="101.24" cy="275.96" r="0.92"/><circle class="cls-6" cx="96.8" cy="277.85" r="5.86"/><circle class="cls-6" cx="85.83" cy="279" r="5.86"/><circle class="cls-6" cx="76.39" cy="274.53" r="5.86"/><circle class="cls-6" cx="74.1" cy="265.09" r="5.86"/><circle class="cls-6" cx="74.1" cy="214.27" r="5.86"/><circle class="cls-7" cx="71.5" cy="211.4" r="0.92"/><circle class="cls-6" cx="74.1" cy="235.64" r="5.86"/><circle class="cls-7" cx="71.5" cy="234.86" r="0.92"/><circle class="cls-6" cx="74.1" cy="225.26" r="5.86"/><circle class="cls-7" cx="71.5" cy="222.39" r="0.92"/><circle class="cls-7" cx="70.98" cy="241.59" r="0.92"/><circle class="cls-6" cx="74.1" cy="244.46" r="5.86"/><circle class="cls-7" cx="70.98" cy="241.59" r="0.92"/><circle class="cls-6" cx="74.1" cy="255.44" r="5.86"/><circle class="cls-7" cx="94.45" cy="275.04" r="0.92"/><circle class="cls-7" cx="84.27" cy="275.87" r="0.92"/><circle class="cls-7" cx="76.64" cy="271.65" r="0.92"/><circle class="cls-7" cx="76.39" cy="262.23" r="0.92"/><circle class="cls-7" cx="71.5" cy="253.77" r="0.92"/><polygon class="cls-8" points="219.59 140.41 194.28 128.18 155.19 144.89 146.42 171.68 201.28 197.3 219.59 140.41"/><line class="cls-9" x1="146.42" y1="171.68" x2="219.59" y2="140.41"/><line class="cls-9" x1="194.28" y1="128.18" x2="202.58" y2="147.68"/><line class="cls-9" x1="180.04" y1="134.27" x2="202.58" y2="147.68"/><line class="cls-10" x1="155.19" y1="144.89" x2="163.16" y2="164.53"/><line class="cls-10" x1="201.28" y1="197.3" x2="163.16" y2="164.53"/><line class="cls-10" x1="200.98" y1="196.18" x2="202.58" y2="147.68"/><line class="cls-10" x1="163.16" y1="164.53" x2="168.96" y2="139"/><polygon class="cls-11" points="169.37 165.04 165.62 166.28 164.5 170.07 162.18 166.89 158.24 167.01 160.55 163.81 159.23 160.09 162.99 161.29 166.11 158.88 166.12 162.82 169.37 165.04"/><polygon class="cls-12" points="169.71 153.25 167.35 154.03 166.65 156.41 165.18 154.41 162.7 154.48 164.15 152.47 163.31 150.13 165.68 150.89 167.65 149.37 167.66 151.85 169.71 153.25"/><polygon class="cls-13" points="259.76 130.79 250.09 115.93 223.53 112.2 210.06 123.81 231.32 155.53 259.76 130.79"/><line class="cls-14" x1="210.06" y1="123.81" x2="259.77" y2="130.79"/><line class="cls-15" x1="250.09" y1="115.93" x2="248.21" y2="129.17"/><line class="cls-15" x1="240.41" y1="114.57" x2="248.21" y2="129.17"/><line class="cls-15" x1="223.53" y1="112.2" x2="221.43" y2="125.41"/><line class="cls-15" x1="231.32" y1="155.53" x2="221.43" y2="125.41"/><line class="cls-15" x1="231.53" y1="154.83" x2="248.21" y2="129.17"/><line class="cls-15" x1="221.43" y1="125.41" x2="232.89" y2="113.51"/><polygon class="cls-11" points="224.62 127.71 222.19 127.15 220.35 128.83 220.13 126.36 217.96 125.14 220.26 124.16 220.76 121.73 222.39 123.6 224.87 123.32 223.59 125.45 224.62 127.71"/><polygon class="cls-12" points="228.64 121.45 227.11 121.1 225.96 122.16 225.82 120.6 224.46 119.83 225.9 119.22 226.21 117.68 227.24 118.86 228.8 118.68 227.99 120.03 228.64 121.45"/><polygon class="cls-16" points="146.89 147.42 123.71 131.51 82.55 142.13 69.84 167.29 120.21 200.89 146.89 147.42"/><line class="cls-17" x1="69.84" y1="167.3" x2="146.89" y2="147.42"/><line class="cls-17" x1="123.71" y1="131.51" x2="128.98" y2="152.04"/><line class="cls-17" x1="108.72" y1="135.38" x2="128.98" y2="152.04"/><line class="cls-17" x1="82.55" y1="142.13" x2="87.47" y2="162.75"/><line class="cls-17" x1="120.21" y1="200.89" x2="87.47" y2="162.75"/><line class="cls-17" x1="120.08" y1="199.74" x2="128.98" y2="152.04"/><line class="cls-17" x1="87.47" y1="162.75" x2="97.05" y2="138.39"/><polygon class="cls-11" points="93.53 164.19 89.64 164.85 87.96 168.43 86.14 164.93 82.23 164.46 85 161.64 84.25 157.77 87.78 159.52 91.24 157.6 90.65 161.51 93.53 164.19"/><polygon class="cls-12" points="95.64 152.59 93.19 153 92.14 155.25 90.99 153.05 88.53 152.75 90.27 150.97 89.79 148.54 92.02 149.64 94.19 148.44 93.82 150.9 95.64 152.59"/><circle class="cls-18" cx="230.89" cy="163.91" r="23.55"/><text class="cls-19" transform="translate(226.81 173.69) rotate(-8.59)">$</text><circle class="cls-18" cx="254.07" cy="202.12" r="23.55"/><text class="cls-19" transform="translate(249.98 211.91) rotate(-8.59)">$</text><circle class="cls-18" cx="206.37" cy="196.07" r="23.55"/><text class="cls-19" transform="translate(202.28 205.86) rotate(-8.59)">$</text><polygon class="cls-20" points="269.67 157.61 259.24 153.63 250.04 159.97 250.6 148.82 241.73 142.04 252.51 139.13 256.22 128.59 262.32 137.94 273.49 138.22 266.48 146.91 269.67 157.61"/><polygon class="cls-20" points="273.89 178.97 268.84 177.05 264.38 180.12 264.65 174.72 260.36 171.43 265.58 170.02 267.38 164.92 270.33 169.45 275.74 169.58 272.35 173.79 273.89 178.97"/><circle class="cls-18" cx="99" cy="194.8" r="23.55"/><text class="cls-19" transform="translate(94.91 204.58) rotate(-8.59)">$</text><circle class="cls-18" cx="166.77" cy="197.3" r="15.45"/><text class="cls-21" transform="matrix(0.99, -0.15, 0.15, 0.99, 164.09, 203.71)">$</text><circle class="cls-18" cx="134.89" cy="198.97" r="11.37"/><text class="cls-22" transform="translate(132.92 203.7) rotate(-8.59)">$</text><polygon class="cls-20" points="141.78 128.43 139.04 126.3 135.73 127.35 136.91 124.09 134.89 121.26 138.36 121.38 140.42 118.59 141.38 121.92 144.68 123.02 141.8 124.96 141.78 128.43"/><polygon class="cls-20" points="133.78 125.92 128.73 123.99 124.27 127.06 124.54 121.66 120.25 118.37 125.47 116.96 127.27 111.86 130.22 116.39 135.63 116.52 132.24 120.73 133.78 125.92"/><path class="cls-3" d="M153.45,214.09h55.31s0,61-27.66,52.22C181.1,266.31,149.66,278.54,153.45,214.09Z"/><path d="M184.89,239.48l5.91,14.39H171.09l5.13-14.39s-7.72-12,5-12S184.89,239.48,184.89,239.48Z"/><rect class="cls-1" x="764.81" y="94.62" width="218.54" height="128.74" rx="6.56" ry="6.56"/><rect class="cls-2" x="779.46" y="107.31" width="189.23" height="111.47" rx="12.54" ry="12.54"/><rect class="cls-1" x="731.7" y="214.9" width="286.34" height="135.27" rx="5.82" ry="5.82"/><rect class="cls-2" x="762.89" y="241.66" width="223.96" height="90.48"/><rect class="cls-3" x="731.7" y="222.57" width="286.34" height="15.3"/><circle class="cls-2" cx="746.82" cy="230.22" r="4.74"/><circle class="cls-2" cx="831.59" cy="199.4" r="4.74"/><circle class="cls-2" cx="831.59" cy="199.4" r="4.74"/><circle class="cls-2" cx="784.2" cy="230.22" r="4.74"/><circle class="cls-2" cx="826.85" cy="230.22" r="4.74"/><circle class="cls-2" cx="929.13" cy="230.22" r="4.74"/><circle class="cls-2" cx="966.96" cy="230.22" r="4.74"/><circle class="cls-2" cx="1001.46" cy="230.22" r="4.74"/><text class="cls-4" transform="translate(805.82 318.44)">TREASURE<tspan class="cls-5" x="145.38" y="0"> </tspan></text><circle class="cls-6" cx="803.78" cy="218.89" r="5.86"/><circle class="cls-7" cx="801.17" cy="216.02" r="0.92"/><circle class="cls-6" cx="803.78" cy="240.25" r="5.86"/><circle class="cls-7" cx="801.17" cy="239.47" r="0.92"/><circle class="cls-6" cx="803.78" cy="229.88" r="5.86"/><circle class="cls-7" cx="801.17" cy="227.01" r="0.92"/><circle class="cls-7" cx="800.66" cy="246.2" r="0.92"/><circle class="cls-6" cx="803.78" cy="249.07" r="5.86"/><circle class="cls-7" cx="800.66" cy="246.2" r="0.92"/><circle class="cls-6" cx="803.78" cy="270.43" r="5.86"/><circle class="cls-7" cx="800.66" cy="269.65" r="0.92"/><circle class="cls-6" cx="803.78" cy="260.06" r="5.86"/><circle class="cls-7" cx="800.66" cy="257.19" r="0.92"/><circle class="cls-7" cx="800.15" cy="276.38" r="0.92"/><circle class="cls-6" cx="795.71" cy="278.28" r="5.86"/><circle class="cls-6" cx="784.74" cy="279.42" r="5.86"/><circle class="cls-6" cx="775.29" cy="274.96" r="5.86"/><circle class="cls-6" cx="773.01" cy="265.52" r="5.86"/><circle class="cls-6" cx="773.01" cy="214.7" r="5.86"/><circle class="cls-7" cx="770.4" cy="211.83" r="0.92"/><circle class="cls-6" cx="773.01" cy="236.06" r="5.86"/><circle class="cls-7" cx="770.4" cy="235.28" r="0.92"/><circle class="cls-6" cx="773.01" cy="225.69" r="5.86"/><circle class="cls-7" cx="770.4" cy="222.82" r="0.92"/><circle class="cls-7" cx="769.89" cy="242.01" r="0.92"/><circle class="cls-6" cx="773.01" cy="244.88" r="5.86"/><circle class="cls-7" cx="769.89" cy="242.01" r="0.92"/><circle class="cls-6" cx="773.01" cy="255.87" r="5.86"/><circle class="cls-7" cx="793.36" cy="275.46" r="0.92"/><circle class="cls-7" cx="783.18" cy="276.29" r="0.92"/><circle class="cls-7" cx="775.55" cy="272.08" r="0.92"/><circle class="cls-7" cx="775.29" cy="262.65" r="0.92"/><circle class="cls-7" cx="770.4" cy="254.2" r="0.92"/><polygon class="cls-8" points="918.5 140.84 893.18 128.61 854.1 145.31 845.33 172.11 900.19 197.72 918.5 140.84"/><line class="cls-9" x1="845.33" y1="172.11" x2="918.5" y2="140.84"/><line class="cls-9" x1="893.18" y1="128.61" x2="901.49" y2="148.11"/><line class="cls-9" x1="878.95" y1="134.69" x2="901.49" y2="148.11"/><line class="cls-10" x1="854.1" y1="145.31" x2="862.07" y2="164.95"/><line class="cls-10" x1="900.19" y1="197.72" x2="862.07" y2="164.95"/><line class="cls-10" x1="899.89" y1="196.6" x2="901.49" y2="148.11"/><line class="cls-10" x1="862.07" y1="164.95" x2="867.87" y2="139.43"/><polygon class="cls-11" points="868.28 165.47 864.53 166.71 863.41 170.49 861.09 167.31 857.15 167.44 859.46 164.23 858.14 160.52 861.9 161.72 865.02 159.3 865.03 163.25 868.28 165.47"/><polygon class="cls-12" points="868.62 153.68 866.25 154.46 865.56 156.84 864.09 154.84 861.61 154.91 863.06 152.89 862.23 150.55 864.59 151.31 866.56 149.8 866.56 152.28 868.62 153.68"/><polygon class="cls-13" points="958.67 131.22 949 116.36 922.44 112.63 908.97 124.23 930.23 155.96 958.67 131.22"/><line class="cls-14" x1="908.97" y1="124.23" x2="958.67" y2="131.22"/><line class="cls-15" x1="949" y1="116.35" x2="947.12" y2="129.59"/><line class="cls-15" x1="939.32" y1="115" x2="947.12" y2="129.59"/><line class="cls-15" x1="922.44" y1="112.62" x2="920.34" y2="125.83"/><line class="cls-15" x1="930.23" y1="155.96" x2="920.34" y2="125.83"/><line class="cls-15" x1="930.44" y1="155.26" x2="947.12" y2="129.59"/><line class="cls-15" x1="920.34" y1="125.83" x2="931.8" y2="113.94"/><polygon class="cls-11" points="923.53 128.13 921.1 127.58 919.26 129.26 919.04 126.79 916.87 125.56 919.17 124.59 919.67 122.16 921.3 124.03 923.78 123.74 922.5 125.87 923.53 128.13"/><polygon class="cls-12" points="927.55 121.88 926.02 121.53 924.87 122.59 924.73 121.03 923.37 120.25 924.81 119.64 925.12 118.11 926.15 119.29 927.71 119.11 926.9 120.45 927.55 121.88"/><polygon class="cls-16" points="845.8 147.84 822.62 131.94 781.46 142.56 768.75 167.72 819.12 201.32 845.8 147.84"/><line class="cls-17" x1="768.75" y1="167.72" x2="845.8" y2="147.84"/><line class="cls-17" x1="822.62" y1="131.94" x2="827.89" y2="152.46"/><line class="cls-17" x1="807.63" y1="135.8" x2="827.89" y2="152.46"/><line class="cls-17" x1="781.46" y1="142.56" x2="786.38" y2="163.17"/><line class="cls-17" x1="819.12" y1="201.32" x2="786.38" y2="163.17"/><line class="cls-17" x1="818.99" y1="200.17" x2="827.89" y2="152.46"/><line class="cls-17" x1="786.38" y1="163.17" x2="795.96" y2="138.81"/><polygon class="cls-11" points="792.44 164.62 788.55 165.28 786.87 168.85 785.05 165.36 781.13 164.89 783.91 162.07 783.16 158.2 786.69 159.95 790.15 158.03 789.56 161.93 792.44 164.62"/><polygon class="cls-12" points="794.55 153.02 792.1 153.43 791.05 155.68 789.9 153.48 787.43 153.17 789.17 151.4 788.7 148.96 790.92 150.07 793.1 148.87 792.73 151.32 794.55 153.02"/><circle class="cls-18" cx="929.8" cy="164.34" r="23.55"/><text class="cls-19" transform="translate(925.72 174.12) rotate(-8.59)">$</text><circle class="cls-18" cx="952.98" cy="202.55" r="23.55"/><text class="cls-19" transform="translate(948.89 212.33) rotate(-8.59)">$</text><circle class="cls-18" cx="905.28" cy="196.5" r="23.55"/><text class="cls-19" transform="translate(901.19 206.28) rotate(-8.59)">$</text><polygon class="cls-20" points="968.58 158.04 958.15 154.06 948.96 160.4 949.51 149.25 940.64 142.47 951.42 139.55 955.13 129.02 961.23 138.37 972.4 138.64 965.39 147.34 968.58 158.04"/><polygon class="cls-20" points="972.8 179.4 967.75 177.47 963.29 180.55 963.56 175.14 959.26 171.86 964.49 170.44 966.28 165.34 969.24 169.87 974.65 170 971.25 174.22 972.8 179.4"/><circle class="cls-18" cx="797.91" cy="195.23" r="23.55"/><text class="cls-19" transform="translate(793.82 205.01) rotate(-8.59)">$</text><circle class="cls-18" cx="865.68" cy="197.72" r="15.45"/><text class="cls-21" transform="matrix(0.99, -0.15, 0.15, 0.99, 863, 204.14)">$</text><circle class="cls-18" cx="833.8" cy="199.4" r="11.37"/><text class="cls-22" transform="translate(831.83 204.12) rotate(-8.59)">$</text><polygon class="cls-20" points="840.69 128.86 837.95 126.73 834.64 127.78 835.82 124.51 833.8 121.69 837.27 121.8 839.33 119.01 840.29 122.34 843.59 123.44 840.71 125.39 840.69 128.86"/><polygon class="cls-20" points="832.69 126.34 827.63 124.42 823.18 127.49 823.45 122.08 819.15 118.8 824.38 117.39 826.17 112.28 829.13 116.81 834.54 116.95 831.14 121.16 832.69 126.34"/><path class="cls-3" d="M852.36,214.52h55.31s0,61-27.66,52.22C880,266.74,848.57,279,852.36,214.52Z"/><path d="M883.8,239.91l5.91,14.38H870l5.12-14.38s-7.71-12,5-12S883.8,239.91,883.8,239.91Z"/><polygon class="cls-20" points="741.46 117.35 729.9 110.41 717.63 115.99 720.67 102.86 711.57 92.91 725 91.74 731.64 80.01 736.91 92.42 750.11 95.12 739.94 103.96 741.46 117.35"/><polygon class="cls-20" points="749.57 202.34 735.03 193.6 719.59 200.63 723.41 184.1 711.95 171.58 728.86 170.1 737.22 155.34 743.85 170.96 760.47 174.35 747.66 185.48 749.57 202.34"/><polygon class="cls-20" points="1033.63 157.13 1024.13 151.42 1014.04 156.01 1016.53 145.21 1009.05 137.03 1020.09 136.07 1025.56 126.42 1029.89 136.63 1040.74 138.85 1032.38 146.12 1033.63 157.13"/><polygon class="cls-20" points="1030.04 209.08 1015.5 200.34 1000.05 207.36 1003.87 190.83 992.42 178.31 1009.32 176.84 1017.68 162.08 1024.31 177.7 1040.93 181.09 1028.13 192.22 1030.04 209.08"/><polygon class="cls-20" points="990.96 80.77 976.42 72.03 960.97 79.05 964.79 62.52 953.34 50.01 970.24 48.53 978.61 33.77 985.23 49.39 1001.86 52.78 989.05 63.91 990.96 80.77"/><polygon class="cls-20" points="917.87 45.31 907.52 39.09 896.53 44.09 899.25 32.33 891.1 23.43 903.13 22.38 909.08 11.87 913.79 22.99 925.62 25.4 916.51 33.32 917.87 45.31"/><polygon class="cls-20" points="850.92 76.86 836.38 68.12 820.94 75.15 824.76 58.62 813.31 46.1 830.21 44.62 838.57 29.86 845.2 45.48 861.82 48.88 849.02 60 850.92 76.86"/><polygon class="cls-20" points="767.82 47.2 758.87 41.82 749.36 46.15 751.71 35.96 744.65 28.25 755.06 27.35 760.22 18.25 764.3 27.87 774.53 29.96 766.65 36.82 767.82 47.2"/><rect class="cls-1" x="2512.12" y="94.01" width="218.54" height="128.74" rx="6.56" ry="6.56"/><rect class="cls-2" x="2526.78" y="106.7" width="189.23" height="111.47" rx="12.54" ry="12.54"/><rect class="cls-1" x="2479.01" y="214.29" width="286.34" height="135.27" rx="5.82" ry="5.82"/><rect class="cls-2" x="2510.2" y="241.05" width="223.96" height="90.48"/><rect class="cls-3" x="2479.01" y="221.96" width="286.34" height="15.3"/><circle class="cls-2" cx="2494.13" cy="229.61" r="4.74"/><circle class="cls-2" cx="2578.9" cy="198.79" r="4.74"/><circle class="cls-2" cx="2578.9" cy="198.79" r="4.74"/><circle class="cls-2" cx="2531.52" cy="229.61" r="4.74"/><circle class="cls-2" cx="2574.16" cy="229.61" r="4.74"/><circle class="cls-2" cx="2676.44" cy="229.61" r="4.74"/><circle class="cls-2" cx="2714.27" cy="229.61" r="4.74"/><circle class="cls-2" cx="2748.78" cy="229.61" r="4.74"/><text class="cls-4" transform="translate(2553.14 317.83)">TREASURE<tspan class="cls-5" x="145.38" y="0"> </tspan></text><circle class="cls-6" cx="2551.09" cy="218.28" r="5.86"/><circle class="cls-7" cx="2548.48" cy="215.41" r="0.92"/><circle class="cls-6" cx="2551.09" cy="239.64" r="5.86"/><circle class="cls-7" cx="2548.48" cy="238.86" r="0.92"/><circle class="cls-6" cx="2551.09" cy="229.27" r="5.86"/><circle class="cls-7" cx="2548.48" cy="226.4" r="0.92"/><circle class="cls-7" cx="2547.97" cy="245.59" r="0.92"/><circle class="cls-6" cx="2551.09" cy="248.46" r="5.86"/><circle class="cls-7" cx="2547.97" cy="245.59" r="0.92"/><circle class="cls-6" cx="2551.09" cy="269.82" r="5.86"/><circle class="cls-7" cx="2547.97" cy="269.04" r="0.92"/><circle class="cls-6" cx="2551.09" cy="259.45" r="5.86"/><circle class="cls-7" cx="2547.97" cy="256.58" r="0.92"/><circle class="cls-7" cx="2547.46" cy="275.77" r="0.92"/><circle class="cls-6" cx="2543.03" cy="277.67" r="5.86"/><circle class="cls-6" cx="2532.05" cy="278.81" r="5.86"/><circle class="cls-6" cx="2522.61" cy="274.35" r="5.86"/><circle class="cls-6" cx="2520.33" cy="264.91" r="5.86"/><circle class="cls-6" cx="2520.33" cy="214.09" r="5.86"/><circle class="cls-7" cx="2517.72" cy="211.22" r="0.92"/><circle class="cls-6" cx="2520.33" cy="235.45" r="5.86"/><circle class="cls-7" cx="2517.72" cy="234.67" r="0.92"/><circle class="cls-6" cx="2520.33" cy="225.08" r="5.86"/><circle class="cls-7" cx="2517.72" cy="222.21" r="0.92"/><circle class="cls-7" cx="2517.21" cy="241.4" r="0.92"/><circle class="cls-6" cx="2520.33" cy="244.27" r="5.86"/><circle class="cls-7" cx="2517.21" cy="241.4" r="0.92"/><circle class="cls-6" cx="2520.33" cy="255.26" r="5.86"/><circle class="cls-7" cx="2540.67" cy="274.85" r="0.92"/><circle class="cls-7" cx="2530.5" cy="275.68" r="0.92"/><circle class="cls-7" cx="2522.86" cy="271.47" r="0.92"/><circle class="cls-7" cx="2522.61" cy="262.04" r="0.92"/><circle class="cls-7" cx="2517.72" cy="253.59" r="0.92"/><polygon class="cls-8" points="2665.81 140.23 2640.5 128 2601.41 144.7 2592.65 171.5 2647.5 197.11 2665.81 140.23"/><line class="cls-9" x1="2592.65" y1="171.5" x2="2665.81" y2="140.23"/><line class="cls-9" x1="2640.5" y1="128" x2="2648.81" y2="147.5"/><line class="cls-9" x1="2626.26" y1="134.08" x2="2648.81" y2="147.5"/><line class="cls-10" x1="2601.41" y1="144.7" x2="2609.39" y2="164.34"/><line class="cls-10" x1="2647.5" y1="197.11" x2="2609.39" y2="164.34"/><line class="cls-10" x1="2647.2" y1="195.99" x2="2648.81" y2="147.5"/><line class="cls-10" x1="2609.39" y1="164.34" x2="2615.18" y2="138.82"/><polygon class="cls-11" points="2615.59 164.86 2611.84 166.09 2610.73 169.88 2608.4 166.7 2604.46 166.83 2606.78 163.62 2605.46 159.91 2609.21 161.11 2612.34 158.69 2612.34 162.64 2615.59 164.86"/><polygon class="cls-12" points="2615.93 153.07 2613.57 153.85 2612.87 156.23 2611.4 154.22 2608.92 154.3 2610.37 152.28 2609.54 149.94 2611.9 150.7 2613.87 149.19 2613.88 151.67 2615.93 153.07"/><polygon class="cls-13" points="2705.99 130.61 2696.31 115.75 2669.76 112.02 2656.28 123.62 2677.55 155.35 2705.99 130.61"/><line class="cls-14" x1="2656.28" y1="123.62" x2="2705.99" y2="130.61"/><line class="cls-15" x1="2696.31" y1="115.74" x2="2694.44" y2="128.98"/><line class="cls-15" x1="2686.64" y1="114.39" x2="2694.44" y2="128.98"/><line class="cls-15" x1="2669.76" y1="112.01" x2="2667.66" y2="125.22"/><line class="cls-15" x1="2677.55" y1="155.35" x2="2667.66" y2="125.22"/><line class="cls-15" x1="2677.75" y1="154.65" x2="2694.44" y2="128.98"/><line class="cls-15" x1="2667.66" y1="125.22" x2="2679.11" y2="113.33"/><polygon class="cls-11" points="2670.84 127.52 2668.41 126.97 2666.57 128.65 2666.36 126.18 2664.19 124.95 2666.48 123.98 2666.98 121.55 2668.62 123.42 2671.09 123.13 2669.81 125.26 2670.84 127.52"/><polygon class="cls-12" points="2674.87 121.27 2673.34 120.92 2672.18 121.98 2672.05 120.42 2670.68 119.64 2672.12 119.03 2672.43 117.5 2673.46 118.68 2675.02 118.5 2674.22 119.84 2674.87 121.27"/><polygon class="cls-16" points="2593.11 147.24 2569.93 131.33 2528.77 141.94 2516.07 167.11 2566.43 200.71 2593.11 147.24"/><line class="cls-17" x1="2516.07" y1="167.11" x2="2593.11" y2="147.23"/><line class="cls-17" x1="2569.93" y1="131.33" x2="2575.2" y2="151.85"/><line class="cls-17" x1="2554.94" y1="135.19" x2="2575.2" y2="151.85"/><line class="cls-17" x1="2528.77" y1="141.95" x2="2533.69" y2="162.56"/><line class="cls-17" x1="2566.43" y1="200.71" x2="2533.69" y2="162.56"/><line class="cls-17" x1="2566.3" y1="199.56" x2="2575.2" y2="151.85"/><line class="cls-17" x1="2533.69" y1="162.56" x2="2543.27" y2="138.2"/><polygon class="cls-11" points="2539.76 164.01 2535.86 164.67 2534.18 168.24 2532.37 164.75 2528.45 164.28 2531.22 161.46 2530.48 157.59 2534.01 159.34 2537.46 157.42 2536.87 161.32 2539.76 164.01"/><polygon class="cls-12" points="2541.86 152.41 2539.41 152.82 2538.36 155.07 2537.21 152.87 2534.75 152.56 2536.49 150.79 2536.02 148.35 2538.24 149.46 2540.41 148.26 2540.05 150.71 2541.86 152.41"/><circle class="cls-18" cx="2677.12" cy="163.73" r="23.55"/><text class="cls-19" transform="translate(2673.03 173.51) rotate(-8.59)">$</text><circle class="cls-18" cx="2700.29" cy="201.94" r="23.55"/><text class="cls-19" transform="translate(2696.2 211.72) rotate(-8.59)">$</text><circle class="cls-18" cx="2652.59" cy="195.89" r="23.55"/><text class="cls-19" transform="translate(2648.51 205.67) rotate(-8.59)">$</text><polygon class="cls-20" points="2715.89 157.43 2705.46 153.45 2696.27 159.79 2696.83 148.64 2687.96 141.86 2698.74 138.94 2702.45 128.41 2708.55 137.76 2719.71 138.03 2712.7 146.73 2715.89 157.43"/><polygon class="cls-20" points="2720.11 178.79 2715.06 176.86 2710.61 179.94 2710.88 174.53 2706.58 171.25 2711.8 169.84 2713.6 164.73 2716.56 169.26 2721.96 169.4 2718.57 173.61 2720.11 178.79"/><circle class="cls-18" cx="2545.23" cy="194.62" r="23.55"/><text class="cls-19" transform="translate(2541.14 204.4) rotate(-8.59)">$</text><circle class="cls-18" cx="2613" cy="197.11" r="15.45"/><text class="cls-21" transform="matrix(0.99, -0.15, 0.15, 0.99, 2610.32, 203.53)">$</text><circle class="cls-18" cx="2581.12" cy="198.79" r="11.37"/><text class="cls-22" transform="translate(2579.15 203.51) rotate(-8.59)">$</text><polygon class="cls-20" points="2588 128.25 2585.26 126.12 2581.96 127.17 2583.14 123.9 2581.12 121.08 2584.58 121.19 2586.64 118.4 2587.61 121.73 2590.9 122.83 2588.03 124.78 2588 128.25"/><polygon class="cls-20" points="2580 125.73 2574.95 123.81 2570.5 126.88 2570.77 121.47 2566.47 118.19 2571.69 116.78 2573.49 111.67 2576.45 116.2 2581.85 116.34 2578.46 120.55 2580 125.73"/><path class="cls-3" d="M2599.67,213.91H2655s0,61-27.65,52.22C2627.33,266.13,2595.89,278.35,2599.67,213.91Z"/><path d="M2631.11,239.3l5.91,14.38h-19.7l5.12-14.38s-7.71-12,5-12S2631.11,239.3,2631.11,239.3Z"/><polygon class="cls-20" points="2488.82 116.37 2477.27 109.43 2465 115.01 2468.03 101.88 2458.94 91.93 2472.36 90.76 2479.01 79.03 2484.28 91.44 2497.48 94.14 2487.31 102.98 2488.82 116.37"/><polygon class="cls-20" points="2780.99 156.15 2771.49 150.44 2761.41 155.03 2763.9 144.23 2756.42 136.05 2767.46 135.09 2772.93 125.45 2777.25 135.65 2788.11 137.87 2779.75 145.14 2780.99 156.15"/><polygon class="cls-20" points="2777.41 208.1 2762.86 199.36 2747.42 206.38 2751.24 189.85 2739.79 177.34 2756.69 175.86 2765.05 161.1 2771.68 176.72 2788.3 180.11 2775.5 191.24 2777.41 208.1"/><polygon class="cls-20" points="2738.33 79.79 2723.78 71.05 2708.34 78.08 2712.16 61.54 2700.71 49.03 2717.61 47.55 2725.97 32.79 2732.6 48.41 2749.22 51.8 2736.42 62.93 2738.33 79.79"/><polygon class="cls-20" points="2598.29 75.88 2583.75 67.14 2568.31 74.17 2572.13 57.64 2560.68 45.12 2577.58 43.64 2585.94 28.88 2592.57 44.5 2609.19 47.9 2596.39 59.02 2598.29 75.88"/><polygon class="cls-20" points="2143.12 204.64 2128.58 195.9 2113.13 202.92 2116.95 186.39 2105.5 173.87 2122.4 172.4 2130.77 157.64 2137.4 173.25 2154.02 176.65 2141.21 187.78 2143.12 204.64"/><polygon class="cls-20" points="2390.2 80.38 2375.66 71.64 2360.22 78.66 2364.04 62.13 2352.59 49.61 2369.49 48.13 2377.85 33.37 2384.48 48.99 2401.1 52.39 2388.3 63.52 2390.2 80.38"/><polygon class="cls-20" points="2250.17 76.47 2235.63 67.73 2220.19 74.75 2224.01 58.22 2212.55 45.7 2229.45 44.23 2237.82 29.47 2244.45 45.08 2261.07 48.48 2248.26 59.61 2250.17 76.47"/><rect class="cls-1" x="1812.34" y="93.63" width="218.54" height="128.74" rx="6.56" ry="6.56"/><rect class="cls-2" x="1826.99" y="106.32" width="189.23" height="111.47" rx="12.54" ry="12.54"/><rect class="cls-1" x="1779.23" y="213.91" width="286.34" height="135.27" rx="5.82" ry="5.82"/><rect class="cls-2" x="1810.42" y="240.67" width="223.96" height="90.48"/><rect class="cls-3" x="1779.23" y="221.58" width="286.34" height="15.3"/><circle class="cls-2" cx="1794.35" cy="229.23" r="4.74"/><circle class="cls-2" cx="1879.11" cy="198.41" r="4.74"/><circle class="cls-2" cx="1879.11" cy="198.41" r="4.74"/><circle class="cls-2" cx="1831.73" cy="229.23" r="4.74"/><circle class="cls-2" cx="1874.38" cy="229.23" r="4.74"/><circle class="cls-2" cx="1976.66" cy="229.23" r="4.74"/><circle class="cls-2" cx="2014.49" cy="229.23" r="4.74"/><circle class="cls-2" cx="2048.99" cy="229.23" r="4.74"/><text class="cls-4" transform="translate(1853.35 317.44)">TREASURE<tspan class="cls-5" x="145.38" y="0"> </tspan></text><circle class="cls-6" cx="1851.3" cy="217.9" r="5.86"/><circle class="cls-7" cx="1848.7" cy="215.03" r="0.92"/><circle class="cls-6" cx="1851.3" cy="239.26" r="5.86"/><circle class="cls-7" cx="1848.7" cy="238.48" r="0.92"/><circle class="cls-6" cx="1851.3" cy="228.88" r="5.86"/><circle class="cls-7" cx="1848.7" cy="226.01" r="0.92"/><circle class="cls-7" cx="1848.19" cy="245.21" r="0.92"/><circle class="cls-6" cx="1851.3" cy="248.08" r="5.86"/><circle class="cls-7" cx="1848.19" cy="245.21" r="0.92"/><circle class="cls-6" cx="1851.3" cy="269.44" r="5.86"/><circle class="cls-7" cx="1848.19" cy="268.66" r="0.92"/><circle class="cls-6" cx="1851.3" cy="259.07" r="5.86"/><circle class="cls-7" cx="1848.19" cy="256.19" r="0.92"/><circle class="cls-7" cx="1847.67" cy="275.39" r="0.92"/><circle class="cls-6" cx="1843.24" cy="277.29" r="5.86"/><circle class="cls-6" cx="1832.27" cy="278.43" r="5.86"/><circle class="cls-6" cx="1822.82" cy="273.96" r="5.86"/><circle class="cls-6" cx="1820.54" cy="264.53" r="5.86"/><circle class="cls-6" cx="1820.54" cy="213.71" r="5.86"/><circle class="cls-7" cx="1817.93" cy="210.84" r="0.92"/><circle class="cls-6" cx="1820.54" cy="235.07" r="5.86"/><circle class="cls-7" cx="1817.93" cy="234.29" r="0.92"/><circle class="cls-6" cx="1820.54" cy="224.7" r="5.86"/><circle class="cls-7" cx="1817.93" cy="221.82" r="0.92"/><circle class="cls-7" cx="1817.42" cy="241.02" r="0.92"/><circle class="cls-6" cx="1820.54" cy="243.89" r="5.86"/><circle class="cls-7" cx="1817.42" cy="241.02" r="0.92"/><circle class="cls-6" cx="1820.54" cy="254.88" r="5.86"/><circle class="cls-7" cx="1840.89" cy="274.47" r="0.92"/><circle class="cls-7" cx="1830.71" cy="275.3" r="0.92"/><circle class="cls-7" cx="1823.07" cy="271.09" r="0.92"/><circle class="cls-7" cx="1822.82" cy="261.66" r="0.92"/><circle class="cls-7" cx="1817.93" cy="253.2" r="0.92"/><polygon class="cls-8" points="1966.03 139.85 1940.71 127.62 1901.63 144.32 1892.86 171.11 1947.71 196.73 1966.03 139.85"/><line class="cls-9" x1="1892.86" y1="171.11" x2="1966.03" y2="139.85"/><line class="cls-9" x1="1940.71" y1="127.62" x2="1949.02" y2="147.11"/><line class="cls-9" x1="1926.48" y1="133.7" x2="1949.02" y2="147.11"/><line class="cls-10" x1="1901.63" y1="144.32" x2="1909.6" y2="163.96"/><line class="cls-10" x1="1947.71" y1="196.73" x2="1909.6" y2="163.96"/><line class="cls-10" x1="1947.42" y1="195.61" x2="1949.02" y2="147.11"/><line class="cls-10" x1="1909.6" y1="163.96" x2="1915.39" y2="138.44"/><polygon class="cls-11" points="1915.81 164.47 1912.06 165.71 1910.94 169.5 1908.62 166.32 1904.67 166.44 1906.99 163.24 1905.67 159.53 1909.42 160.72 1912.55 158.31 1912.56 162.25 1915.81 164.47"/><polygon class="cls-12" points="1916.14 152.69 1913.78 153.46 1913.08 155.85 1911.62 153.84 1909.13 153.91 1910.59 151.9 1909.75 149.56 1912.12 150.32 1914.08 148.8 1914.09 151.29 1916.14 152.69"/><polygon class="cls-13" points="2006.2 130.22 1996.52 115.36 1969.97 111.63 1956.5 123.24 1977.76 154.97 2006.2 130.22"/><line class="cls-14" x1="1956.5" y1="123.24" x2="2006.2" y2="130.22"/><line class="cls-15" x1="1996.52" y1="115.36" x2="1994.65" y2="128.6"/><line class="cls-15" x1="1986.85" y1="114" x2="1994.65" y2="128.6"/><line class="cls-15" x1="1969.97" y1="111.63" x2="1967.87" y2="124.84"/><line class="cls-15" x1="1977.76" y1="154.97" x2="1967.87" y2="124.84"/><line class="cls-15" x1="1977.96" y1="154.26" x2="1994.65" y2="128.6"/><line class="cls-15" x1="1967.87" y1="124.84" x2="1979.32" y2="112.95"/><polygon class="cls-11" points="1971.06 127.14 1968.63 126.59 1966.79 128.27 1966.57 125.79 1964.4 124.57 1966.69 123.6 1967.19 121.16 1968.83 123.03 1971.31 122.75 1970.02 124.88 1971.06 127.14"/><polygon class="cls-12" points="1975.08 120.89 1973.55 120.53 1972.4 121.59 1972.26 120.03 1970.89 119.26 1972.34 118.65 1972.65 117.11 1973.68 118.29 1975.23 118.12 1974.43 119.46 1975.08 120.89"/><polygon class="cls-16" points="1893.32 146.85 1870.14 130.94 1828.99 141.56 1816.28 166.73 1866.64 200.32 1893.32 146.85"/><line class="cls-17" x1="1816.28" y1="166.73" x2="1893.32" y2="146.85"/><line class="cls-17" x1="1870.14" y1="130.94" x2="1875.42" y2="151.47"/><line class="cls-17" x1="1855.15" y1="134.81" x2="1875.42" y2="151.47"/><line class="cls-17" x1="1828.99" y1="141.56" x2="1833.91" y2="162.18"/><line class="cls-17" x1="1866.64" y1="200.32" x2="1833.91" y2="162.18"/><line class="cls-17" x1="1866.52" y1="199.17" x2="1875.42" y2="151.47"/><line class="cls-17" x1="1833.91" y1="162.18" x2="1843.48" y2="137.82"/><polygon class="cls-11" points="1839.97 163.62 1836.07 164.28 1834.4 167.86 1832.58 164.37 1828.66 163.89 1831.43 161.07 1830.69 157.2 1834.22 158.96 1837.68 157.04 1837.09 160.94 1839.97 163.62"/><polygon class="cls-12" points="1842.08 152.02 1839.63 152.44 1838.58 154.69 1837.43 152.48 1834.96 152.18 1836.7 150.41 1836.23 147.97 1838.45 149.08 1840.63 147.87 1840.26 150.33 1842.08 152.02"/><circle class="cls-18" cx="1977.33" cy="163.34" r="23.55"/><text class="cls-19" transform="translate(1973.24 173.13) rotate(-8.59)">$</text><circle class="cls-18" cx="2000.5" cy="201.56" r="23.55"/><text class="cls-19" transform="translate(1996.42 211.34) rotate(-8.59)">$</text><circle class="cls-18" cx="1952.81" cy="195.5" r="23.55"/><text class="cls-19" transform="translate(1948.72 205.29) rotate(-8.59)">$</text><polygon class="cls-20" points="2016.11 157.04 2005.67 153.07 1996.48 159.41 1997.04 148.25 1988.17 141.47 1998.95 138.56 2002.66 128.03 2008.76 137.38 2019.92 137.65 2012.92 146.34 2016.11 157.04"/><polygon class="cls-20" points="2020.33 178.41 2015.27 176.48 2010.82 179.55 2011.09 174.15 2006.79 170.86 2012.02 169.45 2013.81 164.35 2016.77 168.88 2022.18 169.01 2018.78 173.22 2020.33 178.41"/><circle class="cls-18" cx="1845.44" cy="194.23" r="23.55"/><text class="cls-19" transform="translate(1841.35 204.02) rotate(-8.59)">$</text><circle class="cls-18" cx="1913.21" cy="196.73" r="15.45"/><text class="cls-21" transform="matrix(0.99, -0.15, 0.15, 0.99, 1910.53, 203.15)">$</text><circle class="cls-18" cx="1881.33" cy="198.41" r="11.37"/><text class="cls-22" transform="translate(1879.36 203.13) rotate(-8.59)">$</text><polygon class="cls-20" points="1888.21 127.86 1885.48 125.73 1882.17 126.78 1883.35 123.52 1881.33 120.7 1884.8 120.81 1886.86 118.02 1887.82 121.35 1891.11 122.45 1888.24 124.39 1888.21 127.86"/><polygon class="cls-20" points="1880.22 125.35 1875.16 123.42 1870.71 126.49 1870.98 121.09 1866.68 117.81 1871.9 116.39 1873.7 111.29 1876.66 115.82 1882.07 115.95 1878.67 120.17 1880.22 125.35"/><path class="cls-3" d="M1899.89,213.53h55.3s0,61-27.65,52.22C1927.54,265.75,1896.1,278,1899.89,213.53Z"/><path d="M1931.32,238.92l5.92,14.38h-19.71l5.12-14.38s-7.71-12,5-12S1931.32,238.92,1931.32,238.92Z"/><polygon class="cls-20" points="1794.51 172.26 1779.97 163.52 1764.52 170.55 1768.34 154.02 1756.89 141.5 1773.79 140.02 1782.16 125.26 1788.78 140.88 1805.41 144.28 1792.6 155.41 1794.51 172.26"/><polygon class="cls-20" points="2084.95 137.13 2070.41 128.39 2054.96 135.42 2058.78 118.89 2047.33 106.37 2064.23 104.89 2072.59 90.13 2079.22 105.75 2095.84 109.14 2083.04 120.27 2084.95 137.13"/><rect class="cls-1" x="1463.94" y="93.43" width="218.54" height="128.74" rx="6.56" ry="6.56"/><rect class="cls-2" x="1478.59" y="106.11" width="189.23" height="111.47" rx="12.54" ry="12.54"/><rect class="cls-1" x="1430.83" y="213.71" width="286.34" height="135.27" rx="5.82" ry="5.82"/><rect class="cls-2" x="1462.02" y="240.47" width="223.96" height="90.48"/><rect class="cls-3" x="1430.83" y="221.38" width="286.34" height="15.3"/><circle class="cls-2" cx="1445.95" cy="229.03" r="4.74"/><circle class="cls-2" cx="1530.72" cy="198.2" r="4.74"/><circle class="cls-2" cx="1530.72" cy="198.2" r="4.74"/><circle class="cls-2" cx="1483.33" cy="229.03" r="4.74"/><circle class="cls-2" cx="1525.98" cy="229.03" r="4.74"/><circle class="cls-2" cx="1628.26" cy="229.03" r="4.74"/><circle class="cls-2" cx="1666.09" cy="229.03" r="4.74"/><circle class="cls-2" cx="1700.59" cy="229.03" r="4.74"/><text class="cls-4" transform="translate(1504.95 317.24)">TREASURE<tspan class="cls-5" x="145.38" y="0"> </tspan></text><circle class="cls-6" cx="1502.91" cy="217.69" r="5.86"/><circle class="cls-7" cx="1500.3" cy="214.82" r="0.92"/><circle class="cls-6" cx="1502.91" cy="239.05" r="5.86"/><circle class="cls-7" cx="1500.3" cy="238.28" r="0.92"/><circle class="cls-6" cx="1502.91" cy="228.68" r="5.86"/><circle class="cls-7" cx="1500.3" cy="225.81" r="0.92"/><circle class="cls-7" cx="1499.79" cy="245.01" r="0.92"/><circle class="cls-6" cx="1502.91" cy="247.88" r="5.86"/><circle class="cls-7" cx="1499.79" cy="245.01" r="0.92"/><circle class="cls-6" cx="1502.91" cy="269.24" r="5.86"/><circle class="cls-7" cx="1499.79" cy="268.46" r="0.92"/><circle class="cls-6" cx="1502.91" cy="258.86" r="5.86"/><circle class="cls-7" cx="1499.79" cy="255.99" r="0.92"/><circle class="cls-7" cx="1499.28" cy="275.19" r="0.92"/><circle class="cls-6" cx="1494.84" cy="277.09" r="5.86"/><circle class="cls-6" cx="1483.87" cy="278.23" r="5.86"/><circle class="cls-6" cx="1474.42" cy="273.76" r="5.86"/><circle class="cls-6" cx="1472.14" cy="264.32" r="5.86"/><circle class="cls-6" cx="1472.14" cy="213.51" r="5.86"/><circle class="cls-7" cx="1469.53" cy="210.64" r="0.92"/><circle class="cls-6" cx="1472.14" cy="234.87" r="5.86"/><circle class="cls-7" cx="1469.53" cy="234.09" r="0.92"/><circle class="cls-6" cx="1472.14" cy="224.49" r="5.86"/><circle class="cls-7" cx="1469.53" cy="221.62" r="0.92"/><circle class="cls-7" cx="1469.02" cy="240.82" r="0.92"/><circle class="cls-6" cx="1472.14" cy="243.69" r="5.86"/><circle class="cls-7" cx="1469.02" cy="240.82" r="0.92"/><circle class="cls-6" cx="1472.14" cy="254.68" r="5.86"/><circle class="cls-7" cx="1492.49" cy="274.27" r="0.92"/><circle class="cls-7" cx="1482.31" cy="275.1" r="0.92"/><circle class="cls-7" cx="1474.68" cy="270.88" r="0.92"/><circle class="cls-7" cx="1474.42" cy="261.46" r="0.92"/><circle class="cls-7" cx="1469.53" cy="253" r="0.92"/><polygon class="cls-8" points="1617.63 139.65 1592.31 127.41 1553.23 144.12 1544.46 170.91 1599.32 196.53 1617.63 139.65"/><line class="cls-9" x1="1544.46" y1="170.91" x2="1617.63" y2="139.65"/><line class="cls-9" x1="1592.31" y1="127.41" x2="1600.62" y2="146.91"/><line class="cls-9" x1="1578.08" y1="133.5" x2="1600.62" y2="146.91"/><line class="cls-10" x1="1553.23" y1="144.12" x2="1561.2" y2="163.76"/><line class="cls-10" x1="1599.32" y1="196.53" x2="1561.2" y2="163.76"/><line class="cls-10" x1="1599.02" y1="195.41" x2="1600.62" y2="146.91"/><line class="cls-10" x1="1561.2" y1="163.76" x2="1567" y2="138.23"/><polygon class="cls-11" points="1567.41 164.27 1563.66 165.51 1562.54 169.3 1560.22 166.12 1556.28 166.24 1558.59 163.04 1557.27 159.32 1561.03 160.52 1564.15 158.11 1564.16 162.05 1567.41 164.27"/><polygon class="cls-12" points="1567.74 152.49 1565.38 153.26 1564.69 155.65 1563.22 153.64 1560.74 153.71 1562.19 151.7 1561.35 149.36 1563.72 150.12 1565.69 148.6 1565.69 151.09 1567.74 152.49"/><polygon class="cls-13" points="1657.81 130.02 1648.13 115.16 1621.57 111.43 1608.1 123.04 1629.36 154.76 1657.81 130.02"/><line class="cls-14" x1="1608.1" y1="123.04" x2="1657.8" y2="130.02"/><line class="cls-15" x1="1648.13" y1="115.16" x2="1646.25" y2="128.4"/><line class="cls-15" x1="1638.45" y1="113.8" x2="1646.25" y2="128.4"/><line class="cls-15" x1="1621.57" y1="111.43" x2="1619.47" y2="124.64"/><line class="cls-15" x1="1629.36" y1="154.76" x2="1619.47" y2="124.64"/><line class="cls-15" x1="1629.57" y1="154.06" x2="1646.25" y2="128.4"/><line class="cls-15" x1="1619.47" y1="124.64" x2="1630.92" y2="112.74"/><polygon class="cls-11" points="1622.66 126.94 1620.23 126.39 1618.39 128.07 1618.17 125.59 1616 124.37 1618.3 123.4 1618.8 120.96 1620.43 122.83 1622.91 122.55 1621.62 124.68 1622.66 126.94"/><polygon class="cls-12" points="1626.68 120.69 1625.15 120.33 1624 121.39 1623.86 119.83 1622.5 119.06 1623.94 118.45 1624.25 116.91 1625.28 118.09 1626.84 117.92 1626.03 119.26 1626.68 120.69"/><polygon class="cls-16" points="1544.93 146.65 1521.75 130.74 1480.59 141.36 1467.88 166.53 1518.25 200.12 1544.93 146.65"/><line class="cls-17" x1="1467.88" y1="166.53" x2="1544.93" y2="146.65"/><line class="cls-17" x1="1521.75" y1="130.74" x2="1527.02" y2="151.27"/><line class="cls-17" x1="1506.75" y1="134.61" x2="1527.02" y2="151.27"/><line class="cls-17" x1="1480.59" y1="141.36" x2="1485.51" y2="161.98"/><line class="cls-17" x1="1518.25" y1="200.12" x2="1485.51" y2="161.98"/><line class="cls-17" x1="1518.12" y1="198.97" x2="1527.02" y2="151.27"/><line class="cls-17" x1="1485.51" y1="161.98" x2="1495.09" y2="137.62"/><polygon class="cls-11" points="1491.57 163.42 1487.67 164.08 1486 167.66 1484.18 164.16 1480.27 163.69 1483.04 160.87 1482.29 157 1485.82 158.75 1489.28 156.84 1488.69 160.74 1491.57 163.42"/><polygon class="cls-12" points="1493.68 151.82 1491.23 152.23 1490.18 154.49 1489.03 152.28 1486.56 151.98 1488.31 150.21 1487.83 147.77 1490.06 148.88 1492.23 147.67 1491.86 150.13 1493.68 151.82"/><circle class="cls-18" cx="1628.93" cy="163.14" r="23.55"/><text class="cls-19" transform="translate(1624.84 172.93) rotate(-8.59)">$</text><circle class="cls-18" cx="1652.11" cy="201.36" r="23.55"/><text class="cls-19" transform="translate(1648.02 211.14) rotate(-8.59)">$</text><circle class="cls-18" cx="1604.41" cy="195.3" r="23.55"/><text class="cls-19" transform="translate(1600.32 205.09) rotate(-8.59)">$</text><polygon class="cls-20" points="1667.71 156.84 1657.28 152.87 1648.08 159.21 1648.64 148.05 1639.77 141.27 1650.55 138.36 1654.26 127.82 1660.36 137.18 1671.53 137.45 1664.52 146.14 1667.71 156.84"/><polygon class="cls-20" points="1671.93 178.21 1666.88 176.28 1662.42 179.35 1662.69 173.95 1658.39 170.66 1663.62 169.25 1665.41 164.15 1668.37 168.68 1673.78 168.81 1670.38 173.02 1671.93 178.21"/><circle class="cls-18" cx="1497.04" cy="194.03" r="23.55"/><text class="cls-19" transform="translate(1492.95 203.82) rotate(-8.59)">$</text><circle class="cls-18" cx="1564.81" cy="196.53" r="15.45"/><text class="cls-21" transform="matrix(0.99, -0.15, 0.15, 0.99, 1562.13, 202.94)">$</text><circle class="cls-18" cx="1532.93" cy="198.2" r="11.37"/><text class="cls-22" transform="translate(1530.96 202.93) rotate(-8.59)">$</text><polygon class="cls-20" points="1539.82 127.66 1537.08 125.53 1533.77 126.58 1534.95 123.32 1532.93 120.5 1536.4 120.61 1538.46 117.82 1539.42 121.15 1542.71 122.25 1539.84 124.19 1539.82 127.66"/><polygon class="cls-20" points="1531.82 125.15 1526.77 123.22 1522.31 126.29 1522.58 120.89 1518.29 117.6 1523.51 116.19 1525.3 111.09 1528.26 115.62 1533.67 115.75 1530.27 119.96 1531.82 125.15"/><path class="cls-3" d="M1551.49,213.32h55.31s0,61-27.66,52.22C1579.14,265.54,1547.7,277.77,1551.49,213.32Z"/><path d="M1582.93,238.71l5.91,14.39h-19.71l5.12-14.39s-7.71-12,5-12S1582.93,238.71,1582.93,238.71Z"/><rect class="cls-1" x="2162.85" y="93.85" width="218.54" height="128.74" rx="6.56" ry="6.56"/><rect class="cls-2" x="2177.5" y="106.54" width="189.23" height="111.47" rx="12.54" ry="12.54"/><rect class="cls-1" x="2129.74" y="214.13" width="286.34" height="135.27" rx="5.82" ry="5.82"/><rect class="cls-2" x="2160.93" y="240.9" width="223.96" height="90.48"/><rect class="cls-3" x="2129.74" y="221.8" width="286.34" height="15.3"/><circle class="cls-2" cx="2144.86" cy="229.45" r="4.74"/><circle class="cls-2" cx="2229.63" cy="198.63" r="4.74"/><circle class="cls-2" cx="2229.63" cy="198.63" r="4.74"/><circle class="cls-2" cx="2182.24" cy="229.45" r="4.74"/><circle class="cls-2" cx="2224.89" cy="229.45" r="4.74"/><circle class="cls-2" cx="2327.17" cy="229.45" r="4.74"/><circle class="cls-2" cx="2365" cy="229.45" r="4.74"/><circle class="cls-2" cx="2399.5" cy="229.45" r="4.74"/><text class="cls-4" transform="translate(2203.86 317.67)">TREASURE<tspan class="cls-5" x="145.38" y="0"> </tspan></text><circle class="cls-6" cx="2201.81" cy="218.12" r="5.86"/><circle class="cls-7" cx="2199.21" cy="215.25" r="0.92"/><circle class="cls-6" cx="2201.81" cy="239.48" r="5.86"/><circle class="cls-7" cx="2199.21" cy="238.7" r="0.92"/><circle class="cls-6" cx="2201.81" cy="229.11" r="5.86"/><circle class="cls-7" cx="2199.21" cy="226.24" r="0.92"/><circle class="cls-7" cx="2198.7" cy="245.43" r="0.92"/><circle class="cls-6" cx="2201.81" cy="248.3" r="5.86"/><circle class="cls-7" cx="2198.7" cy="245.43" r="0.92"/><circle class="cls-6" cx="2201.81" cy="269.66" r="5.86"/><circle class="cls-7" cx="2198.7" cy="268.89" r="0.92"/><circle class="cls-6" cx="2201.81" cy="259.29" r="5.86"/><circle class="cls-7" cx="2198.7" cy="256.42" r="0.92"/><circle class="cls-7" cx="2198.18" cy="275.61" r="0.92"/><circle class="cls-6" cx="2193.75" cy="277.51" r="5.86"/><circle class="cls-6" cx="2182.78" cy="278.65" r="5.86"/><circle class="cls-6" cx="2173.33" cy="274.19" r="5.86"/><circle class="cls-6" cx="2171.05" cy="264.75" r="5.86"/><circle class="cls-6" cx="2171.05" cy="213.93" r="5.86"/><circle class="cls-7" cx="2168.44" cy="211.06" r="0.92"/><circle class="cls-6" cx="2171.05" cy="235.29" r="5.86"/><circle class="cls-7" cx="2168.44" cy="234.52" r="0.92"/><circle class="cls-6" cx="2171.05" cy="224.92" r="5.86"/><circle class="cls-7" cx="2168.44" cy="222.05" r="0.92"/><circle class="cls-7" cx="2167.93" cy="241.24" r="0.92"/><circle class="cls-6" cx="2171.05" cy="244.11" r="5.86"/><circle class="cls-7" cx="2167.93" cy="241.24" r="0.92"/><circle class="cls-6" cx="2171.05" cy="255.1" r="5.86"/><circle class="cls-7" cx="2191.4" cy="274.69" r="0.92"/><circle class="cls-7" cx="2181.22" cy="275.53" r="0.92"/><circle class="cls-7" cx="2173.59" cy="271.31" r="0.92"/><circle class="cls-7" cx="2173.33" cy="261.88" r="0.92"/><circle class="cls-7" cx="2168.44" cy="253.43" r="0.92"/><polygon class="cls-8" points="2316.54 140.07 2291.22 127.84 2252.14 144.54 2243.37 171.34 2298.23 196.95 2316.54 140.07"/><line class="cls-9" x1="2243.37" y1="171.34" x2="2316.54" y2="140.07"/><line class="cls-9" x1="2291.22" y1="127.84" x2="2299.53" y2="147.34"/><line class="cls-9" x1="2276.99" y1="133.92" x2="2299.53" y2="147.34"/><line class="cls-10" x1="2252.14" y1="144.54" x2="2260.11" y2="164.18"/><line class="cls-10" x1="2298.23" y1="196.95" x2="2260.11" y2="164.18"/><line class="cls-10" x1="2297.93" y1="195.84" x2="2299.53" y2="147.34"/><line class="cls-10" x1="2260.11" y1="164.18" x2="2265.9" y2="138.66"/><polygon class="cls-11" points="2266.32 164.7 2262.57 165.94 2261.45 169.72 2259.13 166.54 2255.18 166.67 2257.5 163.46 2256.18 159.75 2259.93 160.95 2263.06 158.53 2263.07 162.48 2266.32 164.7"/><polygon class="cls-12" points="2266.66 152.91 2264.3 153.69 2263.6 156.07 2262.13 154.07 2259.65 154.14 2261.1 152.12 2260.26 149.78 2262.63 150.54 2264.6 149.03 2264.6 151.51 2266.66 152.91"/><polygon class="cls-13" points="2356.71 130.45 2347.03 115.59 2320.48 111.86 2307.01 123.47 2328.27 155.19 2356.71 130.45"/><line class="cls-14" x1="2307.01" y1="123.47" x2="2356.71" y2="130.45"/><line class="cls-15" x1="2347.04" y1="115.59" x2="2345.16" y2="128.82"/><line class="cls-15" x1="2337.36" y1="114.23" x2="2345.16" y2="128.82"/><line class="cls-15" x1="2320.48" y1="111.86" x2="2318.38" y2="125.06"/><line class="cls-15" x1="2328.27" y1="155.19" x2="2318.38" y2="125.06"/><line class="cls-15" x1="2328.48" y1="154.49" x2="2345.16" y2="128.82"/><line class="cls-15" x1="2318.38" y1="125.06" x2="2329.83" y2="113.17"/><polygon class="cls-11" points="2321.57 127.36 2319.14 126.81 2317.3 128.49 2317.08 126.02 2314.91 124.8 2317.21 123.82 2317.7 121.39 2319.34 123.26 2321.82 122.97 2320.53 125.11 2321.57 127.36"/><polygon class="cls-12" points="2325.59 121.11 2324.06 120.76 2322.91 121.82 2322.77 120.26 2321.41 119.49 2322.85 118.87 2323.16 117.34 2324.19 118.52 2325.75 118.34 2324.94 119.69 2325.59 121.11"/><polygon class="cls-16" points="2243.84 147.08 2220.66 131.17 2179.5 141.79 2166.79 166.95 2217.16 200.55 2243.84 147.08"/><line class="cls-17" x1="2166.79" y1="166.95" x2="2243.84" y2="147.08"/><line class="cls-17" x1="2220.66" y1="131.17" x2="2225.93" y2="151.7"/><line class="cls-17" x1="2205.66" y1="135.04" x2="2225.93" y2="151.7"/><line class="cls-17" x1="2179.5" y1="141.79" x2="2184.42" y2="162.4"/><line class="cls-17" x1="2217.16" y1="200.55" x2="2184.42" y2="162.4"/><line class="cls-17" x1="2217.03" y1="199.4" x2="2225.93" y2="151.7"/><line class="cls-17" x1="2184.42" y1="162.4" x2="2193.99" y2="138.05"/><polygon class="cls-11" points="2190.48 163.85 2186.59 164.51 2184.91 168.08 2183.09 164.59 2179.18 164.12 2181.95 161.3 2181.2 157.43 2184.73 159.18 2188.19 157.26 2187.6 161.16 2190.48 163.85"/><polygon class="cls-12" points="2192.59 152.25 2190.14 152.66 2189.09 154.91 2187.94 152.71 2185.47 152.4 2187.21 150.63 2186.74 148.19 2188.96 149.3 2191.14 148.1 2190.77 150.55 2192.59 152.25"/><circle class="cls-18" cx="2327.84" cy="163.57" r="23.55"/><text class="cls-19" transform="translate(2323.75 173.35) rotate(-8.59)">$</text><circle class="cls-18" cx="2351.02" cy="201.78" r="23.55"/><text class="cls-19" transform="translate(2346.93 211.57) rotate(-8.59)">$</text><circle class="cls-18" cx="2303.32" cy="195.73" r="23.55"/><text class="cls-19" transform="translate(2299.23 205.51) rotate(-8.59)">$</text><polygon class="cls-20" points="2366.62 157.27 2356.18 153.29 2346.99 159.63 2347.55 148.48 2338.68 141.7 2349.46 138.78 2353.17 128.25 2359.27 137.6 2370.44 137.87 2363.43 146.57 2366.62 157.27"/><polygon class="cls-20" points="2370.84 178.63 2365.78 176.71 2361.33 179.78 2361.6 174.37 2357.3 171.09 2362.53 169.68 2364.32 164.57 2367.28 169.1 2372.69 169.24 2369.29 173.45 2370.84 178.63"/><circle class="cls-18" cx="2195.95" cy="194.46" r="23.55"/><text class="cls-19" transform="translate(2191.86 204.24) rotate(-8.59)">$</text><circle class="cls-18" cx="2263.72" cy="196.95" r="15.45"/><text class="cls-21" transform="matrix(0.99, -0.15, 0.15, 0.99, 2261.04, 203.37)">$</text><circle class="cls-18" cx="2231.84" cy="198.63" r="11.37"/><text class="cls-22" transform="translate(2229.87 203.35) rotate(-8.59)">$</text><polygon class="cls-20" points="2238.73 128.09 2235.99 125.96 2232.68 127.01 2233.86 123.74 2231.84 120.92 2235.31 121.03 2237.37 118.24 2238.33 121.58 2241.62 122.67 2238.75 124.62 2238.73 128.09"/><polygon class="cls-20" points="2230.73 125.57 2225.68 123.65 2221.22 126.72 2221.49 121.31 2217.2 118.03 2222.42 116.62 2224.21 111.52 2227.17 116.05 2232.58 116.18 2229.18 120.39 2230.73 125.57"/><path class="cls-3" d="M2250.4,213.75h55.31s0,60.95-27.66,52.22C2278.05,266,2246.61,278.2,2250.4,213.75Z"/><path d="M2281.83,239.14l5.92,14.39H2268l5.12-14.39s-7.71-12,5-12S2281.83,239.14,2281.83,239.14Z"/><polygon class="cls-20" points="2139.49 116.58 2127.94 109.64 2115.67 115.22 2118.7 102.09 2109.61 92.14 2123.03 90.97 2129.68 79.24 2134.95 91.65 2148.15 94.35 2137.98 103.19 2139.49 116.58"/><polygon class="cls-20" points="2147.61 201.57 2133.07 192.83 2117.63 199.86 2121.45 183.33 2109.99 170.81 2126.89 169.33 2135.26 154.57 2141.89 170.19 2158.51 173.59 2145.7 184.72 2147.61 201.57"/><polygon class="cls-20" points="2431.66 156.36 2422.16 150.65 2412.08 155.24 2414.57 144.44 2407.09 136.26 2418.13 135.3 2423.6 125.66 2427.93 135.86 2438.78 138.08 2430.42 145.35 2431.66 156.36"/><polygon class="cls-20" points="2428.08 208.31 2413.53 199.57 2398.09 206.59 2401.91 190.06 2390.46 177.54 2407.36 176.07 2415.72 161.31 2422.35 176.93 2438.97 180.32 2426.17 191.45 2428.08 208.31"/><polygon class="cls-20" points="2389 80 2374.45 71.26 2359.01 78.28 2362.83 61.75 2351.38 49.24 2368.28 47.76 2376.65 33 2383.27 48.62 2399.9 52.01 2387.09 63.14 2389 80"/><polygon class="cls-20" points="2248.96 76.09 2234.42 67.35 2218.98 74.38 2222.8 57.85 2211.34 45.33 2228.25 43.85 2236.61 29.09 2243.24 44.71 2259.86 48.11 2247.06 59.23 2248.96 76.09"/></g></svg>
