<svg id="Layer_1" data-name="Layer 1" xmlns="http://www.w3.org/2000/svg" width="422.96" height="377.35" viewBox="0 0 422.96 377.35"><defs><style>.cls-1,.cls-10,.cls-11,.cls-15,.cls-16,.cls-18{fill:none;}.cls-1{stroke:#494943;}.cls-1,.cls-10,.cls-11,.cls-15,.cls-16,.cls-18,.cls-19{stroke-miterlimit:10;}.cls-2{fill:#8d5b18;}.cls-3{fill:#edb32f;}.cls-4{fill:gold;}.cls-5{font-size:56.9px;}.cls-20,.cls-22,.cls-23,.cls-5{fill:#1d1d1b;font-family:Oswald-Regular, Oswald;}.cls-6{font-size:68.28px;font-family:MyriadPro-Regular, Myriad Pro;}.cls-7{fill:#ae63a3;}.cls-8{fill:#f9f7f9;}.cls-9{fill:#df1f84;}.cls-10{stroke:#99155f;}.cls-11{stroke:#9a155f;}.cls-12{fill:#fffdfd;}.cls-13{fill:#f9f7f8;}.cls-14{fill:#7cb829;}.cls-15{stroke:#20a537;}.cls-16{stroke:#25a537;}.cls-17{fill:#6bc4d1;}.cls-18{stroke:#abd9dc;}.cls-19{fill:#f2a73c;stroke:#f9c853;stroke-width:5px;}.cls-20{font-size:30.92px;}.cls-21{fill:#fff;}.cls-22{font-size:20.28px;}.cls-23{font-size:14.93px;}</style></defs><title>skat</title><path class="cls-1" d="M1097,204" transform="translate(-589.65 -256.57)"/><rect class="cls-2" x="48.91" width="322.81" height="190.1" rx="6.56" ry="6.56"/><rect class="cls-3" x="70.56" y="18.73" width="279.51" height="164.61" rx="12.54" ry="12.54"/><rect class="cls-2" y="177.6" width="422.96" height="199.75" rx="5.82" ry="5.82"/><rect class="cls-3" x="46.07" y="217.13" width="330.81" height="133.6"/><rect class="cls-4" y="188.93" width="422.96" height="22.59"/><circle class="cls-3" cx="22.33" cy="200.23" r="7"/><circle class="cls-3" cx="147.55" cy="154.71" r="7"/><circle class="cls-3" cx="147.55" cy="154.71" r="7"/><circle class="cls-3" cx="77.56" cy="200.23" r="7"/><circle class="cls-3" cx="140.55" cy="200.23" r="7"/><circle class="cls-3" cx="291.63" cy="200.23" r="7"/><circle class="cls-3" cx="347.51" cy="200.23" r="7"/><circle class="cls-3" cx="398.47" cy="200.23" r="7"/><text class="cls-5" transform="translate(109.49 330.49)">TREASURE<tspan class="cls-6" x="214.67" y="0"> </tspan></text><circle class="cls-7" cx="106.47" cy="183.49" r="8.66"/><circle class="cls-8" cx="102.62" cy="179.26" r="1.36"/><circle class="cls-7" cx="106.47" cy="215.04" r="8.66"/><circle class="cls-8" cx="102.62" cy="213.89" r="1.36"/><circle class="cls-7" cx="106.47" cy="199.72" r="8.66"/><circle class="cls-8" cx="102.62" cy="195.48" r="1.36"/><circle class="cls-8" cx="101.86" cy="223.82" r="1.36"/><circle class="cls-7" cx="106.47" cy="228.06" r="8.66"/><circle class="cls-8" cx="101.86" cy="223.82" r="1.36"/><circle class="cls-7" cx="106.47" cy="259.6" r="8.66"/><circle class="cls-8" cx="101.86" cy="258.46" r="1.36"/><circle class="cls-7" cx="106.47" cy="244.29" r="8.66"/><circle class="cls-8" cx="101.86" cy="240.05" r="1.36"/><circle class="cls-8" cx="101.11" cy="268.39" r="1.36"/><circle class="cls-7" cx="94.56" cy="271.19" r="8.66"/><circle class="cls-7" cx="78.35" cy="272.88" r="8.66"/><circle class="cls-7" cx="64.4" cy="266.29" r="8.66"/><circle class="cls-7" cx="61.03" cy="252.35" r="8.66"/><circle class="cls-7" cx="61.03" cy="177.31" r="8.66"/><circle class="cls-8" cx="57.18" cy="173.07" r="1.36"/><circle class="cls-7" cx="61.03" cy="208.85" r="8.66"/><circle class="cls-8" cx="57.18" cy="207.71" r="1.36"/><circle class="cls-7" cx="61.03" cy="193.53" r="8.66"/><circle class="cls-8" cx="57.18" cy="189.3" r="1.36"/><circle class="cls-8" cx="56.42" cy="217.64" r="1.36"/><circle class="cls-7" cx="61.03" cy="221.88" r="8.66"/><circle class="cls-8" cx="56.42" cy="217.64" r="1.36"/><circle class="cls-7" cx="61.03" cy="238.1" r="8.66"/><circle class="cls-8" cx="91.08" cy="267.03" r="1.36"/><circle class="cls-8" cx="76.05" cy="268.26" r="1.36"/><circle class="cls-8" cx="64.77" cy="262.04" r="1.36"/><circle class="cls-8" cx="64.4" cy="248.12" r="1.36"/><circle class="cls-8" cx="57.18" cy="235.63" r="1.36"/><polygon class="cls-9" points="275.93 68.25 238.54 50.18 180.8 74.85 167.85 114.41 248.88 152.24 275.93 68.25"/><line class="cls-10" x1="167.85" y1="114.41" x2="275.93" y2="68.24"/><line class="cls-10" x1="238.54" y1="50.18" x2="250.81" y2="78.98"/><line class="cls-10" x1="217.51" y1="59.17" x2="250.81" y2="78.98"/><line class="cls-11" x1="180.8" y1="74.85" x2="192.58" y2="103.85"/><line class="cls-11" x1="248.88" y1="152.24" x2="192.58" y2="103.85"/><line class="cls-11" x1="248.44" y1="150.59" x2="250.81" y2="78.98"/><line class="cls-11" x1="192.58" y1="103.85" x2="201.14" y2="66.16"/><polygon class="cls-12" points="201.75 104.61 196.21 106.44 194.56 112.03 191.13 107.34 185.3 107.52 188.72 102.79 186.78 97.3 192.32 99.07 196.94 95.5 196.95 101.33 201.75 104.61"/><polygon class="cls-13" points="202.25 87.21 198.76 88.35 197.73 91.87 195.56 88.91 191.89 89.02 194.04 86.04 192.81 82.59 196.3 83.71 199.2 81.47 199.22 85.14 202.25 87.21"/><polygon class="cls-14" points="335.27 54.03 320.98 32.09 281.75 26.58 261.85 43.72 293.26 90.57 335.27 54.03"/><line class="cls-15" x1="261.85" y1="43.72" x2="335.27" y2="54.03"/><line class="cls-16" x1="320.98" y1="32.09" x2="318.21" y2="51.64"/><line class="cls-16" x1="306.69" y1="30.08" x2="318.21" y2="51.64"/><line class="cls-16" x1="281.75" y1="26.58" x2="278.65" y2="46.08"/><line class="cls-16" x1="293.26" y1="90.57" x2="278.65" y2="46.08"/><line class="cls-16" x1="293.56" y1="89.53" x2="318.21" y2="51.64"/><line class="cls-16" x1="278.65" y1="46.08" x2="295.57" y2="28.52"/><polygon class="cls-12" points="283.36 49.48 279.77 48.66 277.05 51.15 276.73 47.49 273.52 45.69 276.92 44.25 277.65 40.65 280.07 43.42 283.73 43 281.83 46.15 283.36 49.48"/><polygon class="cls-13" points="289.3 40.25 287.05 39.73 285.34 41.29 285.13 38.99 283.12 37.85 285.25 36.94 285.71 34.67 287.23 36.42 289.53 36.16 288.34 38.14 289.3 40.25"/><polygon class="cls-17" points="168.54 78.59 134.3 55.1 73.5 70.78 54.73 107.94 129.13 157.55 168.54 78.59"/><line class="cls-18" x1="54.73" y1="107.94" x2="168.54" y2="78.59"/><line class="cls-18" x1="134.3" y1="55.1" x2="142.09" y2="85.41"/><line class="cls-18" x1="112.15" y1="60.81" x2="142.09" y2="85.41"/><line class="cls-18" x1="73.5" y1="70.78" x2="80.77" y2="101.22"/><line class="cls-18" x1="129.13" y1="157.55" x2="80.77" y2="101.22"/><line class="cls-18" x1="128.94" y1="155.85" x2="142.09" y2="85.41"/><line class="cls-18" x1="80.77" y1="101.22" x2="94.92" y2="65.25"/><polygon class="cls-12" points="89.72 103.35 83.97 104.33 81.5 109.61 78.81 104.45 73.03 103.75 77.12 99.59 76.02 93.88 81.23 96.46 86.34 93.63 85.47 99.39 89.72 103.35"/><polygon class="cls-13" points="92.84 86.23 89.22 86.83 87.67 90.16 85.97 86.9 82.33 86.45 84.9 83.84 84.2 80.24 87.49 81.87 90.7 80.1 90.16 83.72 92.84 86.23"/><ellipse class="cls-19" cx="292.63" cy="102.94" rx="34.79" ry="34.78"/><text class="cls-20" transform="matrix(0.99, -0.15, 0.15, 0.99, 286.59, 117.39)">$</text><ellipse class="cls-19" cx="326.86" cy="159.37" rx="34.79" ry="34.78"/><text class="cls-20" transform="matrix(0.99, -0.15, 0.15, 0.99, 320.82, 173.81)">$</text><ellipse class="cls-19" cx="256.4" cy="150.43" rx="34.79" ry="34.78"/><text class="cls-20" transform="matrix(0.99, -0.15, 0.15, 0.99, 250.36, 164.88)">$</text><polygon class="cls-21" points="349.9 93.64 334.49 87.77 320.92 97.13 321.74 80.66 308.64 70.65 324.56 66.34 330.04 50.79 339.06 64.6 355.54 65 345.19 77.84 349.9 93.64"/><polygon class="cls-21" points="356.14 125.19 348.67 122.34 342.1 126.88 342.49 118.9 336.15 114.05 343.86 111.96 346.51 104.43 350.88 111.11 358.87 111.31 353.86 117.53 356.14 125.19"/><ellipse class="cls-19" cx="97.81" cy="148.56" rx="34.79" ry="34.78"/><text class="cls-20" transform="matrix(0.99, -0.15, 0.15, 0.99, 91.77, 163)">$</text><ellipse class="cls-19" cx="197.91" cy="152.24" rx="22.82" ry="22.81"/><text class="cls-22" transform="matrix(0.99, -0.15, 0.15, 0.99, 193.95, 161.71)">$</text><ellipse class="cls-19" cx="150.82" cy="154.71" rx="16.79" ry="16.79"/><text class="cls-23" transform="matrix(0.99, -0.15, 0.15, 0.99, 147.91, 161.69)">$</text><polygon class="cls-21" points="160.99 50.55 156.95 47.4 152.06 48.95 153.8 44.13 150.82 39.97 155.94 40.14 158.99 36.01 160.41 40.94 165.27 42.55 161.03 45.43 160.99 50.55"/><polygon class="cls-21" points="149.18 46.84 141.71 43.99 135.13 48.53 135.53 40.55 129.19 35.7 136.9 33.61 139.55 26.08 143.92 32.77 151.91 32.96 146.9 39.18 149.18 46.84"/><path class="cls-4" d="M767.88,433.61h81.7s0,90-40.85,77.11C808.73,510.72,762.3,528.78,767.88,433.61Z" transform="translate(-589.65 -256.57)"/><path d="M814.32,471.1l8.73,21.25H794l7.56-21.25s-11.39-17.75,7.41-17.75S814.32,471.1,814.32,471.1Z" transform="translate(-589.65 -256.57)"/></svg>
