<svg xmlns="http://www.w3.org/2000/svg" width="2799.72" height="977.79" viewBox="0 0 2799.72 977.79"><defs><style>.cls-1,.cls-18,.cls-27,.cls-33,.cls-39,.cls-45,.cls-50{fill:#366fb5;}.cls-1,.cls-10,.cls-2,.cls-3,.cls-4,.cls-5,.cls-6,.cls-7,.cls-8,.cls-9{opacity:0.9;}.cls-16,.cls-2{fill:#864d14;}.cls-19,.cls-28,.cls-3,.cls-34,.cls-40,.cls-46,.cls-51{fill:#356fb5;}.cls-12,.cls-5{fill:#010202;}.cls-12,.cls-49,.cls-5{stroke:#1d1d1b;}.cls-12,.cls-14,.cls-15,.cls-20,.cls-25,.cls-26,.cls-31,.cls-32,.cls-37,.cls-38,.cls-43,.cls-44,.cls-49,.cls-5,.cls-54{stroke-miterlimit:10;}.cls-13,.cls-14,.cls-15,.cls-20,.cls-25,.cls-26,.cls-31,.cls-32,.cls-37,.cls-38,.cls-43,.cls-44,.cls-49,.cls-54,.cls-6{fill:none;}.cls-17,.cls-7{fill:#864d13;}.cls-21,.cls-8{fill:#c89b0c;}.cls-23,.cls-29,.cls-35,.cls-41,.cls-47,.cls-52,.cls-9{fill:#2a567a;}.cls-10,.cls-24,.cls-30,.cls-36,.cls-42,.cls-48,.cls-53{fill:#10465b;}.cls-11{fill:#040505;}.cls-14,.cls-25,.cls-31,.cls-37,.cls-43{stroke:#000305;}.cls-15,.cls-26,.cls-32,.cls-38,.cls-44{stroke:#000102;}.cls-18,.cls-19,.cls-23,.cls-24{opacity:0.6;}.cls-20{stroke:#c89b0c;stroke-width:12px;}.cls-22{fill:#050403;}.cls-25,.cls-26{stroke-width:3px;}.cls-27,.cls-28,.cls-29,.cls-30{opacity:0.5;}.cls-31,.cls-32{stroke-width:3.25px;}.cls-33,.cls-34,.cls-35,.cls-36{opacity:0.2;}.cls-37,.cls-38{stroke-width:4px;}.cls-39,.cls-40,.cls-41,.cls-42{opacity:0.8;}.cls-43,.cls-44{stroke-width:2px;}.cls-45,.cls-46,.cls-47,.cls-48{opacity:0.3;}.cls-49{stroke-width:5px;}.cls-54{stroke:#050403;}</style></defs><title>Artboard 10</title><g id="_3_pasing" data-name="3 pasing"><path class="cls-1" d="M586.5,868.76,572,878.41s-19.71-49.07-34.35-52.12-.81,0-.81,0l-29.29-1S484.32,882.45,474,884.33s-1,0-1,0l-11.23-15.88s25.62-44.61,22.71-52,69.1,4.05,69.1,4.05S582.44,851.3,586.5,868.76Z"/><path class="cls-2" d="M505.74,510.52s27-4.66,36.1,8.44,8.91,16.71,17.79,12.93,12.58-12.23,24.6-8,11.89,19.35,11.89,19.35,3.09,17-6.45,19.85L529.5,549l-33.69-7.88S483.66,521.68,505.74,510.52Z"/><path class="cls-3" d="M538.43,556.22s76.14-6.46,73.64,61.56c-.22,5.81-4.62,57.41-4.9,60.15C601.79,730.32,592,799.13,578,813.19c-29.64,29.77-50.75,38.18-63.38,35.5s-60.42-38.27-56.9-109.44-7.06-127.1,13.64-167.68C471.39,571.57,482.83,551.66,538.43,556.22Z"/><path class="cls-4" d="M470.58,549.35l6.18-18.28a2.69,2.69,0,0,1,3.2-1.5L610.2,561.3A2.16,2.16,0,0,1,612,564l-6.18,18.28a2.69,2.69,0,0,1-3.2,1.5L472.35,552.06A2.17,2.17,0,0,1,470.58,549.35Z"/><ellipse class="cls-5" cx="552.22" cy="611.99" rx="9.92" ry="8.35" transform="translate(-128.9 1076.26) rotate(-82.22)"/><path class="cls-6" d="M457.87,752.43l-.27-112.31Z"/><line class="cls-6" x1="504.64" y1="719.77" x2="504.64" y2="719.78"/><line class="cls-6" x1="494.41" y1="636.6" x2="498" y2="636.81"/><path class="cls-7" d="M476.87,544.86s83.23,40.2,142.2,26.13c0,0,41.43-6.1-9.11,28.46,0,0-123.78-26.27-139.58-29.17S426.63,507.85,476.87,544.86Z"/><path class="cls-8" d="M494.63,807.53l-3.82-.22a1.25,1.25,0,0,1-1.27-1.24L498,702a1.31,1.31,0,0,1,1.45-1.08l3.82.23a1.24,1.24,0,0,1,1.27,1.24l-8.47,104.06A1.3,1.3,0,0,1,494.63,807.53Z"/><ellipse class="cls-5" cx="580.83" cy="611.04" rx="9.92" ry="8.35" transform="translate(-103.22 1103.79) rotate(-82.22)"/><path class="cls-9" d="M458.65,664.65,477,659.37s-8,75.09,105.19,66.65c0,0,45.18-1.61,36.53,9.22,0,0-11,4.18-21,1.64,0,0,24.82,2.73,23,5.88s4.48,16.64-38,20.11-160.57-39.45-124.06-98.22Z"/><path class="cls-10" d="M560.74,828.86l-10.61,8s20.41,36.74,20.41,39.14l17.15-7.19S580.34,843.23,560.74,828.86Z"/><path class="cls-11" d="M467,856.07l26.59,14.63-19.16,31.07s-1.1,16.23,20.25.86,21.26,5.62,17.82,11.2-13,25.11-16.58,26.89-46.34-11.47-48.71-24.47S443.74,893.78,467,856.07Z"/><path class="cls-11" d="M566.52,877.25l28.16-11.71L610,898.46s13.24,10.39,12.63-15,17.32-12.94,20.08-7S656.57,901.18,656,905s-37.07,28.66-49.59,22.83S585.13,917.2,566.52,877.25Z"/><ellipse class="cls-12" cx="552.55" cy="614.17" rx="9.98" ry="8.34" transform="translate(-128.24 1082.17) rotate(-82.53)"/><line class="cls-13" x1="505.05" y1="722.56" x2="505.05" y2="722.57"/><line class="cls-13" x1="494.83" y1="638.92" x2="498.42" y2="639.13"/><ellipse class="cls-12" cx="581.13" cy="613.21" rx="9.98" ry="8.34" transform="translate(-102.44 1109.67) rotate(-82.53)"/><path class="cls-14" d="M513.36,678.65l-.11,5.93s-68.58,9.11-11,28.55l21,1.23-.17,9.89s-40.79-.47-36.64-12.29l-9.07-8s-36,27.27,43,27.19l-.1,5.93s-50.12,6.34-38.06-6.37l-15.67-7.1s-38.8,37.12,56.26,19.43L524,751s-43.71,16.31-40.79-.47l-18.39-2.18s-7.09,29.58,59,11.55l4,0,1.39-81.06Z"/><path class="cls-14" d="M551.17,679.61l-.1,5.9s63.51,10.57,9.31,28.65l-19.61.76-.17,9.84s38,.43,34.49-11.42l8.71-7.77s32.59,27.93-40.86,26.11l-.11,5.9s46.42,7.42,35.61-5.5l14.82-6.72s34.87,37.8-53,18.1l-1.35,7.86s40.12,17.19,38,.43L594.06,750s5.62,29.59-55.29,10.19l-3.67,0,1.38-80.69Z"/><path class="cls-14" d="M573.88,654.33s9.07,14.86,5.67,18.77-76,10.16-80.58,0,2.27-19.55,2.27-19.55-26.1-.78-26.1-6.26v-8.6s-32.92-11.72,4.54-50,111.22-10.17,114.62-2.35c0,0,32.92,23.46,6.81,52.38l-2.27,7.82S597.71,651.2,573.88,654.33Z"/><ellipse class="cls-12" cx="581.15" cy="613.49" rx="9.25" ry="8.72" transform="translate(-208.19 311.75) rotate(-25.63)"/><ellipse class="cls-12" cx="552.72" cy="613.96" rx="9.25" ry="8.72" transform="translate(-211.19 299.5) rotate(-25.63)"/><path class="cls-14" d="M536.84,796.75s6.85-20,21.52-9c0,0-3.91,11-20.54,11s-25.42-2-25.42-2-22.49-9-6.85-14,16.63,14,16.63,14Z"/><path class="cls-15" d="M557.64,834.16s15.27-7.86-3.06-11.43-12.22,16.43-5.09,13.57,13.24,30,13.24,30a15.1,15.1,0,0,0,18.33-1.43S603.47,857,576,852.73Z"/><path class="cls-15" d="M496.16,828.93s12.87,7.74,7.68-7.78-18.29-1.34-12.92,2.67-17.86,24.33-17.86,24.33-1.07,10,9.13,13.13c0,0,16,13.11,7.35-9.65Z"/><path class="cls-14" d="M520.18,762.25s-11.63,6,3.17,9c0,0-6.34-3-6.34,8l9.51,7-19-14s-44.39,2-14.79,33.07,35.93,12,35.93,12l5.29-1s2.11,11,14.79,3,28.54-25,28.54-25,3.17-16-19-21.05c0,0-11.62,1-25.36,13,0,0,10.57-10,11.62-9s-2.11-10-8.45-6c0,0,16.91-7,0-10Z"/><path class="cls-16" d="M506.15,511.14s26.92-4.7,36,8.51,8.9,16.84,17.76,13,12.56-12.33,24.57-8.11,11.87,19.5,11.87,19.5,3.09,17.1-6.44,20L529.87,549.9,496.23,542S484.1,522.39,506.15,511.14Z"/><path d="M471,550.28l6.18-18.42a2.67,2.67,0,0,1,3.19-1.52l130.05,32a2.18,2.18,0,0,1,1.77,2.73l-6.17,18.42a2.67,2.67,0,0,1-3.19,1.51L472.8,553A2.2,2.2,0,0,1,471,550.28Z"/><path class="cls-17" d="M477.32,545.75s83.11,40.52,142,26.35c0,0,41.37-6.15-9.1,28.68,0,0-123.59-26.48-139.37-29.4S427.15,508.45,477.32,545.75Z"/><path class="cls-11" d="M465,857.7l26.63,14.55-19.19,30.9s-1.1,16.13,20.28.84,21.29,5.59,17.84,11.15-13,25-16.6,26.73-46.4-11.4-48.78-24.33S441.75,895.2,465,857.7Z"/><path class="cls-11" d="M566.78,876.69,595,865.05l15.36,32.73S623.6,908.11,623,882.9s17.35-12.87,20.11-7,13.86,24.57,13.28,28.32-37.13,28.5-49.67,22.7S585.41,916.41,566.78,876.69Z"/><path class="cls-16" d="M506.32,510.52s27-4.66,36.09,8.44,8.91,16.71,17.79,12.93,12.58-12.23,24.61-8,11.88,19.35,11.88,19.35,3.09,17-6.45,19.85L530.07,549l-33.69-7.88S484.23,521.68,506.32,510.52Z"/><path d="M471.15,549.35l6.18-18.28a2.7,2.7,0,0,1,3.2-1.5L610.78,561.3a2.18,2.18,0,0,1,1.77,2.71l-6.19,18.28a2.69,2.69,0,0,1-3.19,1.5L472.92,552.06A2.18,2.18,0,0,1,471.15,549.35Z"/><ellipse class="cls-12" cx="552.79" cy="611.99" rx="9.92" ry="8.35" transform="translate(-128.41 1076.83) rotate(-82.22)"/><line class="cls-13" x1="505.21" y1="719.77" x2="505.21" y2="719.78"/><line class="cls-13" x1="494.98" y1="636.6" x2="498.57" y2="636.81"/><path class="cls-17" d="M477.45,544.86s83.23,40.2,142.2,26.13c0,0,41.42-6.1-9.11,28.46,0,0-123.79-26.27-139.59-29.17S427.2,507.85,477.45,544.86Z"/><ellipse class="cls-12" cx="581.41" cy="611.04" rx="9.92" ry="8.35" transform="translate(-102.73 1104.36) rotate(-82.22)"/><path class="cls-18" d="M1290.25,869l-15.44,9.59s-21-48.78-36.64-51.81-.87,0-.87,0l-31.24-1s-24.81,56.84-35.84,58.71-1.06,0-1.06,0l-12-15.79s27.33-44.34,24.22-51.71,73.72,4,73.72,4S1285.92,851.64,1290.25,869Z"/><path class="cls-11" d="M1162.26,852.84l28.4,14.47L1170.2,898s-1.18,16,21.63.85,22.71,5.55,19,11.07-13.89,24.82-17.71,26.58-49.5-11.34-52-24.19S1137.42,890.12,1162.26,852.84Z"/><path class="cls-11" d="M1268.6,873.79l30.09-11.58,16.38,32.54s14.15,10.26,13.51-14.8,18.5-12.79,21.44-6.94,14.79,24.42,14.18,28.15-39.61,28.33-53,22.57S1288.48,913.27,1268.6,873.79Z"/><path class="cls-19" d="M1239,559.69s81.23-6.42,78.56,61.2c-.23,5.77-4.93,57.06-5.23,59.79-5.74,52.08-16.14,120.48-31.08,134.47-31.63,29.59-54.14,37.94-67.62,35.29s-64.45-38.05-60.7-108.81-7.53-126.34,14.55-166.68C1167.45,575,1179.66,555.16,1239,559.69Z"/><ellipse class="cls-20" cx="1139.75" cy="715.31" rx="68.18" ry="58.24" transform="translate(236.93 1713.1) rotate(-79.97)"/><polygon class="cls-21" points="1074 837.01 1065.92 836.57 1077.35 705.9 1085.43 706.34 1074 837.01"/><polygon class="cls-16" points="1076.17 837.13 1063.74 836.45 1067.46 793.92 1079.89 794.6 1076.17 837.13"/><path class="cls-13" d="M1155.55,762.05l-.29-115.67Z"/><line class="cls-13" x1="1202.92" y1="720.88" x2="1202.92" y2="720.89"/><line class="cls-13" x1="1192.01" y1="638.2" x2="1195.84" y2="638.41"/><path class="cls-21" d="M1192.24,808.12l-4.07-.22a1.27,1.27,0,0,1-1.35-1.23l9-103.45a1.38,1.38,0,0,1,1.55-1.08l4.07.23a1.27,1.27,0,0,1,1.35,1.23l-9,103.45A1.39,1.39,0,0,1,1192.24,808.12Z"/><polygon class="cls-22" points="1078.81 806.99 1066.38 806.31 1066.9 800.39 1079.33 801.07 1078.81 806.99"/><path class="cls-23" d="M1153.86,666.09l19.61-5.25s-8.51,74.65,112.21,66.26c0,0,48.2-1.6,39,9.16,0,0-11.71,4.16-22.4,1.63,0,0,26.49,2.72,24.5,5.84s4.78,16.54-40.54,20-171.31-39.22-132.36-97.64Z"/><path class="cls-24" d="M1261.74,829.32l-11.39,7.17s21.9,33,21.9,35.13l18.39-6.45S1282.76,842.23,1261.74,829.32Z"/><line class="cls-13" x1="1203.87" y1="724.36" x2="1203.87" y2="724.38"/><line class="cls-13" x1="1194.1" y1="641.5" x2="1197.67" y2="641.73"/><path class="cls-25" d="M1212.35,680.94l-.13,5.87s-68.32,8.68-11.1,28.21l20.93,1.32-.22,9.78s-40.6-.66-36.41-12.34l-9-8s-36,26.82,42.64,27.12l-.13,5.87s-49.92,6-37.85-6.49l-15.57-7.1s-38.81,36.57,55.91,19.51l1.14,7.85s-43.6,15.93-40.61-.66l-18.29-2.26s-7.2,29.25,58.7,11.73l3.93.06,1.78-80.25Z"/><path class="cls-25" d="M1250,682.06l-.13,5.85s63.17,10.77,9.13,28.41l-19.53.66-.21,9.74s37.79.61,34.39-11.14l8.7-7.65s32.31,27.81-40.8,25.65l-.13,5.84s46.17,7.57,35.48-5.27l14.77-6.58s34.54,37.59-52.82,17.66l-1.39,7.77s39.86,17.22,37.79.62l17.11-1.68s5.44,29.33-55.09,9.83l-3.66-.06,1.76-79.88Z"/><path class="cls-25" d="M1272.72,657.15s9,14.75,5.56,18.61-75.75,9.69-80.22-.4,2.35-19.34,2.35-19.34-26-.9-26-6.32l0-8.51s-32.71-11.77,4.76-49.52,110.78-9.52,114.13-1.76c0,0,32.66,23.38,6.53,51.89l-2.3,7.73S1296.47,654.17,1272.72,657.15Z"/><path class="cls-25" d="M1235.17,798s6.91-19.81,21.46-8.82c0,0-4,10.89-20.5,10.81s-25.3-2.11-25.3-2.11-22.35-9-6.75-13.92,16.49,14,16.49,14Z"/><path class="cls-26" d="M1255.69,835.11s15.24-7.7-3-11.33-12.25,16.21-5.14,13.41,13,29.78,13,29.78a15.1,15.1,0,0,0,18.26-1.33s22.34-7.67-5-12Z"/><path class="cls-26" d="M1194.51,829.63s12.77,7.73,7.68-7.66-18.2-1.41-12.88,2.58-17.9,24-17.9,24-1.1,9.88,9,13c0,0,15.85,13.06,7.36-9.51Z"/><path class="cls-25" d="M1218.74,763.73s-11.6,5.9,3.11,8.95c0,0-6.3-3-6.35,7.91l9.44,7-18.88-14s-44.2,1.77-14.89,32.67,35.72,12.09,35.72,12.09l5.27-1s2,10.92,14.71,3,28.53-24.67,28.53-24.67,3.24-15.86-18.83-20.93c0,0-11.58.94-25.32,12.78,0,0,10.57-9.87,11.62-8.87s-2.06-9.94-8.39-6c0,0,16.87-6.86,0-9.92Z"/><line class="cls-13" x1="1204.05" y1="721.6" x2="1204.05" y2="721.61"/><line class="cls-13" x1="1194.26" y1="639.21" x2="1197.84" y2="639.44"/><path class="cls-16" d="M1204.1,512.87s28.77-4.63,38.51,8.39,9.51,16.61,19,12.86,13.43-12.17,26.26-8,12.67,19.23,12.67,19.23,3.3,16.86-6.88,19.73l-64.19-14-35.94-7.83S1180.54,524,1204.1,512.87Z"/><path d="M1166.58,551.47l6.6-18.17a2.93,2.93,0,0,1,3.41-1.49l139,31.54c1.46.33,2.31,1.54,1.89,2.7l-6.6,18.16a2.93,2.93,0,0,1-3.41,1.49l-139-31.54C1167,553.83,1166.17,552.62,1166.58,551.47Z"/><path class="cls-17" d="M1173.3,547s88.79,40,151.7,26c0,0,44.2-6.07-9.71,28.28,0,0-132.06-26.11-148.91-29S1119.7,510.22,1173.3,547Z"/><path class="cls-27" d="M1644.23,865.42l-15.44,9.6s-21-48.79-36.64-51.82-.87,0-.87,0l-31.24-1S1535.23,879,1524.2,880.9s-1.06,0-1.06,0l-12-15.79s27.33-44.34,24.22-51.71,73.72,4,73.72,4S1639.9,848.07,1644.23,865.42Z"/><path class="cls-11" d="M1516.24,855.27l28.4,14.47-20.47,30.71s-1.17,16,21.63.85,22.72,5.55,19,11.07S1551,937.19,1547.13,939s-49.51-11.34-52-24.18S1491.4,892.55,1516.24,855.27Z"/><path class="cls-11" d="M1622.58,875.22l30.09-11.58,16.38,32.54s14.15,10.26,13.5-14.8,18.5-12.79,21.45-6.94,14.79,24.42,14.17,28.15-39.61,28.33-53,22.57S1642.46,914.7,1622.58,875.22Z"/><path class="cls-28" d="M1592.94,554.73s81.24-6.42,78.57,61.19c-.23,5.78-4.93,57.07-5.23,59.8-5.74,52.08-16.14,120.48-31.08,134.46-31.63,29.59-54.14,38-67.62,35.29s-64.45-38.05-60.7-108.8-7.53-126.34,14.55-166.68C1521.43,570,1533.64,550.2,1592.94,554.73Z"/><ellipse class="cls-20" cx="1493.73" cy="711.74" rx="68.18" ry="58.24" transform="translate(532.79 2058.73) rotate(-79.97)"/><polygon class="cls-21" points="1427.98 834.45 1419.9 834 1431.33 703.33 1439.4 703.77 1427.98 834.45"/><polygon class="cls-16" points="1430.15 834.56 1417.72 833.88 1421.44 791.35 1433.87 792.03 1430.15 834.56"/><path class="cls-13" d="M1509.53,758.48l-.29-115.67Z"/><line class="cls-13" x1="1556.9" y1="717.31" x2="1556.9" y2="717.32"/><line class="cls-13" x1="1545.99" y1="634.63" x2="1549.82" y2="634.84"/><path class="cls-21" d="M1546.22,804.55l-4.07-.22a1.27,1.27,0,0,1-1.35-1.23l9-103.45a1.39,1.39,0,0,1,1.56-1.07l4.07.22a1.27,1.27,0,0,1,1.35,1.23l-9,103.45A1.37,1.37,0,0,1,1546.22,804.55Z"/><polygon class="cls-22" points="1432.79 804.42 1420.36 803.74 1420.88 797.82 1433.31 798.5 1432.79 804.42"/><path class="cls-29" d="M1507.84,662.52l19.6-5.25s-8.5,74.65,112.22,66.26c0,0,48.2-1.6,39,9.16,0,0-11.71,4.16-22.4,1.63,0,0,26.49,2.72,24.5,5.85s4.78,16.53-40.55,20-171.3-39.22-132.35-97.64Z"/><path class="cls-30" d="M1615.72,825.76l-11.39,7.16s21.9,33,21.9,35.13l18.39-6.45S1636.74,838.66,1615.72,825.76Z"/><line class="cls-13" x1="1559.56" y1="721.36" x2="1559.56" y2="721.38"/><line class="cls-13" x1="1549.79" y1="638.51" x2="1553.36" y2="638.73"/><path class="cls-31" d="M1568,677.94l-.13,5.87s-68.33,8.68-11.11,28.21l20.94,1.32-.22,9.78s-40.6-.66-36.41-12.34l-9-8s-36,26.82,42.64,27.12l-.13,5.87s-49.92,6-37.85-6.49l-15.57-7.1s-38.81,36.57,55.91,19.51l1.14,7.85s-43.6,15.93-40.61-.66l-18.29-2.26s-7.2,29.25,58.7,11.73l3.93.06,1.78-80.25Z"/><path class="cls-31" d="M1605.69,679.07l-.13,5.84s63.17,10.77,9.13,28.41l-19.53.66-.21,9.74s37.79.61,34.39-11.14l8.7-7.65s32.31,27.81-40.81,25.65l-.12,5.84s46.17,7.58,35.47-5.27l14.78-6.58s34.54,37.59-52.82,17.66l-1.39,7.77s39.86,17.22,37.79.62L1648,749s5.45,29.32-55.09,9.82l-3.65-.06,1.76-79.88Z"/><path class="cls-31" d="M1628.41,654.15s9,14.75,5.56,18.61-75.75,9.69-80.22-.39S1556.1,653,1556.1,653s-26-.9-26-6.32l0-8.51s-32.72-11.77,4.76-49.52,110.78-9.52,114.13-1.76c0,0,32.65,23.38,6.53,51.89l-2.3,7.73S1652.16,651.17,1628.41,654.15Z"/><path class="cls-31" d="M1590.86,795s6.91-19.81,21.46-8.82c0,0-4,10.89-20.5,10.81s-25.3-2.11-25.3-2.11-22.35-9-6.75-13.92,16.48,14,16.48,14Z"/><path class="cls-32" d="M1611.37,832.11s15.25-7.7-3-11.33-12.25,16.21-5.14,13.42,13,29.77,13,29.77a15.1,15.1,0,0,0,18.26-1.33s22.34-7.67-5-12Z"/><path class="cls-32" d="M1550.2,826.63s12.77,7.73,7.68-7.66-18.2-1.41-12.88,2.58-17.9,24-17.9,24-1.11,9.88,9,13c0,0,15.85,13,7.36-9.52Z"/><path class="cls-31" d="M1574.43,760.73s-11.61,5.9,3.11,8.95c0,0-6.3-3-6.35,7.91l9.43,7-18.87-14s-44.2,1.76-14.89,32.67,35.72,12.08,35.72,12.08l5.26-1s2.06,10.93,14.72,3,28.53-24.67,28.53-24.67,3.24-15.86-18.84-20.93c0,0-11.58.94-25.31,12.78,0,0,10.57-9.87,11.62-8.87s-2.06-9.94-8.39-6c0,0,16.87-6.86,0-9.92Z"/><line class="cls-13" x1="1559.74" y1="718.6" x2="1559.74" y2="718.62"/><line class="cls-13" x1="1549.95" y1="636.21" x2="1553.53" y2="636.44"/><path class="cls-33" d="M2341.42,868.44,2326,878s-21-48.79-36.64-51.82-.87,0-.87,0l-31.24-1s-24.81,56.84-35.84,58.71-1.06,0-1.06,0l-12-15.79s27.33-44.34,24.22-51.71,73.72,4,73.72,4S2337.09,851.09,2341.42,868.44Z"/><path class="cls-11" d="M2213.42,852.29l28.41,14.47-20.47,30.71s-1.17,16,21.63.85,22.72,5.55,19,11.08-13.9,24.81-17.71,26.57-49.51-11.34-52-24.18S2188.59,889.57,2213.42,852.29Z"/><path class="cls-11" d="M2319.77,873.24l30.09-11.58,16.38,32.54s14.15,10.26,13.5-14.8,18.5-12.79,21.45-6.94,14.79,24.42,14.17,28.15-39.61,28.33-53,22.57S2339.65,912.72,2319.77,873.24Z"/><path class="cls-34" d="M2290.13,557.75s81.24-6.42,78.57,61.19c-.23,5.78-4.93,57.07-5.23,59.8-5.74,52.08-16.14,120.48-31.08,134.46-31.63,29.59-54.14,37.95-67.62,35.29s-64.45-38-60.7-108.8-7.53-126.34,14.54-166.68C2218.61,573,2230.83,553.22,2290.13,557.75Z"/><ellipse class="cls-20" cx="2190.91" cy="714.76" rx="68.18" ry="58.24" transform="translate(1105.62 2747.76) rotate(-79.97)"/><polygon class="cls-21" points="2125.17 841.47 2117.09 841.02 2128.51 710.35 2136.59 710.79 2125.17 841.47"/><polygon class="cls-16" points="2127.34 841.58 2114.91 840.9 2118.63 798.37 2131.06 799.05 2127.34 841.58"/><path class="cls-13" d="M2206.72,761.5l-.3-115.67Z"/><line class="cls-13" x1="2254.09" y1="720.33" x2="2254.09" y2="720.34"/><line class="cls-13" x1="2243.17" y1="637.66" x2="2247.01" y2="637.87"/><path class="cls-21" d="M2243.41,807.58l-4.07-.23a1.27,1.27,0,0,1-1.35-1.23l9-103.45a1.38,1.38,0,0,1,1.56-1.07l4.07.22a1.28,1.28,0,0,1,1.35,1.23l-9,103.45A1.38,1.38,0,0,1,2243.41,807.58Z"/><polygon class="cls-22" points="2129.98 811.44 2117.55 810.76 2118.06 804.84 2130.49 805.52 2129.98 811.44"/><path class="cls-35" d="M2205,665.54l19.6-5.25s-8.5,74.65,112.22,66.26c0,0,48.2-1.6,39,9.16,0,0-11.7,4.16-22.39,1.63,0,0,26.49,2.72,24.5,5.85s4.78,16.53-40.55,20S2166.08,724,2205,665.54Z"/><path class="cls-36" d="M2312.9,828.78l-11.38,7.16s21.89,33,21.89,35.13l18.4-6.45S2333.92,841.68,2312.9,828.78Z"/><line class="cls-13" x1="2256.18" y1="716.41" x2="2256.17" y2="716.42"/><line class="cls-13" x1="2246.41" y1="633.55" x2="2249.98" y2="633.77"/><path class="cls-37" d="M2264.66,673l-.13,5.87s-68.33,8.68-11.11,28.21l20.94,1.32-.22,9.79s-40.6-.66-36.41-12.34l-9-8s-36,26.82,42.64,27.12l-.13,5.88s-49.93,6-37.86-6.49l-15.56-7.11s-38.81,36.57,55.91,19.51l1.13,7.85s-43.59,15.93-40.6-.66L2216,741.69s-7.21,29.25,58.7,11.73l3.93.06,1.78-80.24Z"/><path class="cls-37" d="M2302.31,674.11l-.13,5.84s63.17,10.77,9.13,28.41l-19.53.66-.21,9.74s37.78.61,34.38-11.14l8.71-7.65s32.31,27.81-40.81,25.65l-.13,5.85s46.17,7.57,35.48-5.28l14.78-6.58s34.53,37.59-52.82,17.66l-1.39,7.78s39.86,17.21,37.78.61l17.11-1.67s5.45,29.32-55.09,9.82l-3.66-.06,1.77-79.88Z"/><path class="cls-37" d="M2325,649.19s9,14.76,5.56,18.61-75.75,9.69-80.22-.39,2.35-19.34,2.35-19.34-26-.91-26-6.32l0-8.52s-32.71-11.77,4.77-49.52,110.78-9.52,114.13-1.76c0,0,32.65,23.38,6.52,51.9l-2.29,7.72S2348.77,646.21,2325,649.19Z"/><path class="cls-37" d="M2287.47,790s6.92-19.81,21.46-8.82c0,0-3.94,10.89-20.49,10.81s-25.3-2.1-25.3-2.1-22.35-9-6.75-13.93,16.48,14,16.48,14Z"/><path class="cls-38" d="M2308,827.15s15.25-7.7-3-11.33-12.25,16.21-5.14,13.42,13,29.77,13,29.77a15.09,15.09,0,0,0,18.25-1.33s22.35-7.67-5-12Z"/><path class="cls-38" d="M2246.82,821.67s12.77,7.73,7.67-7.65-18.2-1.42-12.87,2.57-17.9,24-17.9,24-1.11,9.88,9,13c0,0,15.84,13.06,7.36-9.52Z"/><path class="cls-37" d="M2271.05,755.78s-11.61,5.89,3.11,8.94c0,0-6.3-3-6.35,7.91l9.43,7-18.87-14s-44.2,1.76-14.89,32.67,35.72,12.08,35.72,12.08l5.26-1s2.05,10.93,14.72,3.05,28.53-24.67,28.53-24.67,3.23-15.86-18.84-20.92c0,0-11.58.93-25.31,12.77,0,0,10.57-9.87,11.61-8.87s-2.05-9.93-8.38-6c0,0,16.86-6.86,0-9.92Z"/><line class="cls-13" x1="2256.36" y1="713.64" x2="2256.35" y2="713.66"/><line class="cls-13" x1="2246.57" y1="631.25" x2="2250.15" y2="631.48"/><path class="cls-16" d="M2255.27,512.32s28.76-4.63,38.5,8.39,9.51,16.61,19,12.86,13.42-12.17,26.25-8,12.68,19.23,12.68,19.23,3.3,16.87-6.88,19.74l-64.19-14-35.94-7.83S2231.71,523.41,2255.27,512.32Z"/><path d="M2217.75,550.92l6.6-18.17a2.93,2.93,0,0,1,3.41-1.49l138.95,31.54c1.45.33,2.3,1.55,1.89,2.7l-6.6,18.16a2.93,2.93,0,0,1-3.41,1.49l-139-31.54C2218.18,553.28,2217.33,552.07,2217.75,550.92Z"/><path class="cls-17" d="M2224.47,546.46s88.79,40,151.7,26c0,0,44.2-6.07-9.72,28.28,0,0-132-26.11-148.91-29S2170.87,509.67,2224.47,546.46Z"/><path class="cls-11" d="M2562.32,852.73l28.41,14.46-20.47,30.71s-1.18,16,21.63.85,22.71,5.55,19,11.08-13.89,24.81-17.7,26.57-49.51-11.34-52-24.18S2537.48,890,2562.32,852.73Z"/><path class="cls-11" d="M2668.66,873.67l30.09-11.58,16.39,32.54s14.14,10.27,13.5-14.8,18.5-12.79,21.44-6.94,14.79,24.42,14.18,28.15-39.61,28.33-53,22.57S2688.55,913.15,2668.66,873.67Z"/><ellipse class="cls-20" cx="2539.81" cy="715.19" rx="68.18" ry="58.24" transform="matrix(0.17, -0.98, 0.98, 0.17, 1393.34, 3091.68)"/><polygon class="cls-21" points="2474.06 837.89 2465.98 837.45 2477.41 706.78 2485.49 707.23 2474.06 837.89"/><polygon class="cls-16" points="2476.24 838.01 2463.81 837.34 2467.53 794.8 2479.96 795.48 2476.24 838.01"/><path class="cls-13" d="M2555.61,761.93l-.29-115.67Z"/><line class="cls-13" x1="2602.99" y1="720.76" x2="2602.99" y2="720.77"/><line class="cls-13" x1="2592.07" y1="638.09" x2="2595.9" y2="638.3"/><path class="cls-21" d="M2591.3,808l-4.06-.23a1.28,1.28,0,0,1-1.36-1.23l9-103.45a1.37,1.37,0,0,1,1.55-1.07l4.07.22a1.27,1.27,0,0,1,1.35,1.23l-9,103.45A1.39,1.39,0,0,1,2591.3,808Z"/><polygon class="cls-22" points="2478.87 807.87 2466.44 807.19 2466.96 801.27 2479.39 801.95 2478.87 807.87"/><line class="cls-13" x1="2605.07" y1="716.84" x2="2605.07" y2="716.85"/><line class="cls-13" x1="2595.3" y1="633.98" x2="2598.87" y2="634.2"/><path class="cls-37" d="M2613.56,673.41l-.13,5.87s-68.33,8.68-11.11,28.21l20.93,1.32-.21,9.79s-40.61-.66-36.42-12.34l-9-8s-36,26.82,42.63,27.12l-.13,5.88s-49.92,6-37.85-6.49l-15.57-7.11s-38.81,36.57,55.91,19.51l1.14,7.85s-43.59,15.93-40.6-.66l-18.3-2.26s-7.2,29.26,58.7,11.73l3.93.06,1.78-80.24Z"/><path class="cls-37" d="M2651.2,674.54l-.13,5.84s63.17,10.77,9.13,28.41l-19.52.66-.22,9.74s37.79.61,34.39-11.13l8.71-7.66s32.3,27.81-40.81,25.65l-.13,5.85s46.17,7.57,35.48-5.28l14.78-6.58s34.53,37.59-52.83,17.66l-1.39,7.78s39.86,17.21,37.79.61l17.11-1.67s5.45,29.32-55.09,9.82l-3.66-.06,1.76-79.88Z"/><path class="cls-37" d="M2673.93,649.62s9,14.76,5.55,18.61-75.75,9.69-80.22-.39,2.36-19.34,2.36-19.34-26-.91-26-6.32l0-8.52s-32.71-11.77,4.76-49.52,110.78-9.52,114.13-1.76c0,0,32.66,23.38,6.53,51.9l-2.3,7.73S2697.67,646.64,2673.93,649.62Z"/><path class="cls-37" d="M2636.37,790.44s6.91-19.81,21.46-8.82c0,0-3.95,10.89-20.5,10.81s-25.3-2.1-25.3-2.1-22.34-9-6.74-13.93,16.48,14,16.48,14Z"/><path class="cls-38" d="M2656.89,827.58s15.25-7.7-3-11.33-12.25,16.21-5.13,13.42,13,29.77,13,29.77a15.11,15.11,0,0,0,18.26-1.32s22.34-7.68-5-12Z"/><path class="cls-38" d="M2595.71,822.11s12.78,7.72,7.68-7.66-18.2-1.42-12.88,2.57-17.9,24-17.9,24-1.1,9.88,9,13c0,0,15.85,13.06,7.36-9.52Z"/><path class="cls-37" d="M2619.94,756.21s-11.6,5.89,3.11,8.94c0,0-6.29-3-6.35,7.91l9.44,7-18.87-14s-44.2,1.76-14.89,32.67,35.71,12.08,35.71,12.08l5.27-1s2,10.93,14.71,3,28.53-24.67,28.53-24.67,3.24-15.85-18.83-20.92c0,0-11.58.93-25.32,12.77,0,0,10.57-9.87,11.62-8.87s-2.06-9.93-8.39-6c0,0,16.87-6.86.05-9.92Z"/><line class="cls-13" x1="2605.25" y1="714.07" x2="2605.25" y2="714.09"/><line class="cls-13" x1="2595.47" y1="631.68" x2="2599.04" y2="631.91"/><path class="cls-16" d="M2604.16,512.75s28.77-4.63,38.51,8.39,9.51,16.61,19,12.86,13.42-12.17,26.25-8,12.67,19.23,12.67,19.23,3.3,16.87-6.88,19.74l-64.18-14-35.94-7.83S2580.61,523.84,2604.16,512.75Z"/><path d="M2566.65,551.35l6.59-18.17a2.93,2.93,0,0,1,3.41-1.49l138.95,31.54c1.46.33,2.31,1.55,1.89,2.7l-6.6,18.16a2.9,2.9,0,0,1-3.4,1.49l-139-31.54C2567.08,553.71,2566.23,552.5,2566.65,551.35Z"/><path class="cls-17" d="M2573.36,546.89s88.8,40,151.71,26c0,0,44.19-6.07-9.72,28.28,0,0-132-26.1-148.91-29S2519.76,510.1,2573.36,546.89Z"/><path class="cls-39" d="M940.59,869.45l-15.44,9.6s-21-48.79-36.64-51.82-.87,0-.87,0l-31.24-1s-24.81,56.84-35.84,58.71-1.06,0-1.06,0l-12-15.79s27.33-44.34,24.22-51.7,73.72,4,73.72,4S936.26,852.1,940.59,869.45Z"/><path class="cls-11" d="M812.6,853.31,841,867.77l-20.46,30.72s-1.18,16,21.63.84,22.71,5.56,19,11.08S847.31,935.23,843.49,937s-49.5-11.34-52-24.18S787.76,890.58,812.6,853.31Z"/><path class="cls-11" d="M918.94,874.25,949,862.68l16.38,32.53s14.15,10.27,13.51-14.79,18.5-12.79,21.44-6.95,14.79,24.42,14.18,28.15-39.61,28.33-53,22.57S938.82,913.73,918.94,874.25Z"/><path class="cls-40" d="M889.31,558.76s81.23-6.42,78.56,61.2c-.23,5.77-4.93,57.06-5.23,59.79-5.74,52.08-16.14,120.48-31.08,134.47-31.63,29.59-54.14,37.94-67.62,35.29s-64.45-38-60.7-108.8S795.71,614.36,817.79,574C817.79,574,830,554.23,889.31,558.76Z"/><ellipse class="cls-20" cx="790.09" cy="715.77" rx="68.18" ry="58.24" transform="translate(-52.31 1369.17) rotate(-79.97)"/><polygon class="cls-21" points="724.34 838.48 716.26 838.04 727.69 707.37 735.77 707.81 724.34 838.48"/><polygon class="cls-16" points="726.51 838.6 714.08 837.92 717.8 795.38 730.23 796.06 726.51 838.6"/><path class="cls-13" d="M805.89,762.52l-.29-115.68Z"/><line class="cls-13" x1="853.26" y1="721.34" x2="853.26" y2="721.35"/><line class="cls-13" x1="842.35" y1="638.67" x2="846.18" y2="638.88"/><path class="cls-21" d="M842.58,808.59l-4.07-.23a1.27,1.27,0,0,1-1.35-1.23l9-103.45a1.37,1.37,0,0,1,1.55-1.07l4.07.22a1.28,1.28,0,0,1,1.35,1.23l-9,103.45A1.4,1.4,0,0,1,842.58,808.59Z"/><polygon class="cls-22" points="729.15 808.45 716.72 807.77 717.24 801.85 729.67 802.53 729.15 808.45"/><path class="cls-41" d="M804.2,666.55l19.61-5.24S815.3,736,936,727.56c0,0,48.2-1.6,39,9.16,0,0-11.71,4.16-22.4,1.63,0,0,26.49,2.72,24.5,5.85s4.78,16.54-40.54,20S765.25,725,804.2,666.55Z"/><path class="cls-42" d="M912.08,829.79,900.69,837s21.9,33,21.9,35.12L941,865.63S933.1,842.69,912.08,829.79Z"/><line class="cls-13" x1="702.14" y1="927.63" x2="705.98" y2="927.84"/><line class="cls-13" x1="854.21" y1="722.55" x2="854.21" y2="722.56"/><line class="cls-13" x1="844.44" y1="639.69" x2="848.01" y2="639.92"/><path class="cls-43" d="M862.69,679.12l-.13,5.87s-68.32,8.68-11.1,28.21l20.93,1.32-.22,9.79s-40.6-.66-36.41-12.34l-9-8s-36,26.82,42.64,27.13l-.13,5.87s-49.92,6-37.85-6.49l-15.57-7.11S777,760,871.76,742.9l1.14,7.85s-43.6,15.93-40.61-.66L814,747.84s-7.2,29.25,58.7,11.72l3.93.06,1.78-80.24Z"/><path class="cls-43" d="M900.34,680.25l-.13,5.84s63.17,10.77,9.13,28.41l-19.53.66-.21,9.74s37.79.62,34.39-11.13l8.7-7.66s32.31,27.81-40.8,25.65l-.13,5.85s46.17,7.57,35.48-5.27L942,725.75s34.54,37.6-52.82,17.66l-1.39,7.78s39.86,17.21,37.79.61l17.11-1.67s5.44,29.32-55.09,9.83L884,759.9,885.71,680Z"/><path class="cls-43" d="M923.06,655.34s9,14.75,5.56,18.6-75.75,9.69-80.22-.39,2.35-19.34,2.35-19.34-26-.9-26-6.32l0-8.52s-32.71-11.77,4.76-49.51,110.78-9.53,114.13-1.77c0,0,32.66,23.38,6.53,51.9l-2.3,7.73S946.81,652.36,923.06,655.34Z"/><path class="cls-43" d="M885.51,796.16s6.91-19.81,21.46-8.83c0,0-4,10.9-20.5,10.82s-25.3-2.11-25.3-2.11-22.35-9-6.75-13.93,16.49,14,16.49,14Z"/><path class="cls-44" d="M906,833.3s15.24-7.71-3-11.34-12.25,16.21-5.14,13.42,13,29.77,13,29.77a15.11,15.11,0,0,0,18.26-1.32s22.34-7.68-5-12.05Z"/><path class="cls-44" d="M844.85,827.82s12.77,7.73,7.68-7.66-18.2-1.42-12.88,2.57-17.9,24-17.9,24-1.1,9.88,9,13c0,0,15.85,13.06,7.36-9.52Z"/><path class="cls-43" d="M869.08,761.92s-11.6,5.89,3.11,8.94c0,0-6.3-3-6.35,7.91l9.44,7-18.88-14s-44.2,1.77-14.89,32.67,35.72,12.08,35.72,12.08l5.27-1s2,10.93,14.71,3.05S925.74,794,925.74,794,929,778.09,906.91,773c0,0-11.58.93-25.32,12.77,0,0,10.57-9.87,11.62-8.87s-2.06-9.93-8.39-6c0,0,16.87-6.86,0-9.92Z"/><line class="cls-13" x1="854.39" y1="719.79" x2="854.39" y2="719.8"/><line class="cls-13" x1="844.6" y1="637.4" x2="848.18" y2="637.62"/><path class="cls-16" d="M854.44,513.34s28.77-4.64,38.51,8.39,9.51,16.6,19,12.85,13.43-12.16,26.26-8,12.67,19.23,12.67,19.23,3.3,16.87-6.88,19.74l-64.19-14-35.94-7.83S830.88,524.43,854.44,513.34Z"/><path d="M816.92,551.93l6.6-18.16a2.92,2.92,0,0,1,3.41-1.5l139,31.55c1.46.33,2.31,1.54,1.89,2.69l-6.6,18.16a2.92,2.92,0,0,1-3.41,1.5l-139-31.55C817.36,554.29,816.51,553.08,816.92,551.93Z"/><path class="cls-17" d="M823.64,547.47s88.79,40,151.7,26c0,0,44.2-6.07-9.71,28.29,0,0-132.06-26.11-148.91-29S770,510.68,823.64,547.47Z"/><path class="cls-45" d="M1993.1,869.48l-15.43,9.6s-21-48.79-36.65-51.82-.86,0-.86,0l-31.25-1s-24.81,56.84-35.83,58.71-1.07,0-1.07,0l-12-15.79s27.32-44.34,24.21-51.7,73.72,4,73.72,4S1988.77,852.13,1993.1,869.48Z"/><path class="cls-11" d="M1865.11,853.34l28.41,14.46-20.47,30.72s-1.18,16,21.63.84,22.71,5.56,19,11.08S1899.82,935.26,1896,937s-49.51-11.34-52-24.18S1840.27,890.61,1865.11,853.34Z"/><path class="cls-11" d="M1971.46,874.28l30.08-11.57,16.39,32.53s14.14,10.27,13.5-14.79,18.5-12.79,21.44-7,14.8,24.42,14.18,28.15-39.61,28.33-53,22.57S1991.34,913.76,1971.46,874.28Z"/><path class="cls-46" d="M1938.82,558.79s81.23-6.42,78.56,61.2c-.23,5.77-4.93,57.06-5.23,59.79-5.73,52.08-16.14,120.49-31.08,134.47-31.62,29.59-54.14,37.94-67.62,35.29s-64.45-38-60.69-108.8-7.54-126.35,14.54-166.69C1867.3,574.05,1879.51,554.26,1938.82,558.79Z"/><ellipse class="cls-20" cx="1839.6" cy="715.8" rx="68.18" ry="58.24" transform="translate(814.44 2402.68) rotate(-79.97)"/><polygon class="cls-21" points="1776.85 838.51 1768.77 838.07 1780.2 707.39 1788.28 707.84 1776.85 838.51"/><polygon class="cls-16" points="1778.46 840.51 1766.03 839.83 1769.75 797.29 1782.18 797.97 1778.46 840.51"/><path class="cls-13" d="M1855.4,762.55l-.29-115.68Z"/><line class="cls-13" x1="1902.78" y1="721.37" x2="1902.78" y2="721.38"/><line class="cls-13" x1="1891.86" y1="638.7" x2="1895.69" y2="638.91"/><path class="cls-21" d="M1892.09,808.62l-4.06-.22a1.29,1.29,0,0,1-1.36-1.24l9-103.45a1.37,1.37,0,0,1,1.55-1.07l4.07.22a1.3,1.3,0,0,1,1.36,1.23l-9,103.45A1.39,1.39,0,0,1,1892.09,808.62Z"/><polygon class="cls-22" points="1780.98 810.53 1768.55 809.85 1769.07 803.93 1781.5 804.61 1780.98 810.53"/><path class="cls-47" d="M1853.71,666.58l19.61-5.24s-8.51,74.64,112.22,66.25c0,0,48.2-1.6,39,9.16,0,0-11.7,4.16-22.4,1.63,0,0,26.49,2.72,24.5,5.85s4.79,16.54-40.54,20S1814.76,725,1853.71,666.58Z"/><path class="cls-48" d="M1964.59,829.82,1953.2,837s21.9,33,21.9,35.12l18.39-6.45S1985.61,842.72,1964.59,829.82Z"/><line class="cls-13" x1="1904.86" y1="720.3" x2="1904.86" y2="720.31"/><line class="cls-13" x1="1895.09" y1="637.44" x2="1898.67" y2="637.67"/><path class="cls-37" d="M1913.35,676.87l-.13,5.87s-68.33,8.68-11.11,28.21l20.93,1.32-.21,9.79s-40.61-.66-36.42-12.34l-9-8s-36,26.83,42.64,27.13l-.14,5.87s-49.92,6-37.85-6.49l-15.57-7.11s-38.81,36.57,55.91,19.51l1.14,7.85s-43.59,15.94-40.6-.66l-18.3-2.25s-7.2,29.25,58.7,11.72l3.93.06,1.79-80.24Z"/><path class="cls-37" d="M1951,678l-.13,5.84s63.17,10.77,9.13,28.41l-19.52.66-.22,9.74s37.79.62,34.39-11.13l8.71-7.66s32.31,27.81-40.81,25.65l-.13,5.85s46.17,7.57,35.48-5.27l14.78-6.59s34.53,37.6-52.83,17.66l-1.39,7.78s39.86,17.21,37.79.61l17.11-1.67s5.45,29.32-55.09,9.83l-3.66-.06,1.77-79.89Z"/><path class="cls-37" d="M1973.72,653.09s9,14.75,5.56,18.6-75.76,9.69-80.23-.39,2.36-19.34,2.36-19.34-26-.9-26-6.32l0-8.52s-32.71-11.77,4.76-49.51,110.78-9.52,114.13-1.77c0,0,32.66,23.38,6.53,51.9l-2.3,7.73S1997.46,650.11,1973.72,653.09Z"/><path class="cls-37" d="M1936.16,793.91s6.91-19.81,21.46-8.83c0,0-3.95,10.9-20.5,10.82s-25.3-2.11-25.3-2.11-22.34-9-6.74-13.93,16.48,14,16.48,14Z"/><path class="cls-38" d="M1956.68,831.05s15.25-7.71-3-11.34-12.25,16.21-5.13,13.42,13,29.77,13,29.77a15.11,15.11,0,0,0,18.26-1.32s22.35-7.67-5-12.05Z"/><path class="cls-38" d="M1895.5,825.57s12.78,7.73,7.68-7.66-18.2-1.41-12.88,2.57-17.9,24-17.9,24-1.1,9.88,9,13c0,0,15.85,13.06,7.36-9.52Z"/><path class="cls-37" d="M1919.73,759.67s-11.6,5.9,3.12,8.94c0,0-6.3-3-6.36,7.91l9.44,7-18.87-14s-44.2,1.77-14.89,32.67,35.71,12.08,35.71,12.08l5.27-1s2,10.93,14.71,3.05,28.54-24.66,28.54-24.66,3.23-15.86-18.84-20.93c0,0-11.58.93-25.32,12.77,0,0,10.57-9.87,11.62-8.87s-2.06-9.93-8.39-6c0,0,16.87-6.87,0-9.93Z"/><line class="cls-13" x1="1905.04" y1="717.54" x2="1905.04" y2="717.55"/><line class="cls-13" x1="1895.26" y1="635.15" x2="1898.83" y2="635.37"/><path class="cls-16" d="M1904,513.37s28.77-4.64,38.51,8.39,9.51,16.6,19,12.85,13.42-12.16,26.25-8,12.67,19.23,12.67,19.23,3.31,16.87-6.88,19.74l-64.18-14-35.94-7.83S1880.4,524.46,1904,513.37Z"/><path d="M1866.44,552,1873,533.8a2.94,2.94,0,0,1,3.41-1.5l139,31.55c1.46.33,2.31,1.54,1.89,2.69l-6.6,18.16a2.91,2.91,0,0,1-3.4,1.5l-139-31.55C1866.87,554.32,1866,553.11,1866.44,552Z"/><path class="cls-17" d="M1873.15,547.5s88.8,40,151.71,26c0,0,44.19-6.07-9.72,28.29,0,0-132.05-26.11-148.91-29S1819.55,510.71,1873.15,547.5Z"/><path class="cls-16" d="M1558.08,509.3s28.76-4.63,38.5,8.39,9.51,16.61,19,12.86,13.42-12.17,26.25-8,12.68,19.23,12.68,19.23,3.3,16.87-6.88,19.74l-64.19-14-35.94-7.83S1534.52,520.39,1558.08,509.3Z"/><path d="M1520.56,547.9l6.6-18.17a2.93,2.93,0,0,1,3.41-1.49l139,31.54c1.46.33,2.31,1.55,1.89,2.7l-6.6,18.16a2.93,2.93,0,0,1-3.41,1.49l-139-31.54C1521,550.26,1520.14,549.05,1520.56,547.9Z"/><path class="cls-17" d="M1527.28,543.44s88.79,40,151.7,26c0,0,44.2-6.07-9.72,28.28,0,0-132-26.11-148.9-29S1473.68,506.65,1527.28,543.44Z"/><line class="cls-49" x1="1571.01" y1="599.32" x2="1588.31" y2="625.28"/><line class="cls-49" x1="1593.36" y1="600.76" x2="1566.05" y2="622.39"/><line class="cls-49" x1="1615.44" y1="601.42" x2="1632.75" y2="627.38"/><line class="cls-49" x1="1637.8" y1="602.86" x2="1610.48" y2="624.49"/><line class="cls-49" x1="1922.22" y1="602.53" x2="1939.53" y2="628.49"/><line class="cls-49" x1="1944.58" y1="603.98" x2="1917.26" y2="625.61"/><line class="cls-49" x1="1966.66" y1="604.64" x2="1983.96" y2="630.6"/><line class="cls-49" x1="1989.01" y1="606.08" x2="1961.7" y2="627.71"/><line class="cls-49" x1="2272.13" y1="602.81" x2="2289.44" y2="628.77"/><line class="cls-49" x1="2294.49" y1="604.25" x2="2267.17" y2="625.88"/><line class="cls-49" x1="2316.57" y1="604.91" x2="2333.87" y2="630.87"/><line class="cls-49" x1="2338.92" y1="606.35" x2="2311.6" y2="627.99"/><line class="cls-49" x1="2622.95" y1="602.31" x2="2640.25" y2="628.27"/><line class="cls-49" x1="2645.3" y1="603.75" x2="2617.99" y2="625.39"/><line class="cls-49" x1="2667.38" y1="604.41" x2="2684.69" y2="630.38"/><line class="cls-49" x1="2689.74" y1="605.86" x2="2662.42" y2="627.49"/><line class="cls-49" x1="1221" y1="602.84" x2="1238.31" y2="628.8"/><line class="cls-49" x1="1243.35" y1="604.28" x2="1216.04" y2="625.92"/><line class="cls-49" x1="1265.43" y1="604.94" x2="1282.74" y2="630.9"/><line class="cls-49" x1="1287.79" y1="606.39" x2="1260.47" y2="628.02"/><line class="cls-49" x1="871.24" y1="602.7" x2="888.55" y2="628.66"/><line class="cls-49" x1="893.6" y1="604.14" x2="866.28" y2="625.77"/><line class="cls-49" x1="915.67" y1="604.8" x2="932.98" y2="630.76"/><line class="cls-49" x1="938.03" y1="606.24" x2="910.71" y2="627.88"/><ellipse class="cls-20" cx="440.26" cy="720.57" rx="70.63" ry="60.02" transform="translate(-344.13 1033.28) rotate(-80.31)"/><polygon class="cls-21" points="372.73 837.94 364.65 837.5 376.08 706.82 384.16 707.27 372.73 837.94"/><polygon class="cls-16" points="374.91 838.06 362.48 837.38 366.2 794.84 378.63 795.52 374.91 838.06"/><polygon class="cls-22" points="377.55 807.91 365.12 807.23 365.63 801.31 378.06 801.99 377.55 807.91"/><path class="cls-50" d="M239.32,869.72l-14.47,9.65s-19.71-49.07-34.35-52.12-.81,0-.81,0l-29.29-1s-23.26,57.18-33.59,59.06-1,0-1,0l-11.23-15.88s25.62-44.61,22.7-52,69.11,4.05,69.11,4.05S235.26,852.26,239.32,869.72Z"/><path class="cls-16" d="M158.56,511.48s27-4.66,36.1,8.44,8.91,16.71,17.79,12.93,12.58-12.23,24.6-8.05,11.88,19.35,11.88,19.35,3.1,17-6.44,19.85l-60.17-14.06-33.69-7.88S136.48,522.64,158.56,511.48Z"/><path class="cls-51" d="M191.24,557.18s76.15-6.46,73.65,61.56c-.22,5.81-4.62,57.41-4.91,60.15-5.37,52.39-15.12,121.2-29.13,135.26-29.64,29.77-50.75,38.18-63.38,35.5s-60.42-38.27-56.9-109.44-7.06-127.1,13.63-167.68C124.2,572.53,135.65,552.62,191.24,557.18Z"/><path d="M123.4,550.31,129.58,532a2.69,2.69,0,0,1,3.19-1.5L263,562.26a2.17,2.17,0,0,1,1.77,2.71l-6.18,18.28a2.69,2.69,0,0,1-3.2,1.5L125.16,553A2.17,2.17,0,0,1,123.4,550.31Z"/><ellipse class="cls-12" cx="205.04" cy="612.95" rx="9.92" ry="8.35" transform="translate(-430.03 733.11) rotate(-82.22)"/><path class="cls-13" d="M110.69,753.39l-.27-112.31Z"/><line class="cls-13" x1="157.46" y1="720.73" x2="157.46" y2="720.74"/><line class="cls-13" x1="147.23" y1="637.56" x2="150.82" y2="637.77"/><path class="cls-17" d="M129.69,545.82S212.92,586,271.89,572c0,0,41.43-6.1-9.11,28.46,0,0-123.78-26.27-139.58-29.17S79.45,508.81,129.69,545.82Z"/><path class="cls-21" d="M147.45,808.49l-3.82-.22a1.25,1.25,0,0,1-1.27-1.24L150.82,703a1.32,1.32,0,0,1,1.46-1.08l3.81.23a1.23,1.23,0,0,1,1.27,1.24L148.9,807.41A1.3,1.3,0,0,1,147.45,808.49Z"/><ellipse class="cls-12" cx="233.65" cy="612" rx="9.92" ry="8.35" transform="translate(-404.35 760.64) rotate(-82.22)"/><path class="cls-52" d="M111.47,665.61l18.38-5.28S121.87,735.42,235,727c0,0,45.19-1.61,36.54,9.22,0,0-11,4.18-21,1.64,0,0,24.83,2.73,23,5.88s4.48,16.64-38,20.11S75,724.38,111.47,665.61Z"/><path class="cls-53" d="M213.56,829.82l-10.61,8s20.41,36.74,20.41,39.14l17.15-7.19S233.16,844.19,213.56,829.82Z"/><path class="cls-11" d="M119.8,857l26.59,14.63-19.16,31.07s-1.1,16.23,20.25.86,21.26,5.62,17.82,11.2-13,25.11-16.58,26.89S102.38,930.21,100,917.21,96.55,894.74,119.8,857Z"/><path class="cls-11" d="M219.34,878.22,247.5,866.5l15.33,32.92s13.25,10.39,12.64-15,17.32-12.94,20.08-7,13.84,24.71,13.26,28.48-37.07,28.66-49.59,22.83S238,918.16,219.34,878.22Z"/><ellipse class="cls-12" cx="205.37" cy="615.13" rx="9.98" ry="8.34" transform="translate(-431.23 738.78) rotate(-82.53)"/><line class="cls-13" x1="157.87" y1="723.52" x2="157.86" y2="723.53"/><line class="cls-13" x1="147.65" y1="639.88" x2="151.24" y2="640.09"/><ellipse class="cls-12" cx="233.94" cy="614.17" rx="9.98" ry="8.34" transform="translate(-405.43 766.28) rotate(-82.53)"/><ellipse class="cls-12" cx="233.97" cy="614.45" rx="9.25" ry="8.72" transform="translate(-242.77 161.67) rotate(-25.63)"/><ellipse class="cls-12" cx="205.54" cy="614.92" rx="9.25" ry="8.72" transform="translate(-245.77 149.41) rotate(-25.63)"/><path class="cls-16" d="M159,512.1s26.92-4.7,36,8.51,8.9,16.84,17.76,13,12.56-12.33,24.57-8.11S249.21,545,249.21,545s3.08,17.1-6.44,20l-60.08-14.18-33.64-7.94S136.92,523.35,159,512.1Z"/><path d="M123.85,551.24,130,532.82a2.67,2.67,0,0,1,3.19-1.52l130,32A2.18,2.18,0,0,1,265,566l-6.18,18.42a2.66,2.66,0,0,1-3.19,1.51l-130-32A2.2,2.2,0,0,1,123.85,551.24Z"/><path class="cls-17" d="M130.14,546.71s83.11,40.52,142,26.35c0,0,41.37-6.15-9.1,28.68,0,0-123.6-26.48-139.37-29.4S80,509.41,130.14,546.71Z"/><path class="cls-11" d="M117.85,858.66l26.63,14.55-19.19,30.9s-1.1,16.13,20.28.84,21.29,5.59,17.84,11.15-13,25-16.6,26.73S100.4,931.43,98,918.5,94.57,896.16,117.85,858.66Z"/><path class="cls-11" d="M219.6,877.65,247.8,866l15.36,32.73s13.26,10.33,12.65-14.88,17.35-12.87,20.11-7,13.86,24.57,13.28,28.32-37.13,28.5-49.67,22.7S238.23,917.37,219.6,877.65Z"/><path class="cls-16" d="M159.13,511.48s27-4.66,36.1,8.44,8.91,16.71,17.79,12.93,12.58-12.23,24.61-8.05,11.88,19.35,11.88,19.35,3.09,17-6.45,19.85l-60.17-14.06-33.69-7.88S137.05,522.64,159.13,511.48Z"/><path d="M124,550.31,130.15,532a2.69,2.69,0,0,1,3.2-1.5L263.6,562.26a2.16,2.16,0,0,1,1.76,2.71l-6.18,18.28a2.69,2.69,0,0,1-3.19,1.5L125.74,553A2.18,2.18,0,0,1,124,550.31Z"/><ellipse class="cls-12" cx="205.61" cy="612.95" rx="9.92" ry="8.35" transform="translate(-429.54 733.68) rotate(-82.22)"/><line class="cls-13" x1="158.03" y1="720.73" x2="158.03" y2="720.74"/><line class="cls-13" x1="147.8" y1="637.56" x2="151.39" y2="637.77"/><path class="cls-17" d="M130.26,545.82S213.5,586,272.47,572c0,0,41.42-6.1-9.12,28.46,0,0-123.78-26.27-139.58-29.17S80,508.81,130.26,545.82Z"/><ellipse class="cls-12" cx="234.22" cy="612" rx="9.92" ry="8.35" transform="translate(-403.85 761.21) rotate(-82.22)"/><ellipse class="cls-20" cx="93.08" cy="721.53" rx="70.63" ry="60.02" transform="translate(-633.83 691.85) rotate(-80.31)"/><polygon class="cls-21" points="25.55 836.9 17.47 836.46 28.9 705.78 36.98 706.23 25.55 836.9"/><polygon class="cls-16" points="27.73 837.02 15.3 836.34 19.02 793.8 31.45 794.48 27.73 837.02"/><polygon class="cls-22" points="30.36 806.87 17.93 806.19 18.45 800.27 30.88 800.95 30.36 806.87"/></g><g id="_4_recoil" data-name="4 recoil"><path class="cls-53" d="M2243.27,343.15l-15.21-11.94s-4.13,16.69-20.75,30.78l13.61,8.57S2231.72,367.22,2243.27,343.15Z"/><path class="cls-53" d="M874.27,333.17s24.15-14,24.53-19,13,60.73,9.16,61.49-14.13,1.15-16.42-1.91S874.27,333.17,874.27,333.17Z"/><path class="cls-51" d="M1932.87,329.66,1920,341.13l16.31,13.05-3.77,1.31,16.21,12.64s17-4.75,19.33-12S1932.87,329.66,1932.87,329.66Z"/><path class="cls-50" d="M227.23,365.92l-13.87,9.29S194.47,328,180.44,325.06s-.78,0-.78,0l-28.06-1s-22.29,55-32.2,56.82-1,0-1,0l-10.76-15.28s24.55-42.91,21.75-50,66.23,3.89,66.23,3.89S223.33,349.13,227.23,365.92Z"/><path class="cls-11" d="M112.25,350.3l25.51,14L119.38,394s-1.06,15.53,19.43.82,20.4,5.37,17.1,10.72-12.48,24-15.91,25.72-44.47-11-46.75-23.41S89.93,386.37,112.25,350.3Z"/><path class="cls-11" d="M207.78,370.57l27-11.21,14.72,31.49s12.71,9.94,12.12-14.32,16.62-12.38,19.27-6.72,13.29,23.64,12.73,27.25-35.58,27.42-47.6,21.84S225.64,408.78,207.78,370.57Z"/><path class="cls-16" d="M149.83,21.26s25.84-4.48,34.59,8.12S193,45.45,201.47,41.82s12.06-11.77,23.59-7.74,11.38,18.61,11.38,18.61,3,16.33-6.18,19.1L172.6,58.26l-32.28-7.58S128.67,32,149.83,21.26Z"/><path class="cls-51" d="M181.16,65.22s73-6.21,70.57,59.23c-.2,5.59-4.43,55.23-4.7,57.88-5.15,50.4-14.49,116.6-27.92,130.13-28.41,28.64-48.63,36.73-60.74,34.16s-57.9-36.83-54.53-105.3S97.08,119,116.91,80C116.91,80,127.88,60.84,181.16,65.22Z"/><path d="M116.13,58.61,122.06,41a2.57,2.57,0,0,1,3.06-1.44L250,70.12a2.08,2.08,0,0,1,1.69,2.6L245.71,90.3a2.56,2.56,0,0,1-3.06,1.45L117.83,61.22A2.1,2.1,0,0,1,116.13,58.61Z"/><ellipse class="cls-20" cx="92.02" cy="223.18" rx="65.89" ry="52.4" transform="translate(-140.47 288.17) rotate(-83.21)"/><polygon class="cls-21" points="32.96 341.94 25.7 341.52 35.97 215.05 43.23 215.48 32.96 341.94"/><polygon class="cls-16" points="34.91 342.06 23.75 341.4 27.09 300.23 38.26 300.89 34.91 342.06"/><ellipse class="cls-12" cx="194.37" cy="118.88" rx="9.54" ry="8" transform="translate(50.8 295.8) rotate(-82.39)"/><path class="cls-13" d="M106.22,262.42l-.26-112Z"/><line class="cls-13" x1="148.78" y1="222.57" x2="148.78" y2="222.59"/><line class="cls-13" x1="138.97" y1="142.56" x2="142.42" y2="142.76"/><path class="cls-17" d="M122.17,54.3S201.93,93,258.45,79.44c0,0,39.7-5.87-8.73,27.38,0,0-118.63-25.27-133.77-28.07S74,18.69,122.17,54.3Z"/><path class="cls-21" d="M139.18,307l-3.65-.21a1.2,1.2,0,0,1-1.22-1.19l8.11-100.13a1.27,1.27,0,0,1,1.4-1l3.65.22a1.2,1.2,0,0,1,1.22,1.19L140.58,306A1.26,1.26,0,0,1,139.18,307Z"/><path class="cls-54" d="M235.79,150.56s-1.67-11.17-15.48-9.45"/><path class="cls-54" d="M229.16,143s-4.62,19.66-18.79,19.14c0,0-14.55.82-16.06-10.68"/><polygon class="cls-22" points="37.28 306.88 26.12 306.22 26.58 300.5 37.75 301.15 37.28 306.88"/><ellipse class="cls-12" cx="221.8" cy="117.97" rx="9.54" ry="8" transform="translate(75.5 322.19) rotate(-82.39)"/><path class="cls-52" d="M104.7,169.55l17.61-5.08s-7.64,72.25,100.81,64.13c0,0,43.3-1.55,35,8.86,0,0-10.52,4-20.12,1.58,0,0,23.79,2.63,22,5.66s4.3,16-36.42,19.35-153.89-38-118.9-94.5Z"/><path class="cls-52" d="M883,205.49l15-4.37s-11.36,67,79.26,61.58c0,0,36.07-.59,28.47,8.92,0,0-9,3.54-16.82,1.08,0,0,19.58,2.91,17.88,5.69s2.46,15-31.59,17.27S850,257.38,883,205.49Z"/><path class="cls-16" d="M845.93,25.19s25.88-4.32,34.52,8.34,8.41,16.12,16.95,12.55,12.15-11.7,23.64-7.6,11.23,18.68,11.23,18.68,2.83,16.34-6.34,19.06L868.38,62.33l-32.22-7.78S824.68,35.8,845.93,25.19Z"/><path class="cls-51" d="M876.87,70.18s73-5.74,70.07,59.53c-.25,5.58-4.9,55.08-5.19,57.71-5.59,50.26-15.5,116.25-29,129.67-28.65,28.39-48.94,36.34-61,33.7s-57.58-37.1-53.63-105.4-5.72-122,14.45-160.87C812.5,84.52,823.63,65.48,876.87,70.18Z"/><path d="M811.91,62.34,818,44.79a2.57,2.57,0,0,1,3.07-1.42l124.56,31.3a2.09,2.09,0,0,1,1.68,2.62l-6.08,17.54a2.59,2.59,0,0,1-3.07,1.43L813.59,65A2.09,2.09,0,0,1,811.91,62.34Z"/><ellipse class="cls-20" cx="786.44" cy="221.24" rx="65.76" ry="52.39" transform="translate(463.47 971.66) rotate(-82.43)"/><polygon class="cls-21" points="733.91 344.26 726.64 344.05 731.76 217.35 739.03 217.57 733.91 344.26"/><polygon class="cls-16" points="735.87 344.32 724.68 343.99 726.35 302.75 737.54 303.08 735.87 344.32"/><ellipse class="cls-12" cx="889.63" cy="123.8" rx="9.53" ry="8" transform="translate(635.58 985.33) rotate(-81.49)"/><path class="cls-13" d="M800.25,266.47l.7-111.7Z"/><line class="cls-13" x1="843.15" y1="226.97" x2="843.15" y2="226.98"/><line class="cls-13" x1="834.03" y1="147.08" x2="837.47" y2="147.3"/><path class="cls-17" d="M818,58.06s79.44,39.17,136.06,26c0,0,39.75-5.63-9,27.32,0,0-118.41-26-133.53-28.89S770.14,22.15,818,58.06Z"/><path class="cls-21" d="M832.83,311.16l-3.65-.24a1.2,1.2,0,0,1-1.21-1.2l9-99.84a1.26,1.26,0,0,1,1.4-1l3.65.24a1.18,1.18,0,0,1,1.21,1.2l-9,99.84A1.28,1.28,0,0,1,832.83,311.16Z"/><path class="cls-54" d="M930.78,155.67s-1.58-11.16-15.41-9.54"/><path class="cls-54" d="M924.2,148.12s-4.78,19.58-19,19c0,0-14.55.73-16-10.76"/><polygon class="cls-22" points="737.05 315.09 725.87 314.76 726.1 309.02 737.28 309.35 737.05 315.09"/><ellipse class="cls-12" cx="917.06" cy="123.06" rx="9.53" ry="8" transform="translate(659.68 1011.82) rotate(-81.49)"/><path class="cls-52" d="M797,172.55,815.12,176s-50.49,58.21,47.12,99.27c0,0,37.94,17.84,24.52,23,0,0-11.43-1.22-18.15-7.56,0,0,18.73,12.78,15.36,14.56s-6.07,15.55-42.89.38S732.68,205.28,797,172.55Z"/><path class="cls-11" d="M887,351.26l7.79,19.94L869,378.49s-8.48,7.94,10.9,9.83,9.17,12.78,4.54,14.1-19.43,7-22.29,6.31-20.36-27.45-15.39-35.32S855.74,360.11,887,351.26Z"/><path class="cls-52" d="M1586.09,213l11.81-9.22s20,65.15,101,28.55c0,0,32.95-13.14,30.27-1.8,0,0-6.69,6.38-15,6.86,0,0,19.36-4.18,19.06-1.05s9.07,12.81-21.24,26.81-132.7,8.75-125.92-50.15Z"/><path class="cls-11" d="M1503.25,359.33l18.42,17.73-26.26,20s-6,12.51,17.23,5.4,16.63,9.4,11.91,13-19.08,16.72-22.72,17.29-36.49-19.87-34.48-30.65S1471.38,383.57,1503.25,359.33Z"/><path class="cls-11" d="M1591.71,383.23l24-10.43L1633.12,400s13,8.38,9.7-12.8,14.13-11.21,17.26-6.33,15.16,20.34,15.05,23.5-30.14,24.81-42,20.22S1612.82,416.19,1591.71,383.23Z"/><path class="cls-16" d="M1586.5,27.61s26.25-2.52,33.28,10.71S1626.14,55,1635.06,52s13.53-10.82,24.44-5.94,8.85,19.43,8.85,19.43.79,16.5-8.66,18.57l-55.46-17.85-31.06-10S1564.08,36.71,1586.5,27.61Z"/><path class="cls-51" d="M1611.69,74.64S1685,74,1674,138.9c-.94,5.55-11.67,54.61-12.28,57.22-11.75,49.75-29.75,114.91-44.86,127.35-32,26.35-53.12,32.87-64.81,29.39s-52.63-41-40.27-108.87,9.38-122.16,34.21-159.51C1546,84.48,1559.37,66.26,1611.69,74.64Z"/><path d="M1548.11,62.31l8.21-17.08a2.68,2.68,0,0,1,3.23-1.21l119.91,39.87a2,2,0,0,1,1.34,2.73l-8.21,17.08a2.7,2.7,0,0,1-3.23,1.21L1549.45,65A2,2,0,0,1,1548.11,62.31Z"/><ellipse class="cls-20" cx="1503.19" cy="219.08" rx="66.68" ry="51.66" transform="translate(812.28 1571.94) rotate(-71.24)"/><polygon class="cls-21" points="1428.94 332.55 1421.79 331.58 1448.67 206.25 1455.82 207.23 1428.94 332.55"/><polygon class="cls-16" points="1429.93 337.31 1418.92 335.87 1428.75 288.84 1439.76 290.28 1429.93 337.31"/><ellipse class="cls-12" cx="1617.75" cy="129.03" rx="9.67" ry="7.88" transform="translate(918.85 1593.71) rotate(-69.05)"/><path class="cls-13" d="M1511.33,265.17l14.48-111.4Z"/><line class="cls-13" x1="1558.83" y1="228.74" x2="1558.83" y2="228.75"/><line class="cls-13" x1="1559.63" y1="148.39" x2="1563.02" y2="148.86"/><path class="cls-17" d="M1554.67,58.46s74.1,44.59,132,35.37c0,0,40.19-2.86-12.28,26.64,0,0-114.45-34.16-129.12-38.09S1511.56,19.32,1554.67,58.46Z"/><path class="cls-21" d="M1538.19,312l-3.6-.49a1.12,1.12,0,0,1-1-1.28l21.23-99a1.33,1.33,0,0,1,1.52-.92l3.6.49a1.11,1.11,0,0,1,1,1.27l-21.23,99A1.34,1.34,0,0,1,1538.19,312Z"/><path class="cls-54" d="M1654.71,163.67s-.19-11.24-14.13-10.58"/><path class="cls-54" d="M1649.11,155.68s-7.17,19.21-21.17,17.63c0,0-14.56-.29-14.54-11.84"/><polygon class="cls-22" points="1436.84 300.81 1425.84 299.31 1427.05 293.63 1438.05 295.13 1436.84 300.81"/><ellipse class="cls-12" cx="1645.1" cy="130.19" rx="9.67" ry="7.88" transform="translate(935.34 1620) rotate(-69.05)"/><path class="cls-52" d="M1539.77,182.1l7.23,14.45s-84.9.59-67.39,91.81c0,0,5,36.59-7.75,30.58,0,0-5.48-8.53-3.34-16.92,0,0-1.31,20.45-5,19.23s-18.36,5.21-25.28-29,32.9-134.3,101.5-110.14Z"/><path class="cls-16" d="M1897.49,26.21s25.83-4.25,34.6,8.44,8.58,16.15,17.08,12.6,12-11.67,23.56-7.54,11.42,18.73,11.42,18.73,3,16.35-6.14,19l-57.68-14.06L1888,55.55S1876.36,36.75,1897.49,26.21Z"/><path class="cls-51" d="M1928.9,71.3s72.95-5.54,70.69,59.75c-.2,5.58-4.31,55.08-4.58,57.71-5,50.25-14.25,116.23-27.64,129.62-28.35,28.32-48.55,36.21-60.66,33.53s-58-37.27-54.74-105.58-7-122.09,12.73-160.87C1864.7,85.46,1875.63,66.45,1928.9,71.3Z"/><path d="M1863.88,63.27l5.88-17.53a2.55,2.55,0,0,1,3.06-1.42L1997.69,76a2.12,2.12,0,0,1,1.7,2.62l-5.89,17.53a2.55,2.55,0,0,1-3.06,1.42L1865.58,65.89A2.11,2.11,0,0,1,1863.88,63.27Z"/><ellipse class="cls-20" cx="1840.11" cy="222.14" rx="65.67" ry="52.45" transform="translate(1438.18 2031.5) rotate(-84.36)"/><polygon class="cls-21" points="1781.3 339.9 1774.04 339.41 1784.04 213.01 1791.3 213.5 1781.3 339.9"/><polygon class="cls-16" points="1783.26 340.04 1772.09 339.28 1775.34 298.13 1786.51 298.89 1783.26 340.04"/><ellipse class="cls-12" cx="1942.23" cy="124.97" rx="9.51" ry="8.01" transform="translate(1612.44 2043.07) rotate(-83.93)"/><path class="cls-13" d="M1854.39,267.42l-.49-111.73Z"/><line class="cls-13" x1="1896.86" y1="228.04" x2="1896.86" y2="228.05"/><line class="cls-13" x1="1886.89" y1="148.1" x2="1890.33" y2="148.33"/><path class="cls-17" d="M1869.9,59s79.83,39.41,136.3,26.39c0,0,39.68-5.51-8.67,27.3,0,0-118.65-26.35-133.8-29.28S1821.68,23,1869.9,59Z"/><path class="cls-21" d="M1887.44,312.22l-3.65-.25a1.21,1.21,0,0,1-1.22-1.2l7.9-99.85a1.23,1.23,0,0,1,1.39-1l3.65.25a1.2,1.2,0,0,1,1.22,1.2l-7.89,99.84A1.26,1.26,0,0,1,1887.44,312.22Z"/><path class="cls-54" d="M1983.71,157s-1.7-11.17-15.51-9.58"/><path class="cls-54" d="M1977.05,149.39s-4.57,19.58-18.74,18.93c0,0-14.54.69-16.07-10.8"/><polygon class="cls-22" points="1785.56 310.88 1774.4 310.12 1774.85 304.39 1786.02 305.15 1785.56 310.88"/><ellipse class="cls-12" cx="1969.64" cy="124.31" rx="9.51" ry="8.01" transform="translate(1637.61 2069.74) rotate(-83.93)"/><path class="cls-52" d="M1848,219.18l10-13.26s47.18,60.7,125.6-2.78c0,0,32.55-24,33.76-11.48,0,0-5.22,8.69-14.49,11.83,0,0,20.45-10.47,21.28-7.15s15.12,10.29-14.11,34.36S1862.34,282,1848,219.18Z"/><path class="cls-11" d="M1852.91,358.78l23.82,13-18.49,24.91s-1.52,13.33,18.47,1.42,19.24,5.38,15.92,9.86-12.68,20.22-16,21.56-42-11.09-43.72-21.87S1830.47,389,1852.91,358.78Z"/><path class="cls-11" d="M1931.86,354.38l19,13.25-19.76,20.89s-3.23,11.76,16,2.56,16.11,6.15,12.56,9.91-14,17.11-17.09,18.07-35.22-12.83-35.22-22.56S1907.89,379.73,1931.86,354.38Z"/><path class="cls-16" d="M489.94,25.28s25.65-5.25,34.9,7.09S534,48.18,542.39,44.3,554,32.18,565.64,35.87s12.14,18.27,12.14,18.27,3.63,16.22-5.4,19.27L514.2,61.58,481.63,55S469.23,36.63,489.94,25.28Z"/><path class="cls-51" d="M525.07,69.12s72.68-8.35,72.94,57c0,5.58-2.19,55.2-2.35,57.84-3.1,50.41-9.76,116.7-22.62,130.59-27.23,29.39-47.12,38.05-59.33,35.85S454.36,315.37,455,247s-11.73-121.73,6.51-161.25C461.46,85.74,471.65,66.32,525.07,69.12Z"/><path d="M457.78,63.6,463,45.86a2.54,2.54,0,0,1,3-1.54L592,71.15a2.12,2.12,0,0,1,1.8,2.56l-5.2,17.74a2.55,2.55,0,0,1-3,1.53l-126-26.82A2.12,2.12,0,0,1,457.78,63.6Z"/><ellipse class="cls-20" cx="442.16" cy="223.27" rx="65.67" ry="52.45" transform="translate(192.83 651.28) rotate(-86.57)"/><polygon class="cls-21" points="385.94 343.22 378.67 343.01 383.78 216.31 391.06 216.53 385.94 343.22"/><polygon class="cls-16" points="387.9 343.28 376.71 342.95 378.38 301.71 389.56 302.03 387.9 343.28"/><ellipse class="cls-12" cx="538.46" cy="122.24" rx="9.51" ry="8.01" transform="translate(380.22 651.23) rotate(-86.14)"/><path class="cls-13" d="M458.18,268l-4.8-111.62Z"/><line class="cls-13" x1="499.1" y1="226.98" x2="499.1" y2="226.99"/><line class="cls-13" x1="486.05" y1="147.48" x2="489.5" y2="147.58"/><path class="cls-17" d="M463.64,59.11s81.29,36.3,137.22,21.11c0,0,39.44-7-7.61,27.61,0,0-119.59-21.75-134.84-24.09S414.07,24.94,463.64,59.11Z"/><path class="cls-21" d="M492.93,311.46l-3.66-.11A1.2,1.2,0,0,1,488,310.2l4-100.08A1.24,1.24,0,0,1,493.4,209l3.66.11a1.21,1.21,0,0,1,1.27,1.15l-4,100.08A1.25,1.25,0,0,1,492.93,311.46Z"/><path class="cls-54" d="M583.14,152.6s-2.13-11.09-15.87-9"/><path class="cls-54" d="M576.2,145.3s-3.81,19.74-18,19.64c0,0-14.51,1.24-16.48-10.18"/><polygon class="cls-22" points="389.08 314.05 377.89 313.72 378.12 307.98 389.31 308.31 389.08 314.05"/><ellipse class="cls-12" cx="565.83" cy="120.52" rx="9.51" ry="8.01" transform="translate(407.46 676.94) rotate(-86.14)"/><path class="cls-52" d="M449.92,220l9.45-13.63s49.49,58.83,125.4-7.63c0,0,31.61-25.25,33.3-12.78,0,0-4.88,8.9-14,12.39,0,0,20-11.25,21-8s15.5,9.71-12.78,34.88S466.68,282.2,449.92,220Z"/><path class="cls-52" d="M2283.42,203.52l15-4.37s-11.35,67,79.27,61.58c0,0,36.07-.6,28.46,8.92,0,0-9,3.54-16.82,1.08,0,0,19.58,2.91,17.89,5.69s2.46,15-31.59,17.27-125.16-38.29-92.18-90.17Z"/><path class="cls-16" d="M2246.37,23.22s25.88-4.33,34.52,8.33,8.4,16.13,16.94,12.55,12.16-11.7,23.65-7.6,11.23,18.69,11.23,18.69,2.82,16.34-6.35,19.06l-57.54-13.89-32.22-7.78S2225.11,33.82,2246.37,23.22Z"/><path class="cls-51" d="M2277.31,68.21s73-5.74,70.06,59.53c-.25,5.58-4.9,55.08-5.19,57.71-5.58,50.25-15.49,116.25-29,129.66-28.65,28.4-49,36.34-61,33.7s-57.58-37.1-53.62-105.39-5.72-122,14.44-160.88C2212.93,82.54,2224.07,63.51,2277.31,68.21Z"/><path d="M2212.35,60.36l6.07-17.54a2.59,2.59,0,0,1,3.08-1.43L2346.06,72.7a2.07,2.07,0,0,1,1.67,2.61l-6.08,17.55a2.56,2.56,0,0,1-3.07,1.42L2214,63A2.09,2.09,0,0,1,2212.35,60.36Z"/><ellipse class="cls-20" cx="2186.88" cy="219.26" rx="65.76" ry="52.39" transform="translate(1681.25 2358.16) rotate(-82.43)"/><polygon class="cls-21" points="2132.35 346.29 2125.08 346.07 2130.19 219.38 2137.46 219.59 2132.35 346.29"/><polygon class="cls-16" points="2134.31 346.34 2123.12 346.01 2124.79 304.77 2135.97 305.1 2134.31 346.34"/><ellipse class="cls-12" cx="2290.06" cy="121.83" rx="9.53" ry="8" transform="translate(1830.79 2368.67) rotate(-81.49)"/><path class="cls-13" d="M2200.69,264.49l.69-111.69Z"/><line class="cls-13" x1="2243.58" y1="225" x2="2243.58" y2="225.01"/><line class="cls-13" x1="2234.46" y1="145.11" x2="2237.9" y2="145.33"/><path class="cls-17" d="M2218.42,56.08s79.43,39.17,136.06,26c0,0,39.75-5.62-9,27.32,0,0-118.4-26-133.52-28.89S2170.57,20.18,2218.42,56.08Z"/><path class="cls-21" d="M2233.27,309.18l-3.66-.24a1.17,1.17,0,0,1-1.2-1.19l9-99.85a1.26,1.26,0,0,1,1.41-1l3.65.24a1.19,1.19,0,0,1,1.21,1.19l-9,99.85A1.25,1.25,0,0,1,2233.27,309.18Z"/><path class="cls-54" d="M2331.21,153.69s-1.57-11.16-15.4-9.53"/><path class="cls-54" d="M2324.64,146.14s-4.78,19.59-18.95,19c0,0-14.56.73-16-10.75"/><polygon class="cls-22" points="2135.49 317.11 2124.3 316.79 2124.53 311.05 2135.72 311.38 2135.49 317.11"/><ellipse class="cls-12" cx="2317.5" cy="121.09" rx="9.53" ry="8" transform="translate(1854.89 2395.17) rotate(-81.49)"/><path class="cls-52" d="M2197.42,170.58l18.14,3.46s-50.49,58.21,47.11,99.28c0,0,37.95,17.83,24.53,23,0,0-11.44-1.21-18.16-7.55,0,0,18.74,12.77,15.37,14.56s-6.07,15.55-42.9.38-108.4-100.45-44.09-133.17Z"/><path class="cls-11" d="M2207.65,355.81l23.52,12.33-17,26.18s-1,13.68,17.91.72,18.8,4.74,15.76,9.45-11.5,21.16-14.66,22.65-41-9.66-43.08-20.62S2187.09,387.59,2207.65,355.81Z"/><path class="cls-53" d="M201.61,327.53l-10.23,6.94s19.67,31.92,19.67,34l16.53-6.25S220.49,340,201.61,327.53Z"/><path class="cls-53" d="M1530.5,334.14l11.73,12.76s-11,18.2-23.17,27.86l-14-13.79S1531.16,336.11,1530.5,334.14Z"/><path class="cls-50" d="M838.26,342.41l-14.06-13s-14.43,35.89-19.61,41.81l14.8,6.29S840.48,347.59,838.26,342.41Z"/><path class="cls-11" d="M804.72,360l23.51,12.33-16.94,26.19s-1,13.67,17.9.72S848,403.92,845,408.63s-11.5,21.16-14.66,22.66-41-9.67-43.08-20.62S784.16,391.73,804.72,360Z"/><path class="cls-53" d="M559.83,324,547,335.43l16.31,13-3.76,1.31,16.2,12.65s17-4.75,19.34-12S559.83,324,559.83,324Z"/><path class="cls-11" d="M558.35,348.52l21.7,15.82L558,386.67s-3.5,13,18.12,3.71,18.29,7.73,14.32,11.74-15.59,18.41-19.08,19.32-40-16.21-40.13-27.09S531.58,375.62,558.35,348.52Z"/><path class="cls-51" d="M2288.52,333.28s23.56-15.43,23.75-20.59,15.4,62.39,11.62,63.32-14.08,1.74-16.49-1.34S2288.52,333.28,2288.52,333.28Z"/><path class="cls-11" d="M2299.55,354.22l8.82,22.6-29.19,8.26s-9.61,9,12.36,11.14,10.39,14.49,5.14,16-22,8-25.26,7.16-23.07-31.11-17.44-40S2264.12,364.25,2299.55,354.22Z"/><path class="cls-50" d="M504,341.65l-15.22-11.94s-4.13,16.7-20.74,30.79l13.6,8.57S492.44,365.73,504,341.65Z"/><path class="cls-11" d="M462.54,356.48l24.3,12.06-17.51,25.61s-1,13.38,18.51.71,19.44,4.63,16.29,9.23-11.89,20.7-15.15,22.16-42.37-9.45-44.54-20.16S441.28,387.56,462.54,356.48Z"/><path class="cls-53" d="M1895.24,343,1880,331s-4.13,16.7-20.74,30.79l13.6,8.57S1883.68,367.05,1895.24,343Z"/><polygon class="cls-50" points="1564.42 346.76 1586.67 340.93 1615.04 377.14 1598.39 385.06 1564.42 346.76"/><path class="cls-53" d="M2644.85,309.37l-46.66,3.43s51.43,76.18,42.5,86.59l22.55-1.19-36-86.94"/><path class="cls-53" d="M1209.74,347.15s-13,2.18-16.58-.24l-5.68,17.45-19.54-2.18-1.59,12.6s32.71,11.15,36.12,7.51C1202.47,382.29,1208.38,369.69,1209.74,347.15Z"/><path class="cls-52" d="M1239.89,218.56l8.51-9.88s31.72,53.61,95.81,9.09c0,0,26.44-16.59,26.5-6.29,0,0-4.58,6.6-11.86,8.31,0,0,16.3-6.66,16.7-3.89s10.8,9.74-13.12,26.66-116,28.34-122.54-24Z"/><path class="cls-50" d="M1245.47,315.22l-46.67,3.43s51.44,76.18,42.51,86.59l22.55-1.19-36-86.94"/><path class="cls-11" d="M1174.52,358.81l-3.4,23.84-34.53-3.09s-14.82,4.71,6.55,14.67,2.68,17-3.52,16.45-27-.73-29.88-2.67-6.54-36.8,4.16-42.89S1132.62,355.06,1174.52,358.81Z"/><path class="cls-16" d="M1221.74,25.79s26.16-3.16,33.74,9.88,7.07,16.49,15.87,13.3,13.08-11.14,24.21-6.53,9.66,19.18,9.66,19.18,1.48,16.45-7.88,18.75l-56.25-16.46-31.49-9.22S1199.68,35.43,1221.74,25.79Z"/><path class="cls-51" d="M1248.91,72.13s73.3-2.45,65,62.63c-.7,5.56-9.39,54.81-9.9,57.43-9.68,50-25,115.45-39.56,128.25-30.89,27.08-51.78,34.1-63.62,30.92S1146.45,311.7,1156,243.65s4.28-122.2,27.57-160.09C1183.55,83.56,1196.21,65,1248.91,72.13Z"/><path d="M1184.78,61.37l7.5-17.25a2.66,2.66,0,0,1,3.18-1.29l121.65,36.88a2,2,0,0,1,1.45,2.69l-7.5,17.25a2.64,2.64,0,0,1-3.18,1.29L1186.23,64.06A2,2,0,0,1,1184.78,61.37Z"/><ellipse class="cls-20" cx="1146.38" cy="218.99" rx="66.29" ry="51.96" transform="translate(632.18 1266.73) rotate(-74.67)"/><polygon class="cls-21" points="1077.72 332.04 1070.53 331.25 1092.18 205.47 1099.38 206.26 1077.72 332.04"/><polygon class="cls-16" points="1079.66 332.26 1068.59 331.03 1075.64 290.09 1086.71 291.31 1079.66 332.26"/><ellipse class="cls-12" cx="1257.25" cy="126.28" rx="9.61" ry="7.93" transform="translate(763.63 1289.45) rotate(-72.74)"/><path class="cls-13" d="M1156.45,264.8l9.83-111.57Z"/><line class="cls-13" x1="1202.46" y1="227.27" x2="1202.46" y2="227.28"/><line class="cls-13" x1="1199.9" y1="147.04" x2="1203.31" y2="147.42"/><path class="cls-17" d="M1191.18,57.37s76,42.71,133.56,32.08c0,0,40.09-3.83-11.18,26.9,0,0-116-31.31-130.79-34.87S1146.41,19.35,1191.18,57.37Z"/><path class="cls-21" d="M1185.28,310.92l-3.62-.4a1.13,1.13,0,0,1-1.1-1.25l17.1-99.36a1.32,1.32,0,0,1,1.49-1l3.62.4a1.14,1.14,0,0,1,1.11,1.25L1186.77,310A1.32,1.32,0,0,1,1185.28,310.92Z"/><path class="cls-54" d="M1295.67,160s-.65-11.23-14.58-10.22"/><path class="cls-54" d="M1289.74,152.13s-6.37,19.35-20.45,18.11c0,0-14.58.07-15-11.46"/><polygon class="cls-22" points="1084.65 303.24 1073.59 302.01 1074.57 296.31 1085.64 297.54 1084.65 303.24"/><ellipse class="cls-12" cx="1284.66" cy="126.77" rx="9.61" ry="7.93" transform="translate(782.44 1315.97) rotate(-72.74)"/><path class="cls-52" d="M1183.62,199.73l-.17,14.33s-70-26-94.19,55.71c0,0-11.34,32.15-19.29,23.14,0,0-.9-8.84,4.41-15.19,0,0-9.72,16.69-12.22,14.52s-17.3-1.38-8.52-32.15,83.81-102,130-60.36Z"/><path class="cls-11" d="M1235.87,384.16l25.41-2.19,2.68,27.08s7.43,10.41,14.16-8,17.25-5.48,17.73-.61,3.84,20.84,2.32,23.43-37.21,12.41-45.37,5.45S1239.12,417,1235.87,384.16Z"/><path class="cls-52" d="M2637.85,213.79l8.51-9.87s31.73,53.6,95.82,9.08c0,0,26.44-16.59,26.5-6.29,0,0-4.58,6.6-11.86,8.32,0,0,16.3-6.67,16.7-3.9s10.8,9.74-13.12,26.66-116,28.34-122.55-24Z"/><path class="cls-16" d="M2619.71,21s26.16-3.15,33.74,9.88,7.07,16.49,15.87,13.3,13.08-11.14,24.2-6.53,9.67,19.18,9.67,19.18,1.48,16.45-7.88,18.76l-56.25-16.47-31.49-9.22S2597.65,30.66,2619.71,21Z"/><path class="cls-51" d="M2646.88,67.37s73.29-2.46,65,62.62c-.71,5.57-9.39,54.81-9.9,57.43-9.68,50-25,115.45-39.56,128.25-30.89,27.08-51.78,34.11-63.62,30.92s-54.38-39.65-44.85-107.71,4.28-122.19,27.57-160.09C2581.52,78.79,2594.18,60.27,2646.88,67.37Z"/><path d="M2582.75,56.61l7.49-17.26a2.67,2.67,0,0,1,3.19-1.28l121.64,36.87a2,2,0,0,1,1.46,2.69L2709,94.89a2.65,2.65,0,0,1-3.18,1.28L2584.2,59.3A2,2,0,0,1,2582.75,56.61Z"/><ellipse class="cls-20" cx="2544.35" cy="214.22" rx="66.29" ry="51.96" transform="translate(1665.26 2611.48) rotate(-74.67)"/><polygon class="cls-21" points="2475.69 327.27 2468.49 326.48 2490.15 200.7 2497.35 201.5 2475.69 327.27"/><polygon class="cls-16" points="2477.63 327.49 2466.56 326.26 2473.61 285.32 2484.68 286.55 2477.63 327.49"/><ellipse class="cls-12" cx="2655.22" cy="121.51" rx="9.61" ry="7.93" transform="translate(1751.36 2621.11) rotate(-72.74)"/><path class="cls-13" d="M2554.42,260l9.83-111.56Z"/><line class="cls-13" x1="2600.43" y1="222.5" x2="2600.43" y2="222.51"/><line class="cls-13" x1="2597.87" y1="142.27" x2="2601.28" y2="142.65"/><path class="cls-17" d="M2589.15,52.6s76,42.71,133.55,32.09c0,0,40.1-3.84-11.17,26.89,0,0-116-31.3-130.79-34.87S2544.38,14.58,2589.15,52.6Z"/><path class="cls-21" d="M2583.25,306.15l-3.62-.4a1.14,1.14,0,0,1-1.11-1.25l17.11-99.35a1.32,1.32,0,0,1,1.49-1l3.62.4a1.14,1.14,0,0,1,1.1,1.25l-17.1,99.36A1.32,1.32,0,0,1,2583.25,306.15Z"/><path class="cls-54" d="M2693.64,155.2S2693,144,2679.06,145"/><path class="cls-54" d="M2687.71,147.36s-6.37,19.35-20.45,18.11c0,0-14.58.07-15-11.46"/><polygon class="cls-22" points="2482.62 298.47 2471.55 297.24 2472.53 291.55 2483.61 292.77 2482.62 298.47"/><ellipse class="cls-12" cx="2682.63" cy="122" rx="9.61" ry="7.93" transform="translate(1770.17 2647.64) rotate(-72.74)"/><path class="cls-52" d="M2581.59,195l-.17,14.33s-70-26-94.19,55.71c0,0-11.34,32.15-19.29,23.14,0,0-.9-8.84,4.4-15.19,0,0-9.71,16.69-12.21,14.52s-17.3-1.37-8.52-32.15,83.81-102,130-60.36Z"/><path class="cls-50" d="M2609.12,341.3s-12.95,2.18-16.58-.24l-5.68,17.45-19.53-2.18-1.59,12.6s32.71,11.15,36.11,7.51C2601.85,376.44,2607.76,363.84,2609.12,341.3Z"/><path class="cls-11" d="M2573.91,353l-3.4,23.84L2536,373.71s-14.81,4.71,6.56,14.67,2.68,17-3.53,16.45-27-.73-29.88-2.67-6.53-36.8,4.16-42.88S2532,349.21,2573.91,353Z"/><path class="cls-11" d="M2635.25,378.31l25.41-2.19,2.68,27.08s7.44,10.41,14.16-8,17.25-5.48,17.74-.61,3.84,20.84,2.31,23.43-37.21,12.41-45.37,5.45S2638.5,411.17,2635.25,378.31Z"/></g></svg>