<svg xmlns="http://www.w3.org/2000/svg" width="2799.72" height="977.79" viewBox="0 0 2799.72 977.79"><defs><style>.cls-1,.cls-21,.cls-27{fill:#10465b;}.cls-15,.cls-2,.cls-23{fill:#356fb5;}.cls-14,.cls-22,.cls-3{fill:#366fb5;}.cls-4{fill:#040505;}.cls-16,.cls-5{fill:#864d14;}.cls-11,.cls-17,.cls-24,.cls-30,.cls-31,.cls-32,.cls-33,.cls-34,.cls-35,.cls-6,.cls-9{fill:none;}.cls-6{stroke:#c89b0c;stroke-width:12px;}.cls-11,.cls-30,.cls-31,.cls-32,.cls-33,.cls-34,.cls-35,.cls-6,.cls-8{stroke-miterlimit:10;}.cls-18,.cls-25,.cls-7{fill:#c89b0c;}.cls-8{fill:#010202;}.cls-32,.cls-35,.cls-8{stroke:#1d1d1b;}.cls-10{fill:#864d13;}.cls-11{stroke:#050403;}.cls-12,.cls-19{fill:#050403;}.cls-13,.cls-20,.cls-26{fill:#2a567a;}.cls-14,.cls-15,.cls-16,.cls-17,.cls-18,.cls-19,.cls-20,.cls-21{opacity:0.9;}.cls-22,.cls-23,.cls-24,.cls-25,.cls-26,.cls-27{opacity:0.85;}.cls-28{opacity:0.7;}.cls-29{opacity:0.6;}.cls-30,.cls-33{stroke:#000305;}.cls-30,.cls-31,.cls-32{stroke-width:2px;}.cls-31,.cls-34{stroke:#000102;}.cls-33,.cls-34,.cls-35{stroke-width:3px;}.cls-36{opacity:0.75;}.cls-37{opacity:0.8;}</style></defs><title>Artboard 10</title><g id="_4_recoil" data-name="4 recoil"><path class="cls-1" d="M2243.27,343.15l-15.21-11.94s-4.13,16.69-20.75,30.78l13.61,8.57S2231.72,367.22,2243.27,343.15Z"/><path class="cls-1" d="M874.27,333.17s24.15-14,24.53-19,13,60.73,9.16,61.49-14.13,1.15-16.42-1.91S874.27,333.17,874.27,333.17Z"/><path class="cls-2" d="M1932.87,329.66,1920,341.13l16.31,13.05-3.77,1.31,16.21,12.64s17-4.75,19.33-12S1932.87,329.66,1932.87,329.66Z"/><path class="cls-3" d="M227.23,365.92l-13.87,9.29S194.47,328,180.44,325.06s-.78,0-.78,0l-28.06-1s-22.29,55-32.2,56.82-1,0-1,0l-10.76-15.28s24.55-42.91,21.75-50,66.23,3.89,66.23,3.89S223.33,349.13,227.23,365.92Z"/><path class="cls-4" d="M112.25,350.3l25.51,14L119.38,394s-1.06,15.53,19.43.82,20.4,5.37,17.1,10.72-12.48,24-15.91,25.72-44.47-11-46.75-23.41S89.93,386.37,112.25,350.3Z"/><path class="cls-4" d="M207.78,370.57l27-11.21,14.72,31.49s12.71,9.94,12.12-14.32,16.62-12.38,19.27-6.72,13.29,23.64,12.73,27.25-35.58,27.42-47.6,21.84S225.64,408.78,207.78,370.57Z"/><path class="cls-5" d="M149.83,21.26s25.84-4.48,34.59,8.12S193,45.45,201.47,41.82s12.06-11.77,23.59-7.74,11.38,18.61,11.38,18.61,3,16.33-6.18,19.1L172.6,58.26l-32.28-7.58S128.67,32,149.83,21.26Z"/><path class="cls-2" d="M181.16,65.22s73-6.21,70.57,59.23c-.2,5.59-4.43,55.23-4.7,57.88-5.15,50.4-14.49,116.6-27.92,130.13-28.41,28.64-48.63,36.73-60.74,34.16s-57.9-36.83-54.53-105.3S97.08,119,116.91,80C116.91,80,127.88,60.84,181.16,65.22Z"/><path d="M116.13,58.61,122.06,41a2.57,2.57,0,0,1,3.06-1.44L250,70.12a2.08,2.08,0,0,1,1.69,2.6L245.71,90.3a2.56,2.56,0,0,1-3.06,1.45L117.83,61.22A2.1,2.1,0,0,1,116.13,58.61Z"/><ellipse class="cls-6" cx="92.02" cy="223.18" rx="65.89" ry="52.4" transform="translate(-140.47 288.17) rotate(-83.21)"/><polygon class="cls-7" points="32.96 341.94 25.7 341.52 35.97 215.05 43.23 215.48 32.96 341.94"/><polygon class="cls-5" points="34.91 342.06 23.75 341.4 27.09 300.23 38.26 300.89 34.91 342.06"/><ellipse class="cls-8" cx="194.37" cy="118.88" rx="9.54" ry="8" transform="translate(50.8 295.8) rotate(-82.39)"/><path class="cls-9" d="M106.22,262.42l-.26-112Z"/><line class="cls-9" x1="148.78" y1="222.57" x2="148.78" y2="222.59"/><line class="cls-9" x1="138.97" y1="142.56" x2="142.42" y2="142.76"/><path class="cls-10" d="M122.17,54.3S201.93,93,258.45,79.44c0,0,39.7-5.87-8.73,27.38,0,0-118.63-25.27-133.77-28.07S74,18.69,122.17,54.3Z"/><path class="cls-7" d="M139.18,307l-3.65-.21a1.2,1.2,0,0,1-1.22-1.19l8.11-100.13a1.27,1.27,0,0,1,1.4-1l3.65.22a1.2,1.2,0,0,1,1.22,1.19L140.58,306A1.26,1.26,0,0,1,139.18,307Z"/><path class="cls-11" d="M235.79,150.56s-1.67-11.17-15.48-9.45"/><path class="cls-11" d="M229.16,143s-4.62,19.66-18.79,19.14c0,0-14.55.82-16.06-10.68"/><polygon class="cls-12" points="37.28 306.88 26.12 306.22 26.58 300.5 37.75 301.15 37.28 306.88"/><ellipse class="cls-8" cx="221.8" cy="117.97" rx="9.54" ry="8" transform="translate(75.5 322.19) rotate(-82.39)"/><path class="cls-13" d="M104.7,169.55l17.61-5.08s-7.64,72.25,100.81,64.13c0,0,43.3-1.55,35,8.86,0,0-10.52,4-20.12,1.58,0,0,23.79,2.63,22,5.66s4.3,16-36.42,19.35-153.89-38-118.9-94.5Z"/><path class="cls-13" d="M883,205.49l15-4.37s-11.36,67,79.26,61.58c0,0,36.07-.59,28.47,8.92,0,0-9,3.54-16.82,1.08,0,0,19.58,2.91,17.88,5.69s2.46,15-31.59,17.27S850,257.38,883,205.49Z"/><path class="cls-5" d="M845.93,25.19s25.88-4.32,34.52,8.34,8.41,16.12,16.95,12.55,12.15-11.7,23.64-7.6,11.23,18.68,11.23,18.68,2.83,16.34-6.34,19.06L868.38,62.33l-32.22-7.78S824.68,35.8,845.93,25.19Z"/><path class="cls-2" d="M876.87,70.18s73-5.74,70.07,59.53c-.25,5.58-4.9,55.08-5.19,57.71-5.59,50.26-15.5,116.25-29,129.67-28.65,28.39-48.94,36.34-61,33.7s-57.58-37.1-53.63-105.4-5.72-122,14.45-160.87C812.5,84.52,823.63,65.48,876.87,70.18Z"/><path d="M811.91,62.34,818,44.79a2.57,2.57,0,0,1,3.07-1.42l124.56,31.3a2.09,2.09,0,0,1,1.68,2.62l-6.08,17.54a2.59,2.59,0,0,1-3.07,1.43L813.59,65A2.09,2.09,0,0,1,811.91,62.34Z"/><ellipse class="cls-6" cx="786.44" cy="221.24" rx="65.76" ry="52.39" transform="translate(463.47 971.66) rotate(-82.43)"/><polygon class="cls-7" points="733.91 344.26 726.64 344.05 731.76 217.35 739.03 217.57 733.91 344.26"/><polygon class="cls-5" points="735.87 344.32 724.68 343.99 726.35 302.75 737.54 303.08 735.87 344.32"/><ellipse class="cls-8" cx="889.63" cy="123.8" rx="9.53" ry="8" transform="translate(635.58 985.33) rotate(-81.49)"/><path class="cls-9" d="M800.25,266.47l.7-111.7Z"/><line class="cls-9" x1="843.15" y1="226.97" x2="843.15" y2="226.98"/><line class="cls-9" x1="834.03" y1="147.08" x2="837.47" y2="147.3"/><path class="cls-10" d="M818,58.06s79.44,39.17,136.06,26c0,0,39.75-5.63-9,27.32,0,0-118.41-26-133.53-28.89S770.14,22.15,818,58.06Z"/><path class="cls-7" d="M832.83,311.16l-3.65-.24a1.2,1.2,0,0,1-1.21-1.2l9-99.84a1.26,1.26,0,0,1,1.4-1l3.65.24a1.18,1.18,0,0,1,1.21,1.2l-9,99.84A1.28,1.28,0,0,1,832.83,311.16Z"/><path class="cls-11" d="M930.78,155.67s-1.58-11.16-15.41-9.54"/><path class="cls-11" d="M924.2,148.12s-4.78,19.58-19,19c0,0-14.55.73-16-10.76"/><polygon class="cls-12" points="737.05 315.09 725.87 314.76 726.1 309.02 737.28 309.35 737.05 315.09"/><ellipse class="cls-8" cx="917.06" cy="123.06" rx="9.53" ry="8" transform="translate(659.68 1011.82) rotate(-81.49)"/><path class="cls-13" d="M797,172.55,815.12,176s-50.49,58.21,47.12,99.27c0,0,37.94,17.84,24.52,23,0,0-11.43-1.22-18.15-7.56,0,0,18.73,12.78,15.36,14.56s-6.07,15.55-42.89.38S732.68,205.28,797,172.55Z"/><path class="cls-4" d="M887,351.26l7.79,19.94L869,378.49s-8.48,7.94,10.9,9.83,9.17,12.78,4.54,14.1-19.43,7-22.29,6.31-20.36-27.45-15.39-35.32S855.74,360.11,887,351.26Z"/><path class="cls-13" d="M1586.09,213l11.81-9.22s20,65.15,101,28.55c0,0,32.95-13.14,30.27-1.8,0,0-6.69,6.38-15,6.86,0,0,19.36-4.18,19.06-1.05s9.07,12.81-21.24,26.81-132.7,8.75-125.92-50.15Z"/><path class="cls-4" d="M1503.25,359.33l18.42,17.73-26.26,20s-6,12.51,17.23,5.4,16.63,9.4,11.91,13-19.08,16.72-22.72,17.29-36.49-19.87-34.48-30.65S1471.38,383.57,1503.25,359.33Z"/><path class="cls-4" d="M1591.71,383.23l24-10.43L1633.12,400s13,8.38,9.7-12.8,14.13-11.21,17.26-6.33,15.16,20.34,15.05,23.5-30.14,24.81-42,20.22S1612.82,416.19,1591.71,383.23Z"/><path class="cls-5" d="M1586.5,27.61s26.25-2.52,33.28,10.71S1626.14,55,1635.06,52s13.53-10.82,24.44-5.94,8.85,19.43,8.85,19.43.79,16.5-8.66,18.57l-55.46-17.85-31.06-10S1564.08,36.71,1586.5,27.61Z"/><path class="cls-2" d="M1611.69,74.64S1685,74,1674,138.9c-.94,5.55-11.67,54.61-12.28,57.22-11.75,49.75-29.75,114.91-44.86,127.35-32,26.35-53.12,32.87-64.81,29.39s-52.63-41-40.27-108.87,9.38-122.16,34.21-159.51C1546,84.48,1559.37,66.26,1611.69,74.64Z"/><path d="M1548.11,62.31l8.21-17.08a2.68,2.68,0,0,1,3.23-1.21l119.91,39.87a2,2,0,0,1,1.34,2.73l-8.21,17.08a2.7,2.7,0,0,1-3.23,1.21L1549.45,65A2,2,0,0,1,1548.11,62.31Z"/><ellipse class="cls-6" cx="1503.19" cy="219.08" rx="66.68" ry="51.66" transform="translate(812.28 1571.94) rotate(-71.24)"/><polygon class="cls-7" points="1428.94 332.55 1421.79 331.58 1448.67 206.25 1455.82 207.23 1428.94 332.55"/><polygon class="cls-5" points="1429.93 337.31 1418.92 335.87 1428.75 288.84 1439.76 290.28 1429.93 337.31"/><ellipse class="cls-8" cx="1617.75" cy="129.03" rx="9.67" ry="7.88" transform="translate(918.85 1593.71) rotate(-69.05)"/><path class="cls-9" d="M1511.33,265.17l14.48-111.4Z"/><line class="cls-9" x1="1558.83" y1="228.74" x2="1558.83" y2="228.75"/><line class="cls-9" x1="1559.63" y1="148.39" x2="1563.02" y2="148.86"/><path class="cls-10" d="M1554.67,58.46s74.1,44.59,132,35.37c0,0,40.19-2.86-12.28,26.64,0,0-114.45-34.16-129.12-38.09S1511.56,19.32,1554.67,58.46Z"/><path class="cls-7" d="M1538.19,312l-3.6-.49a1.12,1.12,0,0,1-1-1.28l21.23-99a1.33,1.33,0,0,1,1.52-.92l3.6.49a1.11,1.11,0,0,1,1,1.27l-21.23,99A1.34,1.34,0,0,1,1538.19,312Z"/><path class="cls-11" d="M1654.71,163.67s-.19-11.24-14.13-10.58"/><path class="cls-11" d="M1649.11,155.68s-7.17,19.21-21.17,17.63c0,0-14.56-.29-14.54-11.84"/><polygon class="cls-12" points="1436.84 300.81 1425.84 299.31 1427.05 293.63 1438.05 295.13 1436.84 300.81"/><ellipse class="cls-8" cx="1645.1" cy="130.19" rx="9.67" ry="7.88" transform="translate(935.34 1620) rotate(-69.05)"/><path class="cls-13" d="M1539.77,182.1l7.23,14.45s-84.9.59-67.39,91.81c0,0,5,36.59-7.75,30.58,0,0-5.48-8.53-3.34-16.92,0,0-1.31,20.45-5,19.23s-18.36,5.21-25.28-29,32.9-134.3,101.5-110.14Z"/><path class="cls-5" d="M1897.49,26.21s25.83-4.25,34.6,8.44,8.58,16.15,17.08,12.6,12-11.67,23.56-7.54,11.42,18.73,11.42,18.73,3,16.35-6.14,19l-57.68-14.06L1888,55.55S1876.36,36.75,1897.49,26.21Z"/><path class="cls-2" d="M1928.9,71.3s72.95-5.54,70.69,59.75c-.2,5.58-4.31,55.08-4.58,57.71-5,50.25-14.25,116.23-27.64,129.62-28.35,28.32-48.55,36.21-60.66,33.53s-58-37.27-54.74-105.58-7-122.09,12.73-160.87C1864.7,85.46,1875.63,66.45,1928.9,71.3Z"/><path d="M1863.88,63.27l5.88-17.53a2.55,2.55,0,0,1,3.06-1.42L1997.69,76a2.12,2.12,0,0,1,1.7,2.62l-5.89,17.53a2.55,2.55,0,0,1-3.06,1.42L1865.58,65.89A2.11,2.11,0,0,1,1863.88,63.27Z"/><ellipse class="cls-6" cx="1840.11" cy="222.14" rx="65.67" ry="52.45" transform="translate(1438.18 2031.5) rotate(-84.36)"/><polygon class="cls-7" points="1781.3 339.9 1774.04 339.41 1784.04 213.01 1791.3 213.5 1781.3 339.9"/><polygon class="cls-5" points="1783.26 340.04 1772.09 339.28 1775.34 298.13 1786.51 298.89 1783.26 340.04"/><ellipse class="cls-8" cx="1942.23" cy="124.97" rx="9.51" ry="8.01" transform="translate(1612.44 2043.07) rotate(-83.93)"/><path class="cls-9" d="M1854.39,267.42l-.49-111.73Z"/><line class="cls-9" x1="1896.86" y1="228.04" x2="1896.86" y2="228.05"/><line class="cls-9" x1="1886.89" y1="148.1" x2="1890.33" y2="148.33"/><path class="cls-10" d="M1869.9,59s79.83,39.41,136.3,26.39c0,0,39.68-5.51-8.67,27.3,0,0-118.65-26.35-133.8-29.28S1821.68,23,1869.9,59Z"/><path class="cls-7" d="M1887.44,312.22l-3.65-.25a1.21,1.21,0,0,1-1.22-1.2l7.9-99.85a1.23,1.23,0,0,1,1.39-1l3.65.25a1.2,1.2,0,0,1,1.22,1.2l-7.89,99.84A1.26,1.26,0,0,1,1887.44,312.22Z"/><path class="cls-11" d="M1983.71,157s-1.7-11.17-15.51-9.58"/><path class="cls-11" d="M1977.05,149.39s-4.57,19.58-18.74,18.93c0,0-14.54.69-16.07-10.8"/><polygon class="cls-12" points="1785.56 310.88 1774.4 310.12 1774.85 304.39 1786.02 305.15 1785.56 310.88"/><ellipse class="cls-8" cx="1969.64" cy="124.31" rx="9.51" ry="8.01" transform="translate(1637.61 2069.74) rotate(-83.93)"/><path class="cls-13" d="M1848,219.18l10-13.26s47.18,60.7,125.6-2.78c0,0,32.55-24,33.76-11.48,0,0-5.22,8.69-14.49,11.83,0,0,20.45-10.47,21.28-7.15s15.12,10.29-14.11,34.36S1862.34,282,1848,219.18Z"/><path class="cls-4" d="M1852.91,358.78l23.82,13-18.49,24.91s-1.52,13.33,18.47,1.42,19.24,5.38,15.92,9.86-12.68,20.22-16,21.56-42-11.09-43.72-21.87S1830.47,389,1852.91,358.78Z"/><path class="cls-4" d="M1931.86,354.38l19,13.25-19.76,20.89s-3.23,11.76,16,2.56,16.11,6.15,12.56,9.91-14,17.11-17.09,18.07-35.22-12.83-35.22-22.56S1907.89,379.73,1931.86,354.38Z"/><path class="cls-5" d="M489.94,25.28s25.65-5.25,34.9,7.09S534,48.18,542.39,44.3,554,32.18,565.64,35.87s12.14,18.27,12.14,18.27,3.63,16.22-5.4,19.27L514.2,61.58,481.63,55S469.23,36.63,489.94,25.28Z"/><path class="cls-2" d="M525.07,69.12s72.68-8.35,72.94,57c0,5.58-2.19,55.2-2.35,57.84-3.1,50.41-9.76,116.7-22.62,130.59-27.23,29.39-47.12,38.05-59.33,35.85S454.36,315.37,455,247s-11.73-121.73,6.51-161.25C461.46,85.74,471.65,66.32,525.07,69.12Z"/><path d="M457.78,63.6,463,45.86a2.54,2.54,0,0,1,3-1.54L592,71.15a2.12,2.12,0,0,1,1.8,2.56l-5.2,17.74a2.55,2.55,0,0,1-3,1.53l-126-26.82A2.12,2.12,0,0,1,457.78,63.6Z"/><ellipse class="cls-6" cx="442.16" cy="223.27" rx="65.67" ry="52.45" transform="translate(192.83 651.28) rotate(-86.57)"/><polygon class="cls-7" points="385.94 343.22 378.67 343.01 383.78 216.31 391.06 216.53 385.94 343.22"/><polygon class="cls-5" points="387.9 343.28 376.71 342.95 378.38 301.71 389.56 302.03 387.9 343.28"/><ellipse class="cls-8" cx="538.46" cy="122.24" rx="9.51" ry="8.01" transform="translate(380.22 651.23) rotate(-86.14)"/><path class="cls-9" d="M458.18,268l-4.8-111.62Z"/><line class="cls-9" x1="499.1" y1="226.98" x2="499.1" y2="226.99"/><line class="cls-9" x1="486.05" y1="147.48" x2="489.5" y2="147.58"/><path class="cls-10" d="M463.64,59.11s81.29,36.3,137.22,21.11c0,0,39.44-7-7.61,27.61,0,0-119.59-21.75-134.84-24.09S414.07,24.94,463.64,59.11Z"/><path class="cls-7" d="M492.93,311.46l-3.66-.11A1.2,1.2,0,0,1,488,310.2l4-100.08A1.24,1.24,0,0,1,493.4,209l3.66.11a1.21,1.21,0,0,1,1.27,1.15l-4,100.08A1.25,1.25,0,0,1,492.93,311.46Z"/><path class="cls-11" d="M583.14,152.6s-2.13-11.09-15.87-9"/><path class="cls-11" d="M576.2,145.3s-3.81,19.74-18,19.64c0,0-14.51,1.24-16.48-10.18"/><polygon class="cls-12" points="389.08 314.05 377.89 313.72 378.12 307.98 389.31 308.31 389.08 314.05"/><ellipse class="cls-8" cx="565.83" cy="120.52" rx="9.51" ry="8.01" transform="translate(407.46 676.94) rotate(-86.14)"/><path class="cls-13" d="M449.92,220l9.45-13.63s49.49,58.83,125.4-7.63c0,0,31.61-25.25,33.3-12.78,0,0-4.88,8.9-14,12.39,0,0,20-11.25,21-8s15.5,9.71-12.78,34.88S466.68,282.2,449.92,220Z"/><path class="cls-13" d="M2283.42,203.52l15-4.37s-11.35,67,79.27,61.58c0,0,36.07-.6,28.46,8.92,0,0-9,3.54-16.82,1.08,0,0,19.58,2.91,17.89,5.69s2.46,15-31.59,17.27-125.16-38.29-92.18-90.17Z"/><path class="cls-5" d="M2246.37,23.22s25.88-4.33,34.52,8.33,8.4,16.13,16.94,12.55,12.16-11.7,23.65-7.6,11.23,18.69,11.23,18.69,2.82,16.34-6.35,19.06l-57.54-13.89-32.22-7.78S2225.11,33.82,2246.37,23.22Z"/><path class="cls-2" d="M2277.31,68.21s73-5.74,70.06,59.53c-.25,5.58-4.9,55.08-5.19,57.71-5.58,50.25-15.49,116.25-29,129.66-28.65,28.4-49,36.34-61,33.7s-57.58-37.1-53.62-105.39-5.72-122,14.44-160.88C2212.93,82.54,2224.07,63.51,2277.31,68.21Z"/><path d="M2212.35,60.36l6.07-17.54a2.59,2.59,0,0,1,3.08-1.43L2346.06,72.7a2.07,2.07,0,0,1,1.67,2.61l-6.08,17.55a2.56,2.56,0,0,1-3.07,1.42L2214,63A2.09,2.09,0,0,1,2212.35,60.36Z"/><ellipse class="cls-6" cx="2186.88" cy="219.26" rx="65.76" ry="52.39" transform="translate(1681.25 2358.16) rotate(-82.43)"/><polygon class="cls-7" points="2132.35 346.29 2125.08 346.07 2130.19 219.38 2137.46 219.59 2132.35 346.29"/><polygon class="cls-5" points="2134.31 346.34 2123.12 346.01 2124.79 304.77 2135.97 305.1 2134.31 346.34"/><ellipse class="cls-8" cx="2290.06" cy="121.83" rx="9.53" ry="8" transform="translate(1830.79 2368.67) rotate(-81.49)"/><path class="cls-9" d="M2200.69,264.49l.69-111.69Z"/><line class="cls-9" x1="2243.58" y1="225" x2="2243.58" y2="225.01"/><line class="cls-9" x1="2234.46" y1="145.11" x2="2237.9" y2="145.33"/><path class="cls-10" d="M2218.42,56.08s79.43,39.17,136.06,26c0,0,39.75-5.62-9,27.32,0,0-118.4-26-133.52-28.89S2170.57,20.18,2218.42,56.08Z"/><path class="cls-7" d="M2233.27,309.18l-3.66-.24a1.17,1.17,0,0,1-1.2-1.19l9-99.85a1.26,1.26,0,0,1,1.41-1l3.65.24a1.19,1.19,0,0,1,1.21,1.19l-9,99.85A1.25,1.25,0,0,1,2233.27,309.18Z"/><path class="cls-11" d="M2331.21,153.69s-1.57-11.16-15.4-9.53"/><path class="cls-11" d="M2324.64,146.14s-4.78,19.59-18.95,19c0,0-14.56.73-16-10.75"/><polygon class="cls-12" points="2135.49 317.11 2124.3 316.79 2124.53 311.05 2135.72 311.38 2135.49 317.11"/><ellipse class="cls-8" cx="2317.5" cy="121.09" rx="9.53" ry="8" transform="translate(1854.89 2395.17) rotate(-81.49)"/><path class="cls-13" d="M2197.42,170.58l18.14,3.46s-50.49,58.21,47.11,99.28c0,0,37.95,17.83,24.53,23,0,0-11.44-1.21-18.16-7.55,0,0,18.74,12.77,15.37,14.56s-6.07,15.55-42.9.38-108.4-100.45-44.09-133.17Z"/><path class="cls-4" d="M2207.65,355.81l23.52,12.33-17,26.18s-1,13.68,17.91.72,18.8,4.74,15.76,9.45-11.5,21.16-14.66,22.65-41-9.66-43.08-20.62S2187.09,387.59,2207.65,355.81Z"/><path class="cls-1" d="M201.61,327.53l-10.23,6.94s19.67,31.92,19.67,34l16.53-6.25S220.49,340,201.61,327.53Z"/><path class="cls-1" d="M1530.5,334.14l11.73,12.76s-11,18.2-23.17,27.86l-14-13.79S1531.16,336.11,1530.5,334.14Z"/><path class="cls-3" d="M838.26,342.41l-14.06-13s-14.43,35.89-19.61,41.81l14.8,6.29S840.48,347.59,838.26,342.41Z"/><path class="cls-4" d="M804.72,360l23.51,12.33-16.94,26.19s-1,13.67,17.9.72S848,403.92,845,408.63s-11.5,21.16-14.66,22.66-41-9.67-43.08-20.62S784.16,391.73,804.72,360Z"/><path class="cls-1" d="M559.83,324,547,335.43l16.31,13-3.76,1.31,16.2,12.65s17-4.75,19.34-12S559.83,324,559.83,324Z"/><path class="cls-4" d="M558.35,348.52l21.7,15.82L558,386.67s-3.5,13,18.12,3.71,18.29,7.73,14.32,11.74-15.59,18.41-19.08,19.32-40-16.21-40.13-27.09S531.58,375.62,558.35,348.52Z"/><path class="cls-2" d="M2288.52,333.28s23.56-15.43,23.75-20.59,15.4,62.39,11.62,63.32-14.08,1.74-16.49-1.34S2288.52,333.28,2288.52,333.28Z"/><path class="cls-4" d="M2299.55,354.22l8.82,22.6-29.19,8.26s-9.61,9,12.36,11.14,10.39,14.49,5.14,16-22,8-25.26,7.16-23.07-31.11-17.44-40S2264.12,364.25,2299.55,354.22Z"/><path class="cls-3" d="M504,341.65l-15.22-11.94s-4.13,16.7-20.74,30.79l13.6,8.57S492.44,365.73,504,341.65Z"/><path class="cls-4" d="M462.54,356.48l24.3,12.06-17.51,25.61s-1,13.38,18.51.71,19.44,4.63,16.29,9.23-11.89,20.7-15.15,22.16-42.37-9.45-44.54-20.16S441.28,387.56,462.54,356.48Z"/><path class="cls-1" d="M1895.24,343,1880,331s-4.13,16.7-20.74,30.79l13.6,8.57S1883.68,367.05,1895.24,343Z"/><polygon class="cls-3" points="1564.42 346.76 1586.67 340.93 1615.04 377.14 1598.39 385.06 1564.42 346.76"/><path class="cls-1" d="M2644.85,309.37l-46.66,3.43s51.43,76.18,42.5,86.59l22.55-1.19-36-86.94"/><path class="cls-1" d="M1209.74,347.15s-13,2.18-16.58-.24l-5.68,17.45-19.54-2.18-1.59,12.6s32.71,11.15,36.12,7.51C1202.47,382.29,1208.38,369.69,1209.74,347.15Z"/><path class="cls-13" d="M1239.89,218.56l8.51-9.88s31.72,53.61,95.81,9.09c0,0,26.44-16.59,26.5-6.29,0,0-4.58,6.6-11.86,8.31,0,0,16.3-6.66,16.7-3.89s10.8,9.74-13.12,26.66-116,28.34-122.54-24Z"/><path class="cls-3" d="M1245.47,315.22l-46.67,3.43s51.44,76.18,42.51,86.59l22.55-1.19-36-86.94"/><path class="cls-4" d="M1174.52,358.81l-3.4,23.84-34.53-3.09s-14.82,4.71,6.55,14.67,2.68,17-3.52,16.45-27-.73-29.88-2.67-6.54-36.8,4.16-42.89S1132.62,355.06,1174.52,358.81Z"/><path class="cls-5" d="M1221.74,25.79s26.16-3.16,33.74,9.88,7.07,16.49,15.87,13.3,13.08-11.14,24.21-6.53,9.66,19.18,9.66,19.18,1.48,16.45-7.88,18.75l-56.25-16.46-31.49-9.22S1199.68,35.43,1221.74,25.79Z"/><path class="cls-2" d="M1248.91,72.13s73.3-2.45,65,62.63c-.7,5.56-9.39,54.81-9.9,57.43-9.68,50-25,115.45-39.56,128.25-30.89,27.08-51.78,34.1-63.62,30.92S1146.45,311.7,1156,243.65s4.28-122.2,27.57-160.09C1183.55,83.56,1196.21,65,1248.91,72.13Z"/><path d="M1184.78,61.37l7.5-17.25a2.66,2.66,0,0,1,3.18-1.29l121.65,36.88a2,2,0,0,1,1.45,2.69l-7.5,17.25a2.64,2.64,0,0,1-3.18,1.29L1186.23,64.06A2,2,0,0,1,1184.78,61.37Z"/><ellipse class="cls-6" cx="1146.38" cy="218.99" rx="66.29" ry="51.96" transform="translate(632.18 1266.73) rotate(-74.67)"/><polygon class="cls-7" points="1077.72 332.04 1070.53 331.25 1092.18 205.47 1099.38 206.26 1077.72 332.04"/><polygon class="cls-5" points="1079.66 332.26 1068.59 331.03 1075.64 290.09 1086.71 291.31 1079.66 332.26"/><ellipse class="cls-8" cx="1257.25" cy="126.28" rx="9.61" ry="7.93" transform="translate(763.63 1289.45) rotate(-72.74)"/><path class="cls-9" d="M1156.45,264.8l9.83-111.57Z"/><line class="cls-9" x1="1202.46" y1="227.27" x2="1202.46" y2="227.28"/><line class="cls-9" x1="1199.9" y1="147.04" x2="1203.31" y2="147.42"/><path class="cls-10" d="M1191.18,57.37s76,42.71,133.56,32.08c0,0,40.09-3.83-11.18,26.9,0,0-116-31.31-130.79-34.87S1146.41,19.35,1191.18,57.37Z"/><path class="cls-7" d="M1185.28,310.92l-3.62-.4a1.13,1.13,0,0,1-1.1-1.25l17.1-99.36a1.32,1.32,0,0,1,1.49-1l3.62.4a1.14,1.14,0,0,1,1.11,1.25L1186.77,310A1.32,1.32,0,0,1,1185.28,310.92Z"/><path class="cls-11" d="M1295.67,160s-.65-11.23-14.58-10.22"/><path class="cls-11" d="M1289.74,152.13s-6.37,19.35-20.45,18.11c0,0-14.58.07-15-11.46"/><polygon class="cls-12" points="1084.65 303.24 1073.59 302.01 1074.57 296.31 1085.64 297.54 1084.65 303.24"/><ellipse class="cls-8" cx="1284.66" cy="126.77" rx="9.61" ry="7.93" transform="translate(782.44 1315.97) rotate(-72.74)"/><path class="cls-13" d="M1183.62,199.73l-.17,14.33s-70-26-94.19,55.71c0,0-11.34,32.15-19.29,23.14,0,0-.9-8.84,4.41-15.19,0,0-9.72,16.69-12.22,14.52s-17.3-1.38-8.52-32.15,83.81-102,130-60.36Z"/><path class="cls-4" d="M1235.87,384.16l25.41-2.19,2.68,27.08s7.43,10.41,14.16-8,17.25-5.48,17.73-.61,3.84,20.84,2.32,23.43-37.21,12.41-45.37,5.45S1239.12,417,1235.87,384.16Z"/><path class="cls-13" d="M2637.85,213.79l8.51-9.87s31.73,53.6,95.82,9.08c0,0,26.44-16.59,26.5-6.29,0,0-4.58,6.6-11.86,8.32,0,0,16.3-6.67,16.7-3.9s10.8,9.74-13.12,26.66-116,28.34-122.55-24Z"/><path class="cls-5" d="M2619.71,21s26.16-3.15,33.74,9.88,7.07,16.49,15.87,13.3,13.08-11.14,24.2-6.53,9.67,19.18,9.67,19.18,1.48,16.45-7.88,18.76l-56.25-16.47-31.49-9.22S2597.65,30.66,2619.71,21Z"/><path class="cls-2" d="M2646.88,67.37s73.29-2.46,65,62.62c-.71,5.57-9.39,54.81-9.9,57.43-9.68,50-25,115.45-39.56,128.25-30.89,27.08-51.78,34.11-63.62,30.92s-54.38-39.65-44.85-107.71,4.28-122.19,27.57-160.09C2581.52,78.79,2594.18,60.27,2646.88,67.37Z"/><path d="M2582.75,56.61l7.49-17.26a2.67,2.67,0,0,1,3.19-1.28l121.64,36.87a2,2,0,0,1,1.46,2.69L2709,94.89a2.65,2.65,0,0,1-3.18,1.28L2584.2,59.3A2,2,0,0,1,2582.75,56.61Z"/><ellipse class="cls-6" cx="2544.35" cy="214.22" rx="66.29" ry="51.96" transform="translate(1665.26 2611.48) rotate(-74.67)"/><polygon class="cls-7" points="2475.69 327.27 2468.49 326.48 2490.15 200.7 2497.35 201.5 2475.69 327.27"/><polygon class="cls-5" points="2477.63 327.49 2466.56 326.26 2473.61 285.32 2484.68 286.55 2477.63 327.49"/><ellipse class="cls-8" cx="2655.22" cy="121.51" rx="9.61" ry="7.93" transform="translate(1751.36 2621.11) rotate(-72.74)"/><path class="cls-9" d="M2554.42,260l9.83-111.56Z"/><line class="cls-9" x1="2600.43" y1="222.5" x2="2600.43" y2="222.51"/><line class="cls-9" x1="2597.87" y1="142.27" x2="2601.28" y2="142.65"/><path class="cls-10" d="M2589.15,52.6s76,42.71,133.55,32.09c0,0,40.1-3.84-11.17,26.89,0,0-116-31.3-130.79-34.87S2544.38,14.58,2589.15,52.6Z"/><path class="cls-7" d="M2583.25,306.15l-3.62-.4a1.14,1.14,0,0,1-1.11-1.25l17.11-99.35a1.32,1.32,0,0,1,1.49-1l3.62.4a1.14,1.14,0,0,1,1.1,1.25l-17.1,99.36A1.32,1.32,0,0,1,2583.25,306.15Z"/><path class="cls-11" d="M2693.64,155.2S2693,144,2679.06,145"/><path class="cls-11" d="M2687.71,147.36s-6.37,19.35-20.45,18.11c0,0-14.58.07-15-11.46"/><polygon class="cls-12" points="2482.62 298.47 2471.55 297.24 2472.53 291.55 2483.61 292.77 2482.62 298.47"/><ellipse class="cls-8" cx="2682.63" cy="122" rx="9.61" ry="7.93" transform="translate(1770.17 2647.64) rotate(-72.74)"/><path class="cls-13" d="M2581.59,195l-.17,14.33s-70-26-94.19,55.71c0,0-11.34,32.15-19.29,23.14,0,0-.9-8.84,4.4-15.19,0,0-9.71,16.69-12.21,14.52s-17.3-1.37-8.52-32.15,83.81-102,130-60.36Z"/><path class="cls-3" d="M2609.12,341.3s-12.95,2.18-16.58-.24l-5.68,17.45-19.53-2.18-1.59,12.6s32.71,11.15,36.11,7.51C2601.85,376.44,2607.76,363.84,2609.12,341.3Z"/><path class="cls-4" d="M2573.91,353l-3.4,23.84L2536,373.71s-14.81,4.71,6.56,14.67,2.68,17-3.53,16.45-27-.73-29.88-2.67-6.53-36.8,4.16-42.88S2532,349.21,2573.91,353Z"/><path class="cls-4" d="M2635.25,378.31l25.41-2.19,2.68,27.08s7.44,10.41,14.16-8,17.25-5.48,17.74-.61,3.84,20.84,2.31,23.43-37.21,12.41-45.37,5.45S2638.5,411.17,2635.25,378.31Z"/><path class="cls-3" d="M229.82,853.48,216,862.77S197.07,815.55,183,812.62s-.78,0-.78,0l-28.06-1s-22.29,55-32.2,56.82-.95,0-.95,0l-10.76-15.28s24.55-42.91,21.75-50S198.26,807,198.26,807,225.93,836.69,229.82,853.48Z"/><path class="cls-4" d="M114.84,837.86l25.51,14L122,881.58s-1.06,15.53,19.43.82,20.41,5.37,17.1,10.72-12.48,24-15.91,25.72-44.47-11-46.75-23.41S92.52,873.93,114.84,837.86Z"/><path class="cls-4" d="M210.37,858.13l27-11.21,14.72,31.49s12.71,9.94,12.13-14.32,16.62-12.38,19.26-6.72S296.8,881,296.24,884.62s-35.58,27.42-47.6,21.84S228.23,896.34,210.37,858.13Z"/><path class="cls-2" d="M183.75,552.78s73-6.21,70.57,59.23c-.2,5.59-4.42,55.23-4.7,57.88-5.15,50.4-14.49,116.6-27.92,130.13-28.41,28.64-48.63,36.73-60.74,34.16s-57.9-36.83-54.53-105.3S99.67,606.6,119.5,567.55C119.5,567.55,130.47,548.4,183.75,552.78Z"/><ellipse class="cls-6" cx="94.61" cy="710.74" rx="65.89" ry="52.4" transform="translate(-622.33 720.65) rotate(-83.21)"/><polygon class="cls-7" points="35.55 829.5 28.29 829.08 38.56 702.61 45.82 703.04 35.55 829.5"/><polygon class="cls-5" points="37.51 829.62 26.34 828.96 29.68 787.79 40.85 788.45 37.51 829.62"/><path class="cls-9" d="M108.81,750l-.26-112Z"/><line class="cls-9" x1="151.37" y1="710.14" x2="151.37" y2="710.15"/><line class="cls-9" x1="141.56" y1="630.12" x2="145.01" y2="630.32"/><path class="cls-7" d="M141.77,794.58l-3.65-.22a1.2,1.2,0,0,1-1.22-1.19L145,693a1.27,1.27,0,0,1,1.4-1l3.65.22a1.2,1.2,0,0,1,1.22,1.19l-8.11,100.13A1.27,1.27,0,0,1,141.77,794.58Z"/><polygon class="cls-12" points="39.87 794.44 28.71 793.78 29.17 788.06 40.34 788.71 39.87 794.44"/><path class="cls-13" d="M107.29,657.11,124.9,652s-7.64,72.25,100.81,64.13c0,0,43.3-1.55,35,8.86,0,0-10.52,4-20.12,1.58,0,0,23.79,2.63,22,5.66s4.3,16-36.42,19.35-153.89-38-118.9-94.5Z"/><path class="cls-1" d="M204.2,815.09,194,822s19.67,31.92,19.67,34l16.53-6.25S223.09,827.58,204.2,815.09Z"/><path class="cls-14" d="M575.85,852.41,562,861.7s-18.88-47.22-32.91-50.15-.78,0-.78,0l-28.07-1s-22.29,55-32.19,56.81-1,0-1,0l-10.76-15.28s24.55-42.91,21.76-50,66.22,3.9,66.22,3.9S572,835.62,575.85,852.41Z"/><path class="cls-4" d="M460.87,836.79l25.52,14L468,880.51s-1.06,15.53,19.43.82,20.41,5.38,17.1,10.72-12.48,24-15.9,25.72-44.48-11-46.76-23.41S438.56,872.86,460.87,836.79Z"/><path class="cls-4" d="M556.4,857.06l27-11.21,14.72,31.49s12.71,9.94,12.13-14.32,16.62-12.38,19.27-6.72,13.28,23.64,12.73,27.25S606.7,911,594.68,905.39,574.26,895.27,556.4,857.06Z"/><path class="cls-15" d="M529.78,551.71s73-6.21,70.58,59.23c-.21,5.59-4.43,55.23-4.7,57.88-5.15,50.4-14.5,116.6-27.92,130.13-28.41,28.64-48.63,36.73-60.75,34.16s-57.89-36.83-54.52-105.3-6.77-122.28,13.06-161.33C465.53,566.48,476.51,547.33,529.78,551.71Z"/><ellipse class="cls-6" cx="440.65" cy="709.67" rx="65.89" ry="52.4" transform="translate(-316.15 1063.32) rotate(-83.21)"/><polygon class="cls-7" points="381.59 828.43 374.33 828.01 384.59 701.54 391.85 701.97 381.59 828.43"/><polygon class="cls-16" points="383.54 828.55 372.37 827.89 375.71 786.72 386.88 787.38 383.54 828.55"/><path class="cls-17" d="M454.85,748.92l-.27-112Z"/><line class="cls-17" x1="497.4" y1="709.07" x2="497.4" y2="709.08"/><line class="cls-17" x1="487.6" y1="629.05" x2="491.04" y2="629.25"/><path class="cls-18" d="M487.81,793.51l-3.66-.22a1.19,1.19,0,0,1-1.21-1.19L491.05,692a1.24,1.24,0,0,1,1.39-1l3.66.21a1.19,1.19,0,0,1,1.21,1.19L489.2,792.47A1.26,1.26,0,0,1,487.81,793.51Z"/><polygon class="cls-19" points="385.91 793.37 374.74 792.72 375.21 786.99 386.37 787.64 385.91 793.37"/><path class="cls-20" d="M453.33,656,470.94,651s-7.64,72.25,100.81,64.13c0,0,43.3-1.55,35,8.86,0,0-10.51,4-20.12,1.58,0,0,23.8,2.63,22,5.66s4.3,16-36.42,19.35-153.89-38-118.9-94.5Z"/><path class="cls-21" d="M550.24,814,540,821s19.67,31.92,19.67,34l16.52-6.25S569.12,826.51,550.24,814Z"/><path class="cls-22" d="M926.21,853.34l-13.86,9.29s-18.89-47.21-32.92-50.14-.78,0-.78,0l-28.07-1s-22.29,55-32.19,56.82-1,0-1,0L806.68,853s24.55-42.91,21.75-50,66.23,3.9,66.23,3.9S922.32,836.55,926.21,853.34Z"/><path class="cls-4" d="M811.23,837.72l25.52,14-18.38,29.73s-1.06,15.52,19.43.81,20.4,5.38,17.1,10.72S842.41,917,839,918.7s-44.48-11-46.75-23.4S788.92,873.8,811.23,837.72Z"/><path class="cls-4" d="M906.77,858l27-11.2,14.71,31.49s12.71,9.93,12.13-14.32,16.62-12.38,19.27-6.72,13.29,23.63,12.73,27.24S957.06,911.9,945,906.32,924.63,896.2,906.77,858Z"/><path class="cls-23" d="M880.14,552.65s73-6.21,70.58,59.23c-.2,5.59-4.43,55.23-4.7,57.87-5.15,50.4-14.5,116.61-27.92,130.14-28.41,28.64-48.63,36.72-60.74,34.15s-57.9-36.82-54.53-105.3-6.76-122.28,13.07-161.32C815.9,567.42,826.87,548.27,880.14,552.65Z"/><ellipse class="cls-6" cx="791.01" cy="710.61" rx="65.89" ry="52.4" transform="translate(-8.14 1412.05) rotate(-83.21)"/><polygon class="cls-7" points="731.95 829.37 724.69 828.94 734.96 702.47 742.21 702.9 731.95 829.37"/><polygon class="cls-5" points="733.9 829.48 722.74 828.83 726.08 787.66 737.25 788.32 733.9 829.48"/><path class="cls-24" d="M805.21,749.85l-.26-112Z"/><line class="cls-24" x1="847.77" y1="710" x2="847.77" y2="710.01"/><line class="cls-24" x1="837.96" y1="629.99" x2="841.4" y2="630.19"/><path class="cls-25" d="M838.17,794.44l-3.65-.22A1.19,1.19,0,0,1,833.3,793l8.11-100.12a1.26,1.26,0,0,1,1.4-1l3.65.21a1.21,1.21,0,0,1,1.22,1.2L839.57,793.4A1.26,1.26,0,0,1,838.17,794.44Z"/><polygon class="cls-12" points="736.27 794.31 725.1 793.65 725.57 787.92 736.74 788.58 736.27 794.31"/><path class="cls-26" d="M803.69,657l17.61-5.07S813.66,724.14,922.11,716c0,0,43.3-1.55,35,8.86,0,0-10.51,4-20.12,1.58,0,0,23.8,2.64,22,5.66s4.3,16-36.42,19.35-153.89-38-118.9-94.5Z"/><path class="cls-27" d="M900.6,815l-10.23,6.94s19.67,31.91,19.67,34l16.52-6.24S919.48,827.45,900.6,815Z"/><g class="cls-28"><path class="cls-3" d="M1977,854.91l-13.86,9.29s-18.89-47.21-32.92-50.14-.78,0-.78,0l-28.07-1s-22.29,55-32.19,56.82-1,0-1,0l-10.76-15.29s24.55-42.91,21.76-50,66.22,3.9,66.22,3.9S1973.12,838.12,1977,854.91Z"/><path class="cls-4" d="M1862,839.29l25.52,14L1869.16,883s-1.05,15.52,19.43.81,20.41,5.38,17.11,10.72-12.49,24-15.91,25.72-44.48-11-46.76-23.4S1839.72,875.37,1862,839.29Z"/><path class="cls-4" d="M1957.57,859.56l27-11.2,14.72,31.49s12.71,9.93,12.13-14.32,16.62-12.38,19.27-6.72,13.28,23.63,12.73,27.24-35.58,27.42-47.6,21.84S1975.42,897.77,1957.57,859.56Z"/><path class="cls-5" d="M1899.62,510.26s25.84-4.49,34.59,8.12,8.55,16.07,17,12.44,12.06-11.78,23.58-7.75,11.39,18.62,11.39,18.62,3,16.32-6.18,19.1l-57.66-13.54-32.29-7.58S1878.46,521,1899.62,510.26Z"/><path class="cls-2" d="M1930.94,554.22s73-6.21,70.58,59.23c-.21,5.59-4.43,55.23-4.7,57.87-5.15,50.4-14.5,116.61-27.92,130.14-28.41,28.64-48.63,36.72-60.75,34.15s-57.89-36.82-54.52-105.3S1846.86,608,1866.69,569C1866.69,569,1877.67,549.84,1930.94,554.22Z"/><path d="M1865.92,547.61l5.93-17.58a2.56,2.56,0,0,1,3.06-1.45l124.82,30.53a2.1,2.1,0,0,1,1.7,2.61l-5.93,17.58a2.56,2.56,0,0,1-3.06,1.44l-124.83-30.52A2.09,2.09,0,0,1,1865.92,547.61Z"/><ellipse class="cls-6" cx="1841.81" cy="712.18" rx="65.89" ry="52.4" transform="translate(916.85 2456.86) rotate(-83.21)"/><polygon class="cls-7" points="1782.75 830.94 1775.49 830.51 1785.75 704.04 1793.01 704.47 1782.75 830.94"/><polygon class="cls-5" points="1784.7 831.05 1773.53 830.39 1776.88 789.23 1788.04 789.88 1784.7 831.05"/><path class="cls-9" d="M1856,751.42l-.27-111.95Z"/><line class="cls-9" x1="1898.56" y1="711.57" x2="1898.56" y2="711.58"/><line class="cls-9" x1="1888.76" y1="631.56" x2="1892.2" y2="631.76"/><path class="cls-10" d="M1872,543.29s79.77,38.68,136.28,25.14c0,0,39.7-5.87-8.73,27.38,0,0-118.62-25.27-133.77-28.06S1823.8,507.68,1872,543.29Z"/><path class="cls-7" d="M1889,796l-3.66-.22a1.18,1.18,0,0,1-1.21-1.19l8.11-100.12a1.25,1.25,0,0,1,1.39-1l3.66.21a1.2,1.2,0,0,1,1.21,1.2L1890.36,795A1.25,1.25,0,0,1,1889,796Z"/><polygon class="cls-12" points="1787.07 795.88 1775.9 795.22 1776.37 789.49 1787.53 790.15 1787.07 795.88"/><path class="cls-13" d="M1854.49,658.54l17.61-5.07s-7.64,72.24,100.81,64.12c0,0,43.3-1.55,35,8.86,0,0-10.51,4-20.12,1.58,0,0,23.8,2.64,22,5.66s4.3,16-36.42,19.35-153.89-37.95-118.9-94.5Z"/><path class="cls-1" d="M1951.4,816.53l-10.23,6.94s19.67,31.91,19.67,34l16.52-6.24S1970.28,829,1951.4,816.53Z"/></g><g class="cls-29"><path class="cls-3" d="M2327.08,855.38l-13.87,9.29s-18.88-47.22-32.91-50.15-.78,0-.78,0l-28.07-1s-22.29,55-32.19,56.82-1,0-1,0l-10.76-15.28s24.55-42.91,21.76-50,66.22,3.89,66.22,3.89S2323.19,838.59,2327.08,855.38Z"/><path class="cls-4" d="M2212.1,839.75l25.52,14-18.39,29.73s-1.06,15.52,19.43.82,20.41,5.37,17.1,10.72-12.48,24-15.9,25.72-44.48-11-46.76-23.41S2189.79,875.83,2212.1,839.75Z"/><path class="cls-4" d="M2307.63,860l27-11.2,14.72,31.49s12.71,9.94,12.13-14.32,16.62-12.38,19.27-6.72,13.28,23.64,12.73,27.25-35.58,27.41-47.6,21.84S2325.49,898.24,2307.63,860Z"/><path class="cls-5" d="M2249.69,510.72s25.84-4.49,34.59,8.12,8.54,16.07,17,12.44,12.06-11.77,23.58-7.74,11.39,18.61,11.39,18.61,3,16.32-6.18,19.1l-57.66-13.53-32.29-7.58S2228.53,521.45,2249.69,510.72Z"/><path class="cls-2" d="M2281,554.68s73-6.21,70.58,59.23c-.21,5.59-4.43,55.23-4.7,57.87-5.15,50.41-14.5,116.61-27.92,130.14-28.41,28.64-48.64,36.73-60.75,34.15s-57.89-36.82-54.52-105.3-6.77-122.28,13.06-161.32C2216.76,569.45,2227.74,550.3,2281,554.68Z"/><path d="M2216,548.07l5.92-17.58a2.58,2.58,0,0,1,3.07-1.44l124.82,30.53a2.09,2.09,0,0,1,1.7,2.6l-5.93,17.58a2.56,2.56,0,0,1-3.06,1.45l-124.83-30.53A2.09,2.09,0,0,1,2216,548.07Z"/><ellipse class="cls-6" cx="2191.88" cy="712.64" rx="65.89" ry="52.4" transform="translate(1225.06 2804.88) rotate(-83.21)"/><polygon class="cls-7" points="2132.82 831.4 2125.56 830.97 2135.82 704.51 2143.08 704.93 2132.82 831.4"/><polygon class="cls-5" points="2134.77 831.52 2123.6 830.86 2126.94 789.69 2138.11 790.35 2134.77 831.52"/><path class="cls-9" d="M2206.08,751.88l-.27-112Z"/><line class="cls-9" x1="2248.63" y1="712.03" x2="2248.63" y2="712.05"/><line class="cls-9" x1="2238.83" y1="632.02" x2="2242.27" y2="632.22"/><path class="cls-10" d="M2222,543.75s79.77,38.68,136.28,25.15c0,0,39.7-5.87-8.73,27.38,0,0-118.63-25.27-133.77-28.07S2173.87,508.15,2222,543.75Z"/><path class="cls-7" d="M2239,796.47l-3.66-.21a1.2,1.2,0,0,1-1.21-1.2l8.1-100.12a1.27,1.27,0,0,1,1.4-1l3.66.22a1.19,1.19,0,0,1,1.21,1.19l-8.11,100.12A1.24,1.24,0,0,1,2239,796.47Z"/><polygon class="cls-12" points="2137.14 796.34 2125.97 795.68 2126.43 789.95 2137.6 790.61 2137.14 796.34"/><path class="cls-13" d="M2204.56,659l17.61-5.07s-7.64,72.24,100.81,64.12c0,0,43.3-1.55,35,8.87,0,0-10.51,4-20.12,1.58,0,0,23.8,2.63,22,5.65s4.3,16-36.42,19.35-153.89-38-118.9-94.5Z"/><path class="cls-1" d="M2301.47,817l-10.23,6.94s19.67,31.91,19.67,34l16.52-6.25S2320.35,829.48,2301.47,817Z"/></g><path class="cls-4" d="M2561.19,838.31l25.52,14L2568.32,882s-1.05,15.52,19.44.81,20.4,5.38,17.1,10.73-12.49,24-15.91,25.72-44.48-11-46.75-23.41S2538.88,874.39,2561.19,838.31Z"/><path class="cls-4" d="M2656.73,858.58l27-11.2,14.71,31.49s12.71,9.93,12.13-14.32,16.62-12.38,19.27-6.72,13.28,23.64,12.73,27.24S2707,912.49,2695,906.92,2674.59,896.79,2656.73,858.58Z"/><ellipse class="cls-6" cx="2540.97" cy="711.2" rx="65.89" ry="52.4" transform="translate(1534.31 3150.25) rotate(-83.21)"/><polygon class="cls-7" points="2481.91 829.96 2474.65 829.53 2484.91 703.07 2492.17 703.49 2481.91 829.96"/><polygon class="cls-5" points="2483.86 830.08 2472.7 829.42 2476.04 788.25 2487.2 788.91 2483.86 830.08"/><path class="cls-9" d="M2555.17,750.44l-.26-112Z"/><line class="cls-9" x1="2597.73" y1="710.59" x2="2597.72" y2="710.6"/><line class="cls-9" x1="2587.92" y1="630.58" x2="2591.36" y2="630.78"/><path class="cls-7" d="M2588.13,795l-3.66-.21a1.2,1.2,0,0,1-1.21-1.2l8.11-100.12a1.25,1.25,0,0,1,1.39-1l3.66.22a1.18,1.18,0,0,1,1.21,1.19L2589.53,794A1.26,1.26,0,0,1,2588.13,795Z"/><polygon class="cls-12" points="2486.23 794.9 2475.06 794.24 2475.53 788.51 2486.7 789.17 2486.23 794.9"/><line class="cls-9" x1="152.93" y1="701.92" x2="152.93" y2="701.93"/><line class="cls-9" x1="143.93" y1="619.06" x2="147.22" y2="619.29"/><path class="cls-30" d="M160.74,658.49l-.12,5.87S97.7,673,150.39,692.57l19.28,1.32-.2,9.79s-37.39-.66-33.53-12.34l-8.28-8s-33.13,26.83,39.26,27.13l-.12,5.87s-46,6-34.86-6.49l-14.33-7.11s-35.74,36.57,51.48,19.51l1,7.85s-40.15,15.94-37.39-.66l-16.85-2.25s-6.63,29.25,54.06,11.72l3.62.06,1.64-80.24Z"/><path class="cls-30" d="M195.41,659.62l-.12,5.84s58.18,10.77,8.41,28.41l-18,.66-.2,9.74s34.8.62,31.67-11.13l8-7.66s29.75,27.81-37.58,25.65l-.12,5.85s42.52,7.57,32.67-5.27l13.61-6.59s31.8,37.6-48.65,17.66l-1.28,7.78s36.71,17.21,34.8.61l15.76-1.67s5,29.32-50.74,9.83l-3.36-.06,1.62-79.89Z"/><path class="cls-30" d="M216.34,634.71s8.26,14.75,5.12,18.6-69.76,9.69-73.88-.39,2.17-19.34,2.17-19.34-23.93-.9-23.91-6.32l0-8.52S95.76,607,130.27,569.23s102-9.52,105.1-1.77c0,0,30.07,23.38,6,51.9l-2.11,7.73S238.2,631.73,216.34,634.71Z"/><path class="cls-30" d="M181.75,775.53s6.37-19.81,19.77-8.83c0,0-3.64,10.9-18.88,10.82s-23.3-2.11-23.3-2.11-20.58-9-6.21-13.93,15.18,14,15.18,14Z"/><path class="cls-31" d="M201.1,815.82s11.27-7.71-2.2-11.31-9.07,16.19-3.81,13.4,9.61,29.72,9.61,29.72,6.72,6.39,13.5-1.34c0,0,16.52-7.69-3.7-12Z"/><path class="cls-31" d="M143.35,812s11.77,7.73,7.07-7.66S133.66,803,138.57,807s-16.49,24-16.49,24-1,9.87,8.32,13c0,0,14.59,13.06,6.78-9.52Z"/><path class="cls-30" d="M166.62,741.29s-10.68,5.9,2.87,8.94c0,0-5.8-3-5.85,7.91l8.69,7-17.38-14s-40.7,1.77-13.71,32.67,32.89,12.08,32.89,12.08l4.85-1s1.89,10.93,13.55,3.05,26.28-24.66,26.28-24.66,3-15.86-17.35-20.93c0,0-10.67.93-23.32,12.77,0,0,9.74-9.87,10.7-8.87s-1.89-9.93-7.72-6c0,0,15.53-6.87,0-9.93Z"/><line class="cls-9" x1="153.09" y1="699.16" x2="153.09" y2="699.17"/><line class="cls-9" x1="144.08" y1="616.77" x2="147.38" y2="616.99"/><line class="cls-32" x1="154.1" y1="591" x2="170.04" y2="616.96"/><line class="cls-32" x1="174.69" y1="592.45" x2="149.53" y2="614.08"/><line class="cls-32" x1="197.42" y1="593.11" x2="213.35" y2="619.07"/><line class="cls-32" x1="215.61" y1="594.55" x2="190.45" y2="616.18"/><path class="cls-5" d="M152.43,508.82s25.84-4.48,34.59,8.12,8.54,16.07,17,12.44,12.05-11.77,23.58-7.74S239,540.25,239,540.25s3,16.33-6.18,19.1l-57.66-13.53-32.28-7.58S131.26,519.55,152.43,508.82Z"/><path d="M118.72,546.17l5.93-17.58a2.57,2.57,0,0,1,3.06-1.44l124.83,30.53a2.08,2.08,0,0,1,1.69,2.6l-5.92,17.58a2.58,2.58,0,0,1-3.07,1.45L120.42,548.78A2.1,2.1,0,0,1,118.72,546.17Z"/><path class="cls-10" d="M124.76,541.86S204.52,580.53,261,567c0,0,39.7-5.87-8.73,27.38,0,0-118.63-25.27-133.77-28.06S76.61,506.25,124.76,541.86Z"/><line class="cls-9" x1="503.39" y1="700.87" x2="503.39" y2="700.89"/><line class="cls-9" x1="494.4" y1="618.01" x2="497.68" y2="618.24"/><path class="cls-30" d="M511.21,657.45l-.12,5.87s-62.93,8.67-10.23,28.21l19.28,1.32-.2,9.78s-37.4-.66-33.54-12.34l-8.28-8S445,709.14,517.38,709.44l-.12,5.87s-46,6-34.86-6.49l-14.33-7.1s-35.74,36.56,51.49,19.51l1,7.85s-40.14,15.93-37.39-.66l-16.85-2.26s-6.63,29.25,54.06,11.72L524,738l1.64-80.25Z"/><path class="cls-30" d="M545.87,658.57l-.11,5.85s58.17,10.77,8.4,28.41l-18,.66-.2,9.74s34.8.61,31.67-11.14l8-7.65s29.75,27.81-37.58,25.65l-.12,5.84s42.52,7.57,32.67-5.27l13.61-6.58s31.8,37.59-48.64,17.66l-1.29,7.77s36.71,17.22,34.8.61l15.76-1.67s5,29.33-50.73,9.83l-3.37-.06,1.62-79.88Z"/><path class="cls-30" d="M566.8,633.66s8.26,14.75,5.12,18.61-69.76,9.69-73.88-.4,2.17-19.34,2.17-19.34-23.93-.9-23.91-6.32l0-8.51s-30.12-11.77,4.39-49.52,102-9.52,105.1-1.76c0,0,30.08,23.38,6,51.89L589.73,626S588.67,630.68,566.8,633.66Z"/><path class="cls-30" d="M532.21,774.48s6.37-19.81,19.77-8.82c0,0-3.64,10.89-18.88,10.81s-23.3-2.11-23.3-2.11-20.58-9-6.21-13.92,15.18,14,15.18,14Z"/><path class="cls-31" d="M551.56,814.77s11.28-7.71-2.2-11.31-9.06,16.2-3.81,13.4,9.61,29.72,9.61,29.72,6.72,6.39,13.5-1.34c0,0,16.52-7.68-3.69-12Z"/><path class="cls-31" d="M493.82,811s11.76,7.73,7.07-7.66-16.76-1.41-11.86,2.58-16.49,24-16.49,24-1,9.88,8.32,13c0,0,14.59,13,6.78-9.52Z"/><path class="cls-30" d="M517.09,740.24s-10.69,5.9,2.86,9c0,0-5.8-3-5.85,7.9l8.69,7-17.38-14s-40.7,1.77-13.71,32.67,32.89,12.08,32.89,12.08l4.85-1s1.89,10.92,13.55,3.05,26.28-24.67,26.28-24.67,3-15.86-17.35-20.93c0,0-10.66.94-23.31,12.78,0,0,9.73-9.87,10.7-8.88s-1.9-9.93-7.73-6c0,0,15.54-6.86,0-9.92Z"/><line class="cls-9" x1="503.56" y1="698.11" x2="503.56" y2="698.12"/><line class="cls-9" x1="494.55" y1="615.72" x2="497.84" y2="615.95"/><line class="cls-32" x1="504.56" y1="589.96" x2="520.5" y2="615.92"/><line class="cls-32" x1="525.15" y1="591.4" x2="499.99" y2="613.03"/><line class="cls-32" x1="547.88" y1="592.06" x2="563.82" y2="618.02"/><line class="cls-32" x1="566.07" y1="593.5" x2="540.91" y2="615.14"/><path class="cls-5" d="M498.46,507.75s25.84-4.48,34.59,8.12,8.54,16.08,17.05,12.44,12.06-11.77,23.58-7.74,11.39,18.62,11.39,18.62,3,16.32-6.18,19.09l-57.66-13.53-32.29-7.58S477.3,518.48,498.46,507.75Z"/><path d="M464.76,545.1l5.93-17.58a2.56,2.56,0,0,1,3.06-1.44l124.82,30.53a2.1,2.1,0,0,1,1.7,2.61l-5.93,17.58a2.57,2.57,0,0,1-3.06,1.44L466.45,547.71A2.09,2.09,0,0,1,464.76,545.1Z"/><path class="cls-10" d="M470.79,540.79s79.77,38.67,136.28,25.14c0,0,39.7-5.87-8.73,27.38,0,0-118.63-25.27-133.77-28.06S422.64,505.18,470.79,540.79Z"/><line class="cls-9" x1="848.92" y1="701.17" x2="848.92" y2="701.18"/><line class="cls-9" x1="839.93" y1="618.31" x2="843.22" y2="618.53"/><path class="cls-33" d="M856.74,657.74l-.12,5.87s-62.93,8.68-10.23,28.21l19.28,1.32-.2,9.79s-37.4-.67-33.54-12.34l-8.28-8s-33.13,26.82,39.27,27.12l-.12,5.88s-46,6-34.87-6.49L813.6,702s-35.74,36.57,51.49,19.51l1,7.85s-40.14,15.93-37.39-.66l-16.85-2.26S805.26,755.7,866,738.18l3.62.06L871.21,658Z"/><path class="cls-33" d="M891.41,658.87l-.12,5.84s58.17,10.77,8.4,28.41l-18,.66-.2,9.74s34.8.61,31.67-11.14l8-7.65s29.75,27.81-37.58,25.65l-.12,5.85S926,723.8,916.17,711l13.61-6.58S961.59,742,881.14,722l-1.28,7.78s36.7,17.21,34.8.61l15.75-1.67s5,29.32-50.73,9.82l-3.37-.06,1.63-79.88Z"/><path class="cls-33" d="M912.33,634s8.26,14.76,5.12,18.61-69.76,9.69-73.88-.39,2.17-19.34,2.17-19.34-23.93-.91-23.9-6.32l0-8.52s-30.12-11.77,4.39-49.52,102-9.52,105.11-1.76c0,0,30.07,23.38,6,51.9l-2.12,7.72S934.2,631,912.33,634Z"/><path class="cls-33" d="M877.75,774.77S884.11,755,897.51,766c0,0-3.64,10.89-18.88,10.81s-23.3-2.1-23.3-2.1-20.58-9-6.21-13.93,15.18,14,15.18,14Z"/><path class="cls-34" d="M897.09,815.07s11.28-7.71-2.2-11.32-9.06,16.2-3.8,13.4,9.6,29.72,9.6,29.72,6.72,6.4,13.5-1.34c0,0,16.52-7.68-3.69-12Z"/><path class="cls-34" d="M839.35,811.29s11.76,7.73,7.07-7.66-16.76-1.41-11.86,2.57-16.48,24-16.48,24-1,9.88,8.31,13c0,0,14.59,13.06,6.78-9.52Z"/><path class="cls-33" d="M862.62,740.54s-10.69,5.89,2.86,8.94c0,0-5.8-3-5.85,7.91l8.69,7L851,750.4s-40.71,1.76-13.72,32.67,32.89,12.08,32.89,12.08l4.85-1s1.89,10.93,13.56,3.05,26.27-24.67,26.27-24.67,3-15.86-17.35-20.92c0,0-10.66.93-23.31,12.77,0,0,9.73-9.87,10.7-8.87s-1.9-9.93-7.73-6c0,0,15.54-6.86,0-9.92Z"/><line class="cls-9" x1="849.09" y1="698.4" x2="849.09" y2="698.42"/><line class="cls-9" x1="840.08" y1="616.01" x2="843.37" y2="616.24"/><line class="cls-35" x1="850.09" y1="590.25" x2="866.03" y2="616.21"/><line class="cls-35" x1="870.68" y1="591.69" x2="845.52" y2="613.33"/><line class="cls-35" x1="893.41" y1="592.35" x2="909.35" y2="618.31"/><line class="cls-35" x1="911.6" y1="593.8" x2="886.44" y2="615.43"/><path class="cls-5" d="M848.82,508.69s25.84-4.49,34.59,8.12,8.55,16.07,17.05,12.44,12.06-11.78,23.59-7.75,11.38,18.62,11.38,18.62,3,16.32-6.18,19.1l-57.66-13.54L839.3,538.1S827.66,519.42,848.82,508.69Z"/><path d="M815.12,546l5.93-17.58a2.56,2.56,0,0,1,3.06-1.45l124.82,30.53a2.09,2.09,0,0,1,1.7,2.61l-5.93,17.58a2.56,2.56,0,0,1-3.06,1.44L816.82,548.65A2.1,2.1,0,0,1,815.12,546Z"/><path class="cls-10" d="M821.16,541.72s79.76,38.68,136.28,25.15c0,0,39.7-5.87-8.74,27.37,0,0-118.62-25.27-133.77-28.06S773,506.11,821.16,541.72Z"/><g class="cls-36"><path class="cls-3" d="M1625.55,854.28l-13.87,9.29s-18.88-47.21-32.92-50.14-.77,0-.77,0l-28.07-1s-22.29,55-32.19,56.82-1,0-1,0L1506,854s24.55-42.91,21.76-50,66.22,3.9,66.22,3.9S1621.66,837.49,1625.55,854.28Z"/><path class="cls-4" d="M1510.57,838.66l25.52,14-18.39,29.73s-1.06,15.52,19.43.81,20.41,5.38,17.1,10.72-12.48,24-15.91,25.72-44.47-11-46.75-23.4S1488.26,874.74,1510.57,838.66Z"/><path class="cls-4" d="M1606.1,858.93l27-11.2,14.72,31.49s12.71,9.93,12.13-14.32,16.62-12.38,19.26-6.72,13.29,23.63,12.74,27.24-35.59,27.42-47.6,21.84S1624,897.14,1606.1,858.93Z"/><path class="cls-5" d="M1548.16,509.62s25.84-4.48,34.59,8.12,8.54,16.08,17,12.45,12-11.78,23.58-7.75,11.39,18.62,11.39,18.62,3,16.32-6.18,19.1l-57.67-13.54L1538.64,539S1527,520.36,1548.16,509.62Z"/><path class="cls-2" d="M1579.48,553.59s73-6.21,70.58,59.23c-.21,5.59-4.43,55.23-4.7,57.87-5.16,50.4-14.5,116.6-27.92,130.14-28.41,28.63-48.64,36.72-60.75,34.15s-57.9-36.83-54.52-105.3-6.77-122.28,13.06-161.32C1515.23,568.36,1526.2,549.21,1579.48,553.59Z"/><path d="M1514.46,547l5.92-17.58a2.57,2.57,0,0,1,3.06-1.45l124.83,30.53a2.08,2.08,0,0,1,1.69,2.61L1644,578.67a2.57,2.57,0,0,1-3.06,1.44l-124.83-30.52A2.09,2.09,0,0,1,1514.46,547Z"/><ellipse class="cls-6" cx="1490.35" cy="711.55" rx="65.89" ry="52.4" transform="translate(607.57 2107.3) rotate(-83.21)"/><polygon class="cls-7" points="1431.28 830.31 1424.03 829.88 1434.29 703.41 1441.55 703.84 1431.28 830.31"/><polygon class="cls-5" points="1433.24 830.42 1422.07 829.76 1425.41 788.6 1436.58 789.25 1433.24 830.42"/><path class="cls-9" d="M1504.54,750.79l-.26-111.95Z"/><line class="cls-9" x1="1547.1" y1="710.94" x2="1547.1" y2="710.95"/><line class="cls-9" x1="1537.29" y1="630.92" x2="1540.74" y2="631.13"/><path class="cls-10" d="M1520.49,542.66s79.77,38.68,136.28,25.14c0,0,39.7-5.87-8.73,27.38,0,0-118.63-25.27-133.77-28.06S1472.34,507.05,1520.49,542.66Z"/><path class="cls-7" d="M1537.5,795.38l-3.65-.22a1.19,1.19,0,0,1-1.22-1.19l8.11-100.12a1.26,1.26,0,0,1,1.4-1l3.65.21a1.21,1.21,0,0,1,1.22,1.2l-8.11,100.12A1.26,1.26,0,0,1,1537.5,795.38Z"/><polygon class="cls-12" points="1435.61 795.25 1424.44 794.59 1424.9 788.86 1436.07 789.52 1435.61 795.25"/><path class="cls-13" d="M1503,657.91l17.61-5.07S1513,725.08,1621.45,717c0,0,43.3-1.55,35,8.86,0,0-10.52,4-20.12,1.58,0,0,23.79,2.63,22,5.66s4.29,16-36.43,19.35S1468,714.46,1503,657.91Z"/><path class="cls-1" d="M1599.93,815.9l-10.22,6.93s19.67,31.92,19.67,34l16.52-6.24S1618.82,828.39,1599.93,815.9Z"/></g><g class="cls-37"><path class="cls-3" d="M1276.44,854.78l-13.87,9.29s-18.88-47.21-32.91-50.15-.78,0-.78,0l-28.07-1s-22.29,55-32.19,56.82-1,0-1,0l-10.76-15.29s24.55-42.91,21.76-50,66.22,3.9,66.22,3.9S1272.55,838,1276.44,854.78Z"/><path class="cls-4" d="M1161.46,839.16l25.52,14-18.39,29.72s-1.06,15.53,19.43.82,20.41,5.38,17.1,10.72-12.48,24-15.9,25.72-44.48-11-46.76-23.4S1139.15,875.23,1161.46,839.16Z"/><path class="cls-4" d="M1257,859.43l27-11.2,14.72,31.48s12.71,9.94,12.13-14.31,16.62-12.38,19.27-6.72,13.28,23.63,12.73,27.24-35.58,27.42-47.6,21.84S1274.85,897.64,1257,859.43Z"/><path class="cls-5" d="M1199.05,510.12s25.84-4.48,34.59,8.12,8.54,16.08,17,12.45,12.06-11.78,23.58-7.75,11.39,18.62,11.39,18.62,3,16.32-6.18,19.1l-57.66-13.54-32.29-7.58S1177.89,520.86,1199.05,510.12Z"/><path class="cls-2" d="M1230.37,554.09s73-6.21,70.58,59.22c-.21,5.6-4.43,55.24-4.7,57.88-5.15,50.4-14.5,116.6-27.92,130.14-28.41,28.63-48.63,36.72-60.75,34.15s-57.89-36.83-54.52-105.3-6.77-122.28,13.06-161.32C1166.12,568.86,1177.1,549.71,1230.37,554.09Z"/><path d="M1165.35,547.48l5.92-17.58a2.58,2.58,0,0,1,3.07-1.45L1299.16,559a2.1,2.1,0,0,1,1.7,2.61l-5.93,17.58a2.57,2.57,0,0,1-3.06,1.44L1167,550.08A2.08,2.08,0,0,1,1165.35,547.48Z"/><ellipse class="cls-6" cx="1141.24" cy="712.05" rx="65.89" ry="52.4" transform="translate(299.25 1761.08) rotate(-83.21)"/><polygon class="cls-7" points="1082.18 830.81 1074.92 830.38 1085.18 703.91 1092.44 704.34 1082.18 830.81"/><polygon class="cls-5" points="1084.13 830.92 1072.96 830.26 1076.3 789.1 1087.47 789.75 1084.13 830.92"/><path class="cls-9" d="M1155.44,751.29l-.27-111.95Z"/><line class="cls-9" x1="1197.99" y1="711.44" x2="1197.99" y2="711.45"/><line class="cls-9" x1="1188.19" y1="631.42" x2="1191.63" y2="631.63"/><path class="cls-10" d="M1171.38,543.16s79.77,38.68,136.28,25.14c0,0,39.7-5.87-8.73,27.38,0,0-118.63-25.27-133.77-28.06S1123.23,507.55,1171.38,543.16Z"/><path class="cls-7" d="M1188.4,795.88l-3.66-.22a1.18,1.18,0,0,1-1.21-1.19l8.11-100.12a1.25,1.25,0,0,1,1.39-1l3.66.21a1.2,1.2,0,0,1,1.21,1.2l-8.11,100.12A1.25,1.25,0,0,1,1188.4,795.88Z"/><polygon class="cls-12" points="1086.5 795.75 1075.33 795.09 1075.8 789.36 1086.96 790.02 1086.5 795.75"/><path class="cls-13" d="M1153.92,658.41l17.61-5.07s-7.64,72.24,100.81,64.12c0,0,43.3-1.55,35,8.86,0,0-10.51,4-20.12,1.58,0,0,23.8,2.63,22,5.66s4.3,16-36.42,19.35-153.89-37.95-118.9-94.5Z"/><path class="cls-1" d="M1250.83,816.4l-10.23,6.93s19.67,31.92,19.67,34l16.52-6.24S1269.71,828.88,1250.83,816.4Z"/></g><line class="cls-9" x1="2598.88" y1="701.72" x2="2598.88" y2="701.73"/><line class="cls-9" x1="2589.88" y1="618.86" x2="2593.17" y2="619.09"/><path class="cls-33" d="M2606.69,658.29l-.12,5.87s-62.92,8.68-10.23,28.21l19.28,1.32-.2,9.79s-37.39-.66-33.53-12.34l-8.29-8s-33.13,26.83,39.27,27.13l-.12,5.87s-46,6-34.86-6.49l-14.34-7.11s-35.74,36.57,51.49,19.51l1.05,7.85s-40.15,15.94-37.4-.66L2561.85,727s-6.63,29.25,54.06,11.72l3.62.06,1.64-80.24Z"/><path class="cls-33" d="M2641.36,659.42l-.12,5.85s58.18,10.76,8.41,28.41l-18,.65-.2,9.75s34.8.61,31.67-11.14l8-7.66s29.76,27.81-37.58,25.65l-.11,5.85s42.51,7.57,32.67-5.27l13.61-6.59s31.8,37.6-48.65,17.66l-1.28,7.78s36.71,17.21,34.8.61l15.75-1.67s5,29.32-50.73,9.83l-3.37-.06,1.63-79.89Z"/><path class="cls-33" d="M2662.29,634.51s8.25,14.75,5.11,18.6-69.76,9.69-73.87-.39,2.16-19.34,2.16-19.34-23.93-.9-23.9-6.32l0-8.52s-30.13-11.77,4.38-49.51,102-9.52,105.11-1.77c0,0,30.07,23.39,6,51.9l-2.12,7.73S2684.15,631.53,2662.29,634.51Z"/><path class="cls-33" d="M2627.7,775.33s6.36-19.81,19.76-8.83c0,0-3.63,10.9-18.87,10.82s-23.3-2.11-23.3-2.11-20.58-9-6.22-13.93,15.18,14,15.18,14Z"/><path class="cls-34" d="M2647,815.62s11.28-7.71-2.19-11.31-9.07,16.2-3.81,13.4,9.61,29.72,9.61,29.72,6.71,6.39,13.49-1.34c0,0,16.53-7.69-3.69-12Z"/><path class="cls-34" d="M2589.3,811.84s11.76,7.73,7.07-7.66-16.76-1.41-11.86,2.58-16.48,24-16.48,24-1,9.87,8.31,13c0,0,14.6,13.06,6.78-9.52Z"/><path class="cls-33" d="M2612.57,741.09s-10.68,5.9,2.87,8.94c0,0-5.8-3-5.85,7.91l8.69,7-17.38-14s-40.71,1.77-13.71,32.67,32.89,12.08,32.89,12.08l4.85-1s1.89,10.93,13.55,3,26.27-24.66,26.27-24.66,3-15.86-17.34-20.93c0,0-10.67.93-23.32,12.77,0,0,9.74-9.87,10.7-8.87s-1.89-9.93-7.72-6c0,0,15.53-6.87,0-9.93Z"/><line class="cls-9" x1="2599.04" y1="698.96" x2="2599.04" y2="698.97"/><line class="cls-9" x1="2590.03" y1="616.57" x2="2593.32" y2="616.79"/><line class="cls-35" x1="2600.05" y1="590.8" x2="2615.98" y2="616.76"/><line class="cls-35" x1="2620.63" y1="592.25" x2="2595.48" y2="613.88"/><line class="cls-35" x1="2643.36" y1="592.91" x2="2659.3" y2="618.87"/><line class="cls-35" x1="2661.55" y1="594.35" x2="2636.4" y2="615.98"/><path class="cls-5" d="M2598.78,509.28s25.84-4.49,34.59,8.12,8.55,16.07,17.05,12.44,12.06-11.77,23.58-7.75,11.39,18.62,11.39,18.62,3,16.32-6.18,19.1l-57.66-13.53-32.29-7.58S2577.62,520,2598.78,509.28Z"/><path d="M2565.08,546.63l5.93-17.58a2.56,2.56,0,0,1,3.06-1.44l124.82,30.52a2.1,2.1,0,0,1,1.7,2.61l-5.93,17.58a2.56,2.56,0,0,1-3.06,1.45l-124.82-30.53A2.09,2.09,0,0,1,2565.08,546.63Z"/><path class="cls-10" d="M2571.11,542.31s79.77,38.68,136.28,25.15c0,0,39.71-5.87-8.73,27.37,0,0-118.62-25.26-133.77-28.06S2523,506.71,2571.11,542.31Z"/><line class="cls-9" x1="1197.86" y1="700.85" x2="1197.86" y2="700.86"/><line class="cls-9" x1="1188.87" y1="617.99" x2="1192.15" y2="618.22"/><path class="cls-33" d="M1205.68,657.42l-.12,5.88s-62.93,8.67-10.23,28.2l19.28,1.32-.2,9.79s-37.4-.66-33.54-12.34l-8.28-8s-33.13,26.83,39.26,27.13l-.12,5.87s-46,6-34.86-6.49l-14.33-7.11S1126.8,738.26,1214,721.2l1,7.85s-40.14,15.94-37.39-.66l-16.85-2.25s-6.63,29.25,54.06,11.72l3.62.07,1.64-80.25Z"/><path class="cls-33" d="M1240.34,658.55l-.12,5.85s58.18,10.77,8.41,28.41l-18,.65-.2,9.75s34.8.61,31.67-11.14l8-7.66s29.75,27.82-37.58,25.66l-.12,5.84s42.52,7.57,32.67-5.27l13.61-6.58s31.8,37.59-48.64,17.66l-1.29,7.77s36.71,17.21,34.8.61l15.76-1.67s5,29.33-50.73,9.83l-3.37-.06,1.62-79.89Z"/><path class="cls-33" d="M1261.27,633.64s8.26,14.75,5.12,18.6-69.76,9.7-73.88-.39,2.17-19.34,2.17-19.34-23.93-.9-23.91-6.32l0-8.51s-30.12-11.78,4.39-49.52,102-9.52,105.1-1.77c0,0,30.07,23.39,6,51.9L1284.2,626S1283.14,630.66,1261.27,633.64Z"/><path class="cls-33" d="M1226.68,774.46s6.37-19.81,19.77-8.83c0,0-3.64,10.9-18.88,10.82s-23.3-2.11-23.3-2.11-20.58-9-6.21-13.92,15.18,14,15.18,14Z"/><path class="cls-34" d="M1246,814.75s11.28-7.71-2.2-11.31-9.07,16.2-3.81,13.4,9.61,29.72,9.61,29.72,6.72,6.39,13.5-1.34c0,0,16.52-7.68-3.69-12Z"/><path class="cls-34" d="M1188.29,811s11.76,7.73,7.07-7.66-16.76-1.41-11.86,2.58-16.49,24-16.49,24-1,9.87,8.32,13c0,0,14.59,13.06,6.78-9.52Z"/><path class="cls-33" d="M1211.56,740.22s-10.69,5.9,2.86,8.95c0,0-5.8-3-5.85,7.9l8.69,7-17.38-14s-40.7,1.77-13.71,32.67,32.89,12.08,32.89,12.08l4.85-1s1.89,10.92,13.55,3,26.28-24.67,26.28-24.67,3-15.86-17.35-20.93c0,0-10.66.94-23.31,12.78,0,0,9.73-9.88,10.69-8.88s-1.89-9.93-7.72-6c0,0,15.53-6.87,0-9.92Z"/><line class="cls-9" x1="1198.03" y1="698.09" x2="1198.03" y2="698.1"/><line class="cls-9" x1="1189.02" y1="615.7" x2="1192.31" y2="615.93"/><line class="cls-35" x1="1199.03" y1="589.94" x2="1214.97" y2="615.9"/><line class="cls-35" x1="1219.62" y1="591.38" x2="1194.46" y2="613.01"/><line class="cls-35" x1="1242.35" y1="592.04" x2="1258.29" y2="618"/><line class="cls-35" x1="1260.54" y1="593.48" x2="1235.38" y2="615.11"/><line class="cls-9" x1="1549.06" y1="699.85" x2="1549.06" y2="699.86"/><line class="cls-9" x1="1540.06" y1="616.99" x2="1543.35" y2="617.22"/><path class="cls-33" d="M1556.87,656.42l-.12,5.88s-62.92,8.67-10.23,28.2l19.28,1.32-.2,9.79s-37.39-.66-33.53-12.34l-8.28-8s-33.13,26.83,39.26,27.13l-.12,5.87s-46,6-34.86-6.49l-14.33-7.11s-35.75,36.57,51.48,19.51l1,7.85s-40.15,15.94-37.39-.66L1512,725.14s-6.63,29.25,54.06,11.72l3.62.07,1.64-80.25Z"/><path class="cls-33" d="M1591.54,657.55l-.12,5.85s58.18,10.77,8.41,28.41l-18,.65-.2,9.75s34.8.61,31.67-11.14l8-7.66s29.75,27.82-37.58,25.66l-.12,5.84s42.52,7.57,32.67-5.27l13.61-6.58s31.8,37.59-48.65,17.66l-1.28,7.77s36.71,17.21,34.8.61l15.76-1.67s5,29.33-50.74,9.83l-3.36-.06,1.62-79.89Z"/><path class="cls-33" d="M1612.47,632.64s8.26,14.75,5.12,18.6-69.76,9.7-73.88-.39,2.17-19.34,2.17-19.34-23.93-.9-23.91-6.32l0-8.51s-30.12-11.78,4.39-49.52,102-9.52,105.1-1.77c0,0,30.07,23.39,6,51.9L1635.4,625S1634.33,629.66,1612.47,632.64Z"/><path class="cls-33" d="M1577.88,773.46s6.37-19.81,19.77-8.83c0,0-3.64,10.9-18.88,10.82s-23.3-2.11-23.3-2.11-20.58-9-6.21-13.92,15.17,14,15.17,14Z"/><path class="cls-34" d="M1597.23,813.75s11.27-7.71-2.2-11.31-9.07,16.2-3.81,13.4,9.61,29.72,9.61,29.72,6.72,6.39,13.5-1.34c0,0,16.52-7.68-3.7-12Z"/><path class="cls-34" d="M1539.48,810s11.77,7.73,7.07-7.66-16.76-1.41-11.85,2.58-16.49,24-16.49,24-1,9.87,8.32,13c0,0,14.59,13.06,6.78-9.52Z"/><path class="cls-33" d="M1562.75,739.22s-10.68,5.9,2.87,8.95c0,0-5.8-3-5.85,7.9l8.69,7-17.38-14s-40.7,1.77-13.71,32.67,32.89,12.08,32.89,12.08l4.85-1s1.89,10.92,13.55,3,26.28-24.67,26.28-24.67,3-15.86-17.35-20.93c0,0-10.67.94-23.32,12.78,0,0,9.74-9.88,10.7-8.88s-1.89-9.93-7.72-6c0,0,15.53-6.87,0-9.92Z"/><line class="cls-9" x1="1549.22" y1="697.09" x2="1549.22" y2="697.1"/><line class="cls-9" x1="1540.21" y1="614.7" x2="1543.51" y2="614.93"/><line class="cls-35" x1="1550.23" y1="588.94" x2="1566.17" y2="614.9"/><line class="cls-35" x1="1570.82" y1="590.38" x2="1545.66" y2="612.01"/><line class="cls-35" x1="1593.55" y1="591.04" x2="1609.48" y2="617"/><line class="cls-35" x1="1611.73" y1="592.48" x2="1586.58" y2="614.11"/><line class="cls-9" x1="1897.83" y1="703.17" x2="1897.83" y2="703.18"/><line class="cls-9" x1="1888.84" y1="620.31" x2="1892.12" y2="620.53"/><path class="cls-33" d="M1905.64,659.74l-.12,5.87s-62.92,8.68-10.22,28.21l19.27,1.32-.2,9.79s-37.39-.66-33.53-12.34l-8.28-8s-33.13,26.82,39.26,27.12l-.12,5.88s-46,6-34.86-6.49L1862.51,704s-35.74,36.57,51.48,19.51l1,7.85s-40.14,15.93-37.39-.66l-16.85-2.26s-6.63,29.26,54.06,11.73l3.62.06,1.64-80.24Z"/><path class="cls-33" d="M1940.31,660.87l-.12,5.84s58.18,10.77,8.41,28.41l-18,.66-.2,9.74s34.8.61,31.67-11.13l8-7.66s29.75,27.81-37.58,25.65l-.12,5.85s42.52,7.57,32.67-5.28l13.61-6.58S2010.49,744,1930,724l-1.28,7.78s36.71,17.21,34.8.61l15.76-1.67s5,29.32-50.73,9.82l-3.37-.06,1.62-79.88Z"/><path class="cls-33" d="M1961.24,636s8.26,14.76,5.12,18.61-69.76,9.69-73.88-.39,2.17-19.34,2.17-19.34-23.93-.91-23.91-6.32l0-8.52s-30.12-11.77,4.39-49.52,102-9.52,105.1-1.76c0,0,30.07,23.38,6,51.9l-2.11,7.73S1983.1,633,1961.24,636Z"/><path class="cls-33" d="M1926.65,776.77S1933,757,1946.42,768c0,0-3.64,10.89-18.88,10.81s-23.3-2.1-23.3-2.1-20.58-9-6.21-13.93,15.18,14,15.18,14Z"/><path class="cls-34" d="M1946,817.07s11.27-7.71-2.2-11.32-9.07,16.2-3.81,13.41,9.61,29.71,9.61,29.71,6.72,6.4,13.5-1.34c0,0,16.52-7.68-3.7-12Z"/><path class="cls-34" d="M1888.26,813.29s11.76,7.73,7.06-7.66-16.76-1.41-11.85,2.57-16.49,24-16.49,24-1,9.88,8.32,13c0,0,14.59,13.06,6.78-9.52Z"/><path class="cls-33" d="M1911.52,742.54s-10.68,5.89,2.87,8.94c0,0-5.8-3-5.85,7.91l8.69,7-17.38-14s-40.7,1.76-13.71,32.67S1919,797.15,1919,797.15l4.85-1s1.89,10.93,13.55,3.05,26.28-24.67,26.28-24.67,3-15.85-17.35-20.92c0,0-10.66.93-23.31,12.77,0,0,9.73-9.87,10.69-8.87s-1.89-9.93-7.72-6c0,0,15.53-6.86,0-9.92Z"/><line class="cls-9" x1="1898" y1="700.4" x2="1897.99" y2="700.42"/><line class="cls-9" x1="1888.98" y1="618.01" x2="1892.28" y2="618.24"/><line class="cls-35" x1="1899" y1="592.25" x2="1914.94" y2="618.21"/><line class="cls-35" x1="1919.59" y1="593.69" x2="1894.43" y2="615.33"/><line class="cls-35" x1="1942.32" y1="594.35" x2="1958.25" y2="620.31"/><line class="cls-35" x1="1960.51" y1="595.8" x2="1935.35" y2="617.43"/><line class="cls-9" x1="2248.36" y1="703.12" x2="2248.36" y2="703.13"/><line class="cls-9" x1="2239.37" y1="620.26" x2="2242.66" y2="620.49"/><path class="cls-33" d="M2256.18,659.7l-.12,5.87s-62.93,8.67-10.23,28.21l19.28,1.32-.2,9.78s-37.4-.66-33.54-12.34l-8.28-8s-33.13,26.83,39.26,27.13l-.12,5.87s-46,6-34.86-6.49L2213,704s-35.74,36.56,51.49,19.51l1,7.85s-40.14,15.93-37.39-.67l-16.85-2.25s-6.63,29.25,54.06,11.72l3.62.07,1.64-80.25Z"/><path class="cls-33" d="M2290.84,660.82l-.11,5.85s58.17,10.77,8.4,28.41l-18,.66-.2,9.74s34.8.61,31.67-11.14l8-7.65s29.75,27.81-37.58,25.65l-.12,5.84s42.52,7.57,32.67-5.27l13.61-6.58s31.8,37.59-48.64,17.66l-1.29,7.77s36.71,17.21,34.8.61l15.76-1.67s5,29.33-50.73,9.83l-3.37-.06,1.62-79.88Z"/><path class="cls-33" d="M2311.77,635.91s8.26,14.75,5.12,18.6-69.76,9.7-73.88-.39,2.17-19.34,2.17-19.34-23.93-.9-23.91-6.32l0-8.51s-30.12-11.77,4.39-49.52,102-9.52,105.1-1.76c0,0,30.08,23.38,6,51.89l-2.11,7.73S2333.64,632.93,2311.77,635.91Z"/><path class="cls-33" d="M2277.18,776.73s6.37-19.81,19.77-8.82c0,0-3.64,10.89-18.88,10.81s-23.3-2.11-23.3-2.11-20.58-9-6.21-13.92,15.18,14,15.18,14Z"/><path class="cls-34" d="M2296.53,817s11.28-7.71-2.2-11.31-9.06,16.2-3.81,13.4,9.61,29.72,9.61,29.72,6.72,6.39,13.5-1.34c0,0,16.52-7.68-3.69-12Z"/><path class="cls-34" d="M2238.79,813.24s11.76,7.73,7.07-7.66-16.76-1.41-11.86,2.58-16.49,24-16.49,24-1,9.88,8.32,13c0,0,14.59,13.06,6.78-9.51Z"/><path class="cls-33" d="M2262.06,742.49s-10.69,5.9,2.86,9c0,0-5.8-3-5.85,7.9l8.69,7-17.38-14s-40.7,1.77-13.71,32.67,32.89,12.08,32.89,12.08l4.85-1s1.89,10.92,13.55,3.05,26.28-24.67,26.28-24.67,3-15.86-17.35-20.93c0,0-10.66.94-23.31,12.78,0,0,9.73-9.87,10.7-8.88s-1.9-9.93-7.73-6c0,0,15.54-6.86,0-9.92Z"/><line class="cls-9" x1="2248.53" y1="700.36" x2="2248.53" y2="700.37"/><line class="cls-9" x1="2239.52" y1="617.97" x2="2242.81" y2="618.2"/><line class="cls-35" x1="2249.53" y1="592.21" x2="2265.47" y2="618.17"/><line class="cls-35" x1="2270.12" y1="593.65" x2="2244.96" y2="615.28"/><line class="cls-35" x1="2292.85" y1="594.31" x2="2308.79" y2="620.27"/><line class="cls-35" x1="2311.04" y1="595.75" x2="2285.88" y2="617.39"/><path class="cls-5" d="M1199.81,512.45s25.84-4.48,34.59,8.12,8.54,16.07,17,12.44,12.06-11.77,23.58-7.74,11.39,18.61,11.39,18.61,3,16.33-6.18,19.1l-57.66-13.53-32.29-7.58S1178.65,523.18,1199.81,512.45Z"/><path d="M1166.11,549.8l5.92-17.58a2.57,2.57,0,0,1,3.06-1.44l124.83,30.53a2.09,2.09,0,0,1,1.7,2.6l-5.93,17.58a2.56,2.56,0,0,1-3.06,1.45L1167.8,552.41A2.08,2.08,0,0,1,1166.11,549.8Z"/><path class="cls-10" d="M1172.14,545.49s79.77,38.67,136.28,25.14c0,0,39.7-5.87-8.73,27.38,0,0-118.63-25.27-133.77-28.07S1124,509.88,1172.14,545.49Z"/><path class="cls-5" d="M1547.22,509.18s25.84-4.48,34.59,8.12,8.54,16.07,17,12.44,12.06-11.77,23.58-7.74,11.39,18.61,11.39,18.61,3,16.33-6.18,19.1L1570,546.18l-32.29-7.58S1526.06,519.91,1547.22,509.18Z"/><path d="M1515.52,545.53l5.92-17.58a2.58,2.58,0,0,1,3.07-1.44L1649.33,557a2.09,2.09,0,0,1,1.7,2.6l-5.93,17.58a2.56,2.56,0,0,1-3.06,1.45l-124.83-30.53A2.08,2.08,0,0,1,1515.52,545.53Z"/><path class="cls-10" d="M1520.55,543.22s79.77,38.67,136.28,25.14c0,0,39.7-5.87-8.73,27.38,0,0-118.63-25.27-133.77-28.07S1472.4,507.61,1520.55,543.22Z"/><path class="cls-5" d="M1899.7,509.87s25.84-4.48,34.59,8.12,8.54,16.08,17,12.45,12.05-11.78,23.58-7.75,11.39,18.62,11.39,18.62,3,16.32-6.18,19.1l-57.67-13.54-32.28-7.58S1878.53,520.61,1899.7,509.87Z"/><path d="M1866,547.23l5.93-17.58a2.56,2.56,0,0,1,3.06-1.45l124.83,30.53a2.08,2.08,0,0,1,1.69,2.61l-5.92,17.58a2.57,2.57,0,0,1-3.06,1.44l-124.83-30.53A2.09,2.09,0,0,1,1866,547.23Z"/><path class="cls-10" d="M1872,542.91s79.76,38.68,136.28,25.14c0,0,39.7-5.87-8.73,27.38,0,0-118.63-25.27-133.77-28.06S1823.88,507.3,1872,542.91Z"/><path class="cls-5" d="M2250.54,510.87s25.84-4.49,34.59,8.12,8.55,16.07,17,12.44,12.06-11.77,23.58-7.74,11.39,18.61,11.39,18.61,3,16.32-6.18,19.1l-57.66-13.53L2241,540.29S2229.38,521.6,2250.54,510.87Z"/><path d="M2216.84,548.22l5.93-17.58a2.56,2.56,0,0,1,3.06-1.44l124.82,30.52a2.1,2.1,0,0,1,1.7,2.61l-5.93,17.58a2.56,2.56,0,0,1-3.06,1.45l-124.82-30.53A2.09,2.09,0,0,1,2216.84,548.22Z"/><path class="cls-10" d="M2222.87,543.9s79.77,38.68,136.28,25.15c0,0,39.71-5.87-8.73,27.38,0,0-118.62-25.27-133.77-28.07S2174.72,508.3,2222.87,543.9Z"/><path class="cls-4" d="M1161.31,838.77l25.52,14-18.39,29.73s-1.06,15.53,19.43.82,20.41,5.38,17.1,10.72-12.48,24-15.9,25.72-44.48-11-46.76-23.41S1139,874.84,1161.31,838.77Z"/><path class="cls-4" d="M1256.84,859l27-11.21,14.72,31.49s12.71,9.94,12.13-14.32,16.62-12.38,19.27-6.71,13.28,23.63,12.73,27.24-35.58,27.42-47.6,21.84S1274.7,897.25,1256.84,859Z"/><path class="cls-4" d="M1510.58,838.87l25.51,14-18.38,29.73s-1.06,15.52,19.43.82,20.41,5.37,17.1,10.72-12.48,24-15.91,25.72-44.47-11-46.75-23.41S1488.26,875,1510.58,838.87Z"/><path class="cls-4" d="M1606.11,859.14l27-11.2,14.72,31.49s12.71,9.94,12.12-14.32,16.63-12.38,19.27-6.72S1692.54,882,1692,885.64s-35.58,27.42-47.6,21.84S1624,897.36,1606.11,859.14Z"/><path class="cls-4" d="M1862.7,839.57l25.52,14-18.39,29.73s-1.06,15.53,19.43.82,20.41,5.37,17.1,10.72-12.48,24-15.9,25.72-44.48-11-46.76-23.41S1840.39,875.64,1862.7,839.57Z"/><path class="cls-4" d="M1958.23,859.84l27-11.21L2000,880.12s12.71,9.94,12.13-14.32,16.62-12.38,19.27-6.72,13.28,23.64,12.73,27.25-35.58,27.42-47.6,21.84S1976.09,898.05,1958.23,859.84Z"/><path class="cls-4" d="M2212.06,839.3l25.52,14L2219.19,883s-1.06,15.53,19.43.82,20.41,5.38,17.1,10.72-12.48,24-15.9,25.72-44.48-11-46.76-23.41S2189.75,875.37,2212.06,839.3Z"/><path class="cls-4" d="M2307.59,859.57l27-11.21,14.72,31.49s12.71,9.94,12.13-14.32,16.62-12.38,19.27-6.71,13.28,23.63,12.73,27.24-35.58,27.42-47.6,21.84S2325.45,897.78,2307.59,859.57Z"/></g></svg>
